<mxfile host="app.diagrams.net" modified="2021-10-12T14:21:52.359Z" agent="5.0 (Windows NT 10.0; WOW64) AppleWebKit/537.36 (KHTML, like Gecko) Chrome/92.0.4515.131 Safari/537.36" etag="rNMVZYJrkG-Ycc1HC4bq" version="15.5.1" type="github">
  <diagram id="3t47HKa8IBEHb_ekaZYD" name="Page-1">
    <mxGraphModel dx="1287" dy="511" grid="1" gridSize="10" guides="1" tooltips="1" connect="1" arrows="1" fold="1" page="1" pageScale="1" pageWidth="850" pageHeight="1100" math="0" shadow="0">
      <root>
        <mxCell id="0" />
        <mxCell id="1" parent="0" />
        <mxCell id="HBRi0KXys4XlXAcfF2yt-7" style="edgeStyle=orthogonalEdgeStyle;rounded=0;orthogonalLoop=1;jettySize=auto;html=1;exitX=1;exitY=0.5;exitDx=0;exitDy=0;entryX=0.5;entryY=0;entryDx=0;entryDy=0;" edge="1" parent="1" source="HBRi0KXys4XlXAcfF2yt-1" target="HBRi0KXys4XlXAcfF2yt-4">
          <mxGeometry relative="1" as="geometry" />
        </mxCell>
        <mxCell id="HBRi0KXys4XlXAcfF2yt-1" value="BulkRulesController&lt;br&gt;/upload" style="rounded=1;whiteSpace=wrap;html=1;" vertex="1" parent="1">
          <mxGeometry x="80" y="100" width="180" height="70" as="geometry" />
        </mxCell>
        <mxCell id="HBRi0KXys4XlXAcfF2yt-6" style="edgeStyle=orthogonalEdgeStyle;rounded=0;orthogonalLoop=1;jettySize=auto;html=1;exitX=1;exitY=0.5;exitDx=0;exitDy=0;" edge="1" parent="1" source="HBRi0KXys4XlXAcfF2yt-2">
          <mxGeometry relative="1" as="geometry">
            <mxPoint x="480" y="265" as="targetPoint" />
          </mxGeometry>
        </mxCell>
        <mxCell id="HBRi0KXys4XlXAcfF2yt-2" value="UIRuleController&lt;br&gt;/checker-action=approve" style="rounded=1;whiteSpace=wrap;html=1;" vertex="1" parent="1">
          <mxGeometry x="80" y="230" width="180" height="70" as="geometry" />
        </mxCell>
        <mxCell id="HBRi0KXys4XlXAcfF2yt-8" style="edgeStyle=orthogonalEdgeStyle;rounded=0;orthogonalLoop=1;jettySize=auto;html=1;exitX=1;exitY=0.5;exitDx=0;exitDy=0;entryX=0.5;entryY=1;entryDx=0;entryDy=0;" edge="1" parent="1" source="HBRi0KXys4XlXAcfF2yt-3" target="HBRi0KXys4XlXAcfF2yt-4">
          <mxGeometry relative="1" as="geometry" />
        </mxCell>
        <mxCell id="HBRi0KXys4XlXAcfF2yt-3" value="UIRuleController&lt;br&gt;/updateRules=approve" style="rounded=1;whiteSpace=wrap;html=1;" vertex="1" parent="1">
          <mxGeometry x="80" y="360" width="180" height="70" as="geometry" />
        </mxCell>
        <mxCell id="HBRi0KXys4XlXAcfF2yt-15" style="edgeStyle=orthogonalEdgeStyle;rounded=0;orthogonalLoop=1;jettySize=auto;html=1;exitX=0.952;exitY=-0.035;exitDx=0;exitDy=0;exitPerimeter=0;" edge="1" parent="1" source="HBRi0KXys4XlXAcfF2yt-4" target="HBRi0KXys4XlXAcfF2yt-13">
          <mxGeometry relative="1" as="geometry">
            <Array as="points">
              <mxPoint x="613" y="230" />
              <mxPoint x="670" y="230" />
            </Array>
          </mxGeometry>
        </mxCell>
        <mxCell id="HBRi0KXys4XlXAcfF2yt-16" style="edgeStyle=orthogonalEdgeStyle;rounded=0;orthogonalLoop=1;jettySize=auto;html=1;exitX=1;exitY=0.25;exitDx=0;exitDy=0;entryX=0.25;entryY=1;entryDx=0;entryDy=0;" edge="1" parent="1" source="HBRi0KXys4XlXAcfF2yt-4" target="HBRi0KXys4XlXAcfF2yt-14">
          <mxGeometry relative="1" as="geometry" />
        </mxCell>
        <mxCell id="HBRi0KXys4XlXAcfF2yt-26" style="edgeStyle=orthogonalEdgeStyle;rounded=0;orthogonalLoop=1;jettySize=auto;html=1;exitX=1;exitY=0.75;exitDx=0;exitDy=0;entryX=0;entryY=0.562;entryDx=0;entryDy=0;entryPerimeter=0;" edge="1" parent="1" source="HBRi0KXys4XlXAcfF2yt-4" target="HBRi0KXys4XlXAcfF2yt-23">
          <mxGeometry relative="1" as="geometry">
            <Array as="points">
              <mxPoint x="760" y="283" />
              <mxPoint x="760" y="463" />
            </Array>
          </mxGeometry>
        </mxCell>
        <mxCell id="HBRi0KXys4XlXAcfF2yt-4" value="Approved/Deleted Rules" style="rounded=1;whiteSpace=wrap;html=1;" vertex="1" parent="1">
          <mxGeometry x="480" y="230" width="140" height="70" as="geometry" />
        </mxCell>
        <mxCell id="HBRi0KXys4XlXAcfF2yt-9" value="Approved" style="text;html=1;align=center;verticalAlign=middle;resizable=0;points=[];autosize=1;strokeColor=none;fillColor=none;" vertex="1" parent="1">
          <mxGeometry x="330" y="240" width="70" height="20" as="geometry" />
        </mxCell>
        <mxCell id="HBRi0KXys4XlXAcfF2yt-10" value="Approved" style="text;html=1;align=center;verticalAlign=middle;resizable=0;points=[];autosize=1;strokeColor=none;fillColor=none;" vertex="1" parent="1">
          <mxGeometry x="340" y="110" width="70" height="20" as="geometry" />
        </mxCell>
        <mxCell id="HBRi0KXys4XlXAcfF2yt-11" value="soft-delete=&amp;gt; status=false" style="text;html=1;align=center;verticalAlign=middle;resizable=0;points=[];autosize=1;strokeColor=none;fillColor=none;" vertex="1" parent="1">
          <mxGeometry x="300" y="370" width="150" height="20" as="geometry" />
        </mxCell>
        <mxCell id="HBRi0KXys4XlXAcfF2yt-13" value="" style="shape=cylinder3;whiteSpace=wrap;html=1;boundedLbl=1;backgroundOutline=1;size=15;" vertex="1" parent="1">
          <mxGeometry x="640" y="60" width="60" height="80" as="geometry" />
        </mxCell>
        <mxCell id="HBRi0KXys4XlXAcfF2yt-14" value="" style="shape=image;verticalLabelPosition=bottom;labelBackgroundColor=#ffffff;verticalAlign=top;aspect=fixed;imageAspect=0;image=data:image/png,iVBORw0KGgoAAAANSUhEUgAAAYUAAACCCAMAAACejyR2AAAA/FBMVEX///9jZGakHhHYLCChHRBcXV+tIRVfYGJ6DACtra5XWFr5+fm8vL1aW12xTUd0dHatPzejFgPf3+CfAADUKx/u7u7NKR3FJxvVAADXJhi+JRnFxcbWGAC/JRmyIhXXJBaGEQdqa23trarXHgyLjI3Q0NGVlpfp6el/gIHcSUD76unkfHempqfmh4KBgoOpqqvMkIzeWVLwurf55OP10c/ok4/gZV7lgXycnJ31z824X1nar6zq0tDkxcPpmJTcRz7aOi/gYlzwuLbro6DEfXnib2l9DQBuBgC4QTm9T0mSFQvQmJTHhH/cUUnXj4rZf3mwFgCpLCC2VlC9amW5J2syAAAR7klEQVR4nO1deV/ayhpmMaQEYsqmQaI07KKi4lJsPUprPVv13ttzvv93uUlYMsv7zkwwaK15/ujvV0gmYZ5593fGVCpBggQJEiRYAwpXdweXp6f3F+PhS7/KW8Wwddm2nWazXm+2Hfv25uylX+jtYdg6dZxmNkS9bd/eJRLxjCiMLx2nnmVRd5zLq5d+t7eC86M6JQUkmk71ItFMa8fw7tZuIxTMNZPzOC689Gv+0hjfQ5qI10zto/OXftVfFWcXpCbat9sMH3Xi/217v5UIRPz4+khpouZ94W5qh6TUHfvxkqTF++AgEYhYcf2R00S25w2dH8w+9pyj/dYwdcpc0rSnie8aFwotyCDXb2ff7TuOc9ryJ/va5i9q2/e/jO/abXRr7Ge1RqP8HM++wgyyM55dcN6ar/cD0H31BOLmVxCIom6YptGhjF2t43+mF9f86CGl+5l1XqevLTjYhW37y3jNL7p2TIy0D80lxKGm68GHxuE6nzz+4rB+UIi2PaWN7x3Ggi8QTvZ1B3PdGQkeDaPww4E+/9BYm1Y6u6iiEbKnZqpH7KweiEOJtnP6ioM5K53mZry8YCatd9by0ALjlzIL2zmATG6hJbgp63tSdY66V4LCcsLT5tIKFLXlh+4annn+sSlY1s17fE17AoTakZlAvM5grh+yoOUXH+ZDFvS4f5TnlzrCFX3fGl+dnaGPPT8S3BxkN15hMNc3n5WFc4l292Wh7fhoTk8PLu6+Eo8vnJ1ftW6O7qfi+33f9bUJxHOyIPJLgVVdb7bb9sfZrTeXU8f2yWnjXhUpEK8smANZWItduLq3ITGoB0An1A7Uy9BuIpds733IVYHPm3b2FQVzIAvx+0jDmywrBnVf8zSz0/3Hx/2p7xiBwUP90b/9og1SsLWTy+U+vPvj7x3o27Z9+lqCOZCFuOOF8RfWxaw7zvRj63y41HeF4Xnr6BYwGk7L+xYShOr2Xi4XsPDu3R+/Z7YggXDar8N3hVnoa/PYefL0J5xdZNnwrOk5lODs+DV/1nI0C6kxHzYHYrBkwScCE4jHV2CqYRZSfcvQNIP8ZDUUxqd8pOWcCnzJ60smddr+mHpkZGEhBiQLHmCBqDvNu6f+jHUDYcGzDcV846mLaOiJAa9MAh0jALvynRbN4xZBAcWCh7/3IIFwbn9yQ42yEAOOwPDMkZrMc4YGcpTqbo4BxYKHDUAg2vcx/7SYsT4WhlMwCdq8lN/6EWIPEAOQhXd/fOB4mJWMfl6sj4V7eCrbCkoasMaBHOxleBJYFkArXf8z1p8WO9bHAmtSF7JwIL/1BpMFXh+xLIAGOrv3PtafFjvWx8JfSLTrSD34IUaCD04pfRCLgX9LpvRmWdgE3RVPOzQlOc+zqjhVxAjEB7EYeHps4y2zUMpsw9NoHwlc4MKNLc/XbXHxAiIGAQcZRRZq+c5o0qU+6jeOe51R5xBKIdS6+d7AdV2rMylGSDH0G4cdy7tr0Msvey4wFoA3IlAuToKRRoLneyxs5ODl2bY/IvJwdiEsPhCzu0uw8DuY0AvY8jlQZKFhaLquGdZyiZQPXcP0PvM/ZQvwtbxl+NcHyTYvwDVGRZXoqjzRgiH9u7xRDTff9z9GWCj6T9CNATRytxeMlJ6PpPVgsjwWMh4PsDy07fp965wavXDdOqiKS5q0kMwF4sPfu8j127kZB2osLArwenr2Wl3LCFPLTB9EuUN+N7vNNHp9ySMalqEzt2nGqIux0Ji/kWZxIxVddiTdcKGOmYAFj4cMMklNx7anp/cHRx4O7k+nto12A9SDyk/2kW3Oq27ncruIGGR3MwsO1FgI58Gf8DI7YUbYotIfcZM5n4gJ19ZFoOsa8F2Dfg1ioRA+u6g0kpluYCz4POzBiimY32bbg79tCp1/u3375aJ1NSykvihUeOb87BAcKLHQJX6Y3x7ELdrlTBzDHAQXafw8zFHrgDMX8GD2whFDFsI30gfUUIfoSB6hGAseD5hiwhEsfzv7eHA3PlskgUQdSRQ8c0ByoMRCkViOtZHJ/UBtnl6uWfx35Dz0EJJ1lDp/monnQBXPNKm7eygJvmAxLhbBQiAQO5jqAObfdm4vL75eDSnDccb3qYIIzUEkFojfbLFKPz3XU56mEs6mf50F2dKiYOaY+5fTeAzXnXvCVZBmbDnNgi8QuGKao+kt//qpv/yhX7Kvoo8YVbQaC+CvC3RNVzwFwYy5vHHIK5Mgrf5L+SS7+3gWBB7TQgoOxud4CvpGQR9xqig+FtL+RWWV2dRddg1FIEHGQl8+lEH6rAALMsXEt0WGUNBHgCqKjYWg9Fvj3FPNXDjt5Ke0MV16nEqQsDCSKET/YtI0gSxILHXbfsSqD1OZPgJV0RyVz6uz4MVkpuEGwalFTYHuhWrHjW4j39OZ6MGkgguF5avMAiuM3stp7CqgFgHCwkwg0LmsO84FpJWOxPoIU0VzEr5LScBYMMzOcX6eIJhQlxiDUPL7xxplMKimCZedJdPQXMv1pAha12IWetQtpjE4LBYPR/RIFAvfK/i0CC112+b3lp8L9RGuigIOSr/JSYBZMC1Cx1Lr0LTK7P3kAEQb1zFt0HWj05iZ735jAEQeYhbI6013GZx4QTkxAtWy8SCgQWyp/Q1rtIXL4vqouitQRZ5JqDwolc8hFmjn2yW/4Td2FEg/Puy8rtE6xOiRHlR5wGkrIQukcjOOyad3wzCG6V767YeYB4Gl9hTTwXU40kEbu1CsijIbpX9FSQUhC7pO/RzSxrIpBf4KbfFhh1IWOptz4xxPIQtdQQY8b2I7f76XxDyIBeJx0St8hekjTxUJOcjsVaeKm3wAWaD5c2UkUDprIQyUaYZCiTLzXCELjZAFnRtJsAvuW0k0TTKBqAdTWED0kVgVLYZu26L2J5wFjU7JEHkmDclSUDTMLQNt0SG5LNN2Q5kFQM/2G8Uu8PH4S1tiOlUsNaiP4CCZGDYUs+ai8zsKCwajO0jNgo8SKqWZdi6QQ5pw5rtLKSWxRgov1TuK3WLj6SxXLdHdEkvtTIGEt8wcMMw6R9KXZVhg1zux58lA86YpgqzZbHalxiTFyIuyddbTSnWl+7B0KVu4EZJ9PiTitbGxw0iXQj8SwwKbhSB0gXAzQegSBaUZwr/X+VrNHAXSgIs9VeodTX3h9OK4cKLMnEqyT41RqKyk0I9Es8Dqo9RkOVOS8vxy3k1/5lzBkCGI7KmEhQkdYOim6fYaZYFMcP1IcsWEleVIDmSqCCx170bMI+kj9utwOrViWYTlOL5hIIMFgQiRl0XLYKRnofgoj5X//wLUucSrkQpERHOwwF7UbB63baNArlZDhOWFvq9KOlaiTQgWVGsDs3kdMNGia0Y6DyqnTXBhP8VSb0nMAZKe2lHqRyJZ4EUhWkZuOZ3EoCaukKgJl7BAOV3084I+Ao6F0h5ocBUsNVjRl3GAsBeIX0QWeBXejc6Cn2AmvB9D1KABxsRwlaeM15l0g01uzfqREMdHbqm5G8W3oJpsrgKjaiTu24a8xsbNSYd2kURuJaHupTtty1w9g+SB1Xt+ZttPIYCzI1NM9LRKxAdzc8PborGgHfPfRmfBL1SToZ6IhUh7//uuoCBlWrR5mNUX0FUqSYUGDO5sb21t7+5JkkWIKiKJjsaCyTscK7Dgq7W1sAD16YTQ6TRJ2I+E2dttqaUOIL4CIZnWYBFZ4L2N6BopCNJUWYiikYLrR1xvYHgtFXCS/UhYZCy11GKg47Jy9mQWIlpn3TOU/iCkdRa27UU+gaE8SWMCoZF71KmKJx4IyCy1gANExqp7HLVPZoGMllxLjk6DnUhB6BzFUyWpm1hA6wHzKK4fCVNM0hACpACjFRztySyQUVuEQynINS46dm2gHLXRqHUPR7rBlf+JjBVf/ccbVmWWmh9JURXFxULKJZaarDU7RF8xg0FYnehnwpSLrJUgQn+oBwMvrkURCCzfBKii2Fgg+3l5RxYFoicYkB2pK53MU8unSfeBkDusHwlrg1G11CqeKYvKiXS+JCyQTpLGf42hE3NmGwfZ/0f0wqD9SE+x1LhnKqKw8o98viQsFMC0pxQkeTFUeUToE4OERWlRI8yKigkLxcViVFKQBCkLlOsv9DopkFY9hoqnp3uKk0Ok1kf8AiPM/m2K+i9WCCEwXSYxKZX31/Bbo78BZIGaK64fGAXdTAfdFqX6nyp6vqlmcP00AQi5M4gHnVTQJslMoFywmBpSTBgHsupn6T9q0yVjgSo26uAmBX9Ki8UGteLLsXbCLLqXDMhBIKTVJF/v7JOIBoFAcMsb4UClEaP9+FVCwOwHylho0PMJaZeyvyfUpPOadFeY9qSusNDx5Ro06VQX4xX/938r5oG2vPndWF4EmxHFylvdmSocZShlgTj/158XM8+Jw8JNoRormfoQ0yE5itQhSe7uYXeUUj4S2UBSuMm2BU48sV5hXbOT87/P7W2DAiNtxAj5rdvyA/TkLDA1X5OuMdaKbtgpShJ0SKsc3ezMN5vXIncLU5sXdGOw7MDoH1PxgknY76uso6Q2fHWDVZux9hh5Iwal6+r7MbCQmjCJVc0c5Lv9Wq3W7+YHZOs8HaC5zDzrpuZaA8s1I3fOD9gODM3qHR5OOi4TO2vhKhgTJylI+kmjbgKV1ojY0eJhgdlFkg6q7oamaWxSjTl1DcrH4pt1BSxMNO5yXdO4/Y5kyuq0GWXiIvSFbUmqPoCpqT45gxGA21GFgOnei21HldK2OjrGYzfqP7kNZgaZOYDI3H56HikVZRpMxnDHtruwo1JsotbAJt9o/aSGVRUmN6BjaKp7G3GxoEYDn7fDd+tHYyGFHyAQvj3lKG+WoBmRWmqsb8PHzgo9YdWdyJ0wAhZSfdmuc09TA31yse06LwpKzrOXp0+D3izBGkZuqWHFVJVxANE3vynaCQwiFlKFgVgrsE0Qc3QF/SuRTmDoW0JC2RMggk4YcEK3VgghZByAJYelBox2Ggm/TYZCXtQBAeYWfNT4AC286dANp3GpzgijTiXFizpe+efytvNOGFDTK7TBUP15klQr/BDipmgn88iOte53EB50oyOowzVcUIq86Kucyi+/Cn39MB9r0qn0wsSEu1WNDieHi/oCaDGV+sJ2t6rVbHVrWyw6SB2V8qVUWFgsPV3YszJDuQPs+De1juTgNv5sqWV36UIpkQ7OwpjwRzrU8nwHhmZAjw+rPEhsrGCpN+b/iDiAzQE9tNKJbUU/AtUNIO8JoJa3zOWJbf5BDPqoqHBjt5cmTmwzDSs/F55aQJBGa5RjwRt1ey48Eg2y1oZsK5BaahmkqigKC6n+xLJG6n8o0D+9cGS5ljXoHBZFOzmYpzQmHcu7bdA5pv5iZHFkWRNmJss9y8XfyD8HcQCMRIKpeG7kkE76lfvCEGcKCut+9pM81weu7ow1wkRtg1mMpqKKEhaA85FWKxRAHCiqooQFsM6GJO0iNaziqgg9H+nTS8/GSwHrhMFiY1VLjeQ4RHqtVPnJ/wrG+iCoOSPNdSqKCS5AiyPryo9X8SeS1oJrUQcGJhCynGk0cxCgVHl46al4SVwLD+ZZwVIj5kByPNKntysIM5xUVjkgCQkhkLy1jAOllrBfG8NvEh7g5c3PLXyhrCuv8u9bl4M5ht8zwg49bHcz5THB8Z649lmqZE7erGcE4PN7CQ9IFWInN99dCHVSSlXRn59//j9Z+Ly4/lemmLA9CR5g0yFURaXKPyrHRr45DE9KMsWkfkCSpA2jUvmWmAMMKyomDrKDOzPfE1UkgkwxKRyQJCk/lyqbiSqSovBdppg2kIMzZhwknmlM+O0fqaVGFNPiD05hYlBKVFEEnD1ILTXgMck4eC8/Vj4BhYLUUrMek5gDTxUliYpVIA8hlptHqluSLZxJkLw6ht9/yCx1Zs9DLiPOW79PguSn4bdPEtdVhkqSM40D0phaAO/Oh0QVxYPC582VeEjydTHjWlKFADn4lATJcaMgs9Q0KpWHJEheC5QtdRIkrxXDk4pcIEqVH0mQvGbIYuqkmv88EMXUSfnm+TA8gfsFPA6S6OA5ASgmzy1KOHhu0FWIJEp+KZw9/Kh4PlPJ/+dTEiW/HM4+n3z79vD5OqEgQYIECRIkeDL+Dx7r93bj/dKVAAAAAElFTkSuQmCC;" vertex="1" parent="1">
          <mxGeometry x="740" y="85" width="89.77" height="30" as="geometry" />
        </mxCell>
        <mxCell id="HBRi0KXys4XlXAcfF2yt-18" value="1" style="text;html=1;align=center;verticalAlign=middle;resizable=0;points=[];autosize=1;strokeColor=none;fillColor=none;" vertex="1" parent="1">
          <mxGeometry x="670" y="180" width="20" height="20" as="geometry" />
        </mxCell>
        <mxCell id="HBRi0KXys4XlXAcfF2yt-19" value="2" style="text;html=1;align=center;verticalAlign=middle;resizable=0;points=[];autosize=1;strokeColor=none;fillColor=none;" vertex="1" parent="1">
          <mxGeometry x="770" y="180" width="20" height="20" as="geometry" />
        </mxCell>
        <mxCell id="HBRi0KXys4XlXAcfF2yt-20" value="3" style="text;html=1;align=center;verticalAlign=middle;resizable=0;points=[];autosize=1;strokeColor=none;fillColor=none;" vertex="1" parent="1">
          <mxGeometry x="770" y="290" width="20" height="20" as="geometry" />
        </mxCell>
        <mxCell id="HBRi0KXys4XlXAcfF2yt-23" value="Solace" style="shape=process;whiteSpace=wrap;html=1;backgroundOutline=1;" vertex="1" parent="1">
          <mxGeometry x="850" y="390" width="130" height="130" as="geometry" />
        </mxCell>
        <mxCell id="HBRi0KXys4XlXAcfF2yt-27" style="edgeStyle=orthogonalEdgeStyle;rounded=0;orthogonalLoop=1;jettySize=auto;html=1;entryX=1;entryY=0.577;entryDx=0;entryDy=0;entryPerimeter=0;" edge="1" parent="1" source="HBRi0KXys4XlXAcfF2yt-24" target="HBRi0KXys4XlXAcfF2yt-23">
          <mxGeometry relative="1" as="geometry" />
        </mxCell>
        <mxCell id="HBRi0KXys4XlXAcfF2yt-24" value="Shape" style="rounded=1;whiteSpace=wrap;html=1;" vertex="1" parent="1">
          <mxGeometry x="1130" y="420" width="130" height="90" as="geometry" />
        </mxCell>
        <mxCell id="HBRi0KXys4XlXAcfF2yt-30" value="&lt;pre style=&quot;background-color: rgb(255 , 255 , 255) ; color: rgb(0 , 0 , 0) ; font-family: &amp;#34;source code pro&amp;#34;&quot;&gt;&lt;font style=&quot;font-size: 18px&quot;&gt;approveOrDelete()&lt;br&gt;        .thenApply(updateDB())&lt;br&gt;        .thenApply(updateCache())&lt;br&gt;        .thenApply(publish())&lt;/font&gt;&lt;/pre&gt;" style="text;whiteSpace=wrap;html=1;" vertex="1" parent="1">
          <mxGeometry x="330" y="410" width="250" height="120" as="geometry" />
        </mxCell>
        <mxCell id="HBRi0KXys4XlXAcfF2yt-31" value="" style="shape=image;verticalLabelPosition=bottom;labelBackgroundColor=#ffffff;verticalAlign=top;aspect=fixed;imageAspect=0;image=data:image/png,iVBORw0KGgoAAAANSUhEUgAAAfgAAAIICAYAAACCUvz7AAAAAXNSR0IArs4c6QAAIABJREFUeF7sXQd4VEUXPZJeSCOEQICE3nvvvfemNKnSFRVEUFQUsYHYQKWIBZAmvfcSeu+d0EInQCCVhMD/nWGXP1IkM7ub7G7mft/7Nuib9+bdN2/u3DvnnvsKtGgNaA1oDWgNmKKBVwA4AnB4zpEBgAcAPwD+ADIlO/jffAB4A/A0nMdz3ZMdTgB4/eTC+zwAcB9AnOGIB8CD/45Mdtwx/H0bwE0ANwy/sYZrJAFIfvC6/LcWO9DA0wPHDh5JP4LWgNaA1oBFNEBjm9FwJDfIvgCCAGQFkAVAAIDMyX5ptK1prn0EICqZwb8O4IrhuAzgKoB7AKINv/yb59P4a7EhDVjToLMhtemuag1oDdi5BuhF02BnAxBoMNY03vyb/50GnAe9chp9e5pLGRmgt0/DT2NP4280/Ma/+ctzuFjQYqUasKdBaaUq1t3SGtAasHINOAMIBpAv2ZHdEEo3htEZSqfRT6/y0ODRM9R/y3BwAXAKwAkARwGcAZCYXhVkjc+tDbw1vhXdJ60BrQFLaoB73sUAlAVQzvA3DbhrsoPheC3/rQEafeO+P/f+afz3AdgCYDOAszqsn7ZDSBv4tNW/vrvWgLk1QFAXv2v+Gv/mv40HAVo0cDRoXgZwFz1T7hPTwD09J/DfCQZAF0O3RjBXjGFf9q7h1wjMYsj2RQcNgvH/mfu5n75ecuAbn43GvBaAmgCKA3CzdAfS+fX5ri8AWAtgqcHoE9hHD1+D+FJpcGgDn0qKNuE2nJDpTfAgUtf4a0TschLn38Z3aZzUecvkEyr/5pEcMcuPjcAZHsa/eY4W69cAxwENlxHsxV/uBXOfmOFl7h3zYIiZyG3+8uA5HCPmFBptTt4EZRHBTaNvRG/z3/ybB/dsefBvLhaMKPDkCHD+rWIAOP5ptPms3BfPBaACgEoAShn0ZM5n1teS0wDHxA4A6w2/3MMnop/gPb2PL6fLFJ+tDXyKVWWRE6l/YwoNvSpOvvSq+MsJmxOWcRLnv42eFv+7S7KDe4g08pTkaTU03Eajzr+f9sQ4KfOgN8bD+G9Osvw3J2zj/zMiafnL87SkngZokInUpsEmwItAL/5NQ86DCG7jnrEthJZp2I2LgAjDfi4NP/82/nKf17jfy//ORcHzFp/US17DURhACQAlDfrQ81vqjVGZO3EOOQRgD4ADAI4b9vH537WYUQP6AzCjMl9yKRphTsT0LAjoMabV0ONguNRo1GnIjV4ZQ6ZGw51aPaUnzwnYaOyNvzT2PLji5uTM1TdBNtcMB1fkRNyyrRbTNUBPvCiAQgbgV46nUrC4ELTH75feHMeZMQLAX2MO90VD2Jf/jYtdGnTupRu/KRp7c0cnTH+T+gov0gDfNY16GICTAHYb9u4P63nEPIPGHicI82jGtKvQKNPT4l4fD07UROgakbj0wI1eeGobcNOe7HFrelLGECu9fePeLBcDlwxoWiO6lh8uFwE6DPffmuf2C40V94irAihg2Cvnwo/GzBY8c3OMrRddg2POSOrCRSi/G+pG76VbUuupd21jbj4jN0TjLzQcdBr03KH4HrSBV1TcU82oxxAANQwTdDXDv7U38fjjZIiV4Tjuwe00/DIKkN6FRqo0gFcBtDWMmfSuE/38WgNGDXB7kAC97w3zhtaMpAa0gZdTGPXFsDlDgTy430ejXt2wB0gvTMvLNUCjzxQa7sMZD67ajXv+/KW3Zk+APy726HFyS4bRnCYAGhnCy7YYxXn5W9ZnaA2YRwOcB5h+9xeAjQDCDduE5rm6HV9FG/iUvVyGSPMYjDhD7hUNCF0aeS3m0QBX6zT6pw2gG/4a2bMYpiMa2xYNPkPINOhFDGOGIXhu2Wijbp5xo6+SfjTA759zxApD+t1Bg7G3xXkhVd6aNvAvVjM9dQKcaMwZRiWghxM1U3C03iw/PLm3T8POPX2u2JlTy339Y4YFAMF+1iwcJ4zs0KAzB5vjx16Bcdb8Hqyybw4ODnBzc4OHhwfc3d3F305OTk8OR0dH8HB2dsYrrzyebh4+fCgO499JSUl49OgRHjx4gISEBHHcv38fsbGxT474+Hhxjh0Ksy2MaXfLDUA9lfRKO1TN/x9JG6pnXy9zhVsAaGzwupiSpD31tP8MmOKXPLWKSNvtho+cKFxrKITB7ykngA6GEHxuA4e53rpJ+/GTKj2gMfbz80O2bNmQOXPmZ45MmTLBy8tLGHajQTca8wwZMuB5h7HjyQ01/zYae/5NY288aPCNR1xcHO7cuYPbt2/j1q1buHHjBq5fvy6OK1eu4PLly7h3z2az04wofKNXPxnA+VR50TZyE23gH78o6oGh9/4GwBND8pyUNUjOegcyV+vG0pZMn1oDYAmAbYbc/dTuOdPaBgPoaDDq6R31ntr6T9X7eXp6Il++fChUqJD4zZMnD3Lnzi2OjBkzCkNNY//0L/+b8UitDhsXA/xN/jcXCFwI0PCHhYXh2LFjOH78uPjlERFBbKzNCOcCZvFMBfCjAYlvM523VEfTs4FnXjrDqOSi7m2gsdQpN5Yaaal3XabZkAt7JYBQQw41w/nmBu0ZQXMkWekBoFs6L0aSem/Ygnei8XV1dRWHi4uL+KU3XqRIERQtWhQFChRA/vz5kT17duGB26vQ8F+9ehVHjx7F4cOHsW/fPvE3owGMCvBg+N8YRbAyPXAO+NNwnEujBb9VqCQ9GniSyDDHmLnGrwEorwFPVjEWLdEJ7uPvB7DVkKbHUD69fVPLXLJMKMdNKwAtDch4S/RfX9PCGmB43N/fX4TS+ZslSxbhkRcsWFB45TwYcqcnnt6F+/sXLlwQXj6NPb18hvkZ9r927Zow/lZm8InbmWmI7DFbh9k56UrSk4EnaK4ygIYA6hlIRTSSOf0Md6L0mYrHspZHABCBS5pMkvCkFIVLoqIGAJoaIj5kI9RiQxqg103vO2/evE/C6jlz5gQP/vfAwEC79szN+aq4508DT6N/9uxZnDlzBidPnhQHQ/7R0VZjTwnOXQRgvmHBn27YNtODgefSm1Wkuhu8LoKgyOOuJf1qgB84qXWJzqeRZwGMDQbazOdphds5RMRzK6eKgQfe6rVHIFdAQAAI7KIXajy4f0zUthG9zb+NKO6nH4qTOD235AdDs1FRUQKclfygB3fz5k2xp8sQrzUIQ+402qVLl0bZsmVRokQJEXKnTuixe3t7P0GpW0N/bbkPRPFz354efXh4uAjrb926Fdu2bUNMDNfXaSr85pl6S0P/i+H7T9MOpcbN7d3AM994uMHrYoqSTXrs3Ac0Tkg+Pj4CxMNJmhM4D4YZ6Znwl+k3/OUEy8mZYtwr476ZMYWGHxwn58jIyCeHFXyEqTHmn74HaU+5P08o8SoAcwwhfeOMRC99hCEUzwwLqxtDNFI0XIULFxaeKYFe/KVx53hgeDn5b3LwlxHw9V8haCM4K/mvMWXr6V+OucTERGHo6d1dvHhReHM86OGdP39eLA4sLcWKFUOjRo3QoEEDEW7nd8LvKHnamaX7kJ6vz7FCg29cDK5ZswZz587Fli1b0hq1T0PP1NuRAP5WrFxoM6/WHg08J2BW2qK31QcA90utRjiRPp3vyrSZXLlyib2/HDlyiIMhw6CgILEnSGOeGsKPkekzxlQa7qtdunTpycFVOdNtOIEbFxDJU3JSo4+pdA969uTCJtHOwLT22I350DRONFI0XhUrVkSpUqVQsmRJhISE2IwXygUAU7OOHDkiwFv85X4u/5sxl5vji0dKhAsX6oTfSPHixdG8eXO0bNlShNu1WJ8GOLcsW7YM06dPx8GDB4XDwehQGuzdc1uOteo/MUTx7DJsb08Gns9Cb4vUsUMMNLJpPsLpOfj6+goPnL9Zs2YVhpxIXHpZNOQE+HAStwWh90XPzJhDSw+NB40/IwJPh25TOlHbwrOnVh+5CGSkhos7jhcCveih05jTiDGCY09Cb4+hXYK2jOCt06dPi1A/D/4/RpeMeeA06gyv89thmlqtWrVQvXp1sdDRYDjbGRknTpzAihUrsGHDBvBvziM09qksXMQzf/4fA4GWXbEC2YuB54xHw/66IZTKPdM0Ee5rMkQaHBwsDnrmxvxYTkicuO1xEqJnxrAsvX4af6bYGBcByX95jnHrIE1ekJXelGOCXifTsZiKxXA7/2Z4mQtDI5uZlXbf7N1iNInhfIb2aewJ4jp37pwAbjFdjRGM8uXLi0VyetON2ZWdxhfkNqFxv37nzp3Ys2ePiCSmojBcRP4M5tAvNhTHSsXbW+5Wtm7g2f/8BoKaZgYWsVTdI+XETNCOEcTD8Cn/zf1PeuY0+Ol5AuKEbPTEGN7nh2uctE+dOiUQt/T87ZRO86VfLgFgVapUER4oxw4XhRw/DDtr+b8GGMpleJeGn1tX9hbF0O/6MRUvvXhu26xfvx6LFy8Wi7pUDN/fAbAawK8GLg2bp761dQNP1rBPDYY9VZHxDJ82bdpUHAybGukniUbW8mIN8GNlGI4TNQ8ad4bnuHLnsX//fpFPa89CDEaZMmXQpUsXEV7mQpAGi3vsWrQG0rsGOEcYF3TLly/HuHHjQGcglYRGnfnzRNpPAmB5RKgFH8wWDTzT3gic+wZAVwvq5sml6YFzUmaolKjcrl27okaNGgKZrMW8GqDR5z5saGioOJhiw319I6gvFVfzZnswjh9iLAgEa9euHXr37i0iPuk5smM25eoL2b0G+O3PmzcP3333HQ4dOiQchFSI+HEvfpkhOsx9+pRyZVjV+7A1A084eW1D6hsrdFmUXooAOYZLuSdKZG7Dhg1FeFBL6mmAHzPRttu3b8eOHTtEqhVD/Txo+K15P58GnN45AZVNmjRB586dNbo79YaOzd3p4cNHeMgiMk844w3c8Y8gDFqGDP+fro2LwwyvvAKHDOS8fwX8254XjdzuW716Nf744w8cOHBA4HxS4fsnGICgbVJfkwHTpsSWDDyLefQyHCSrsZgQ8c4QKvdG69evL8A89giMs5gCLXRhTnLch01eEIMGn3v6BGRZE7kKwZWVK1cWEZ/atWsLNLw9T74WeuU2fVm6gIkPkhB3P1EcsYZf/h2f8AAJLPOamISEB0m4n/gA9xOTkMhKcEmPq8M9SHr4+KDhf/gQDg4ZntSpdmAxGzAylAHOjg5wcnSAs5MDXJwcxb9d+LezE1ydHcXh7uIEd1fnJ788x1aFGRXr1q0Te/SM8hGAaWFDT0q+6YaQPatYWgeLUwpeoK0Y+GIAPjbQzFosR4iAJ+bR1qtXT+QYE/VuzwUlUjA+rPoUhvONVJkE43BVTzQuQTp377KybOoKDThTtVq1aiUMOxeGzJrQYt8aoMG+dS8Gt+7F4nZUHG6L31jciYpDVNx9xN9/gLiExP//0rgn0sA/Nu5cBPCXHryp4ujw2OALI+/sKAw+f92cneDm4gg3GnoXJ3h7uMEvoxv8vNzh7+2BAF9PBPh4wMvdDYby86Z2xeLtid/ZtWsXlixZgjlz5ogMHgsK8/d2A/jewG2fMqIGC3YoJZe2dgPP/pH3+wsAhS3FIkbD3rFjR3EwpY2Tsva2UjJ8rOccevf84GnY+aEzpL9y5Ups3rw5VWgyCbLs27cvXnvtNZG6RdCcHkPWMz7M0RN601dv3cOF63cQfuMuwm/yiETE3WjcT/i3sTan0TZH35++BiMAYiHglMzzd3KAt5srQrL6IiSrH3IH+iFvUCb4+3g+iRxYoi+mXJPfPb95gvAmTZqEadOmCcIkCwn34RmyJwDvK1tgwbNmA89ajOSPH2UpNjqmIvXp0wfvvvuuSE/SYl8a4MfPfXoicWfOnClSb8xdAINGvE2bNhg7dqyI+GixDw3Qm6YxP3L+Go5duIGj56/jVHgE4u4/Nh6m+9rWrydhHF4BMnt7olieQJTOG4SyBbIjOIsvGCmwNuH3TrzO22+/LUL3FpalhhLRLE1rtWKtBp4oedLMvgfA25zaY8idKW4Mww8bNkwAoLSkDw2QZId7d0uXLsXevXsFUI8pebJsezTq9NgrVaqEQYMGiVQ3W2EiTB9vWv0puRc+Z+MhrN59CmcuRyAxySbB0+oKSEHLTF7uKJorECXzZkPRkCzI7OOJjG4u8HBztgrDz0X97NmzMXHiRLFdx608CwgHxg4AHxp+U52CLyXPZI0Gnm7QUAA9AJiN7YOTMhHxBM116tRJpLnpSTklQ8T+zuFKn9znrHTFg5MACXeIyn1Z+g1TIytUqCBC8Ty4WLQFoUdK4xXPw7AH/ATElfQQSQ8fPvZKDYhtoQcDQpvhXCK1jb+Ohj1eEd4VYV5HODk42Mze7cveF3Wx+0Q4Nh48i/2nr+Di9Tva0L9AaQT35cjsg0LBmVEoZwByBvgiKLMXsvhmFOC+tBQCcKdMmSLAeOTasECKLT+Z4wDGGopUWU19XKPerc3AE0z3GYDm5txvJwK+cePGIn+d3hZR8rYsnIAE4tYA1OHf/G/GNBvD3Cwe0Tgp80MUh8P/992YVpPehd47Efg08iTZocGnd/88kB6pZLt3747WrVsL1jlr40Hg+78bE49bBHgZgF4Efd2NjkN0XIJAcccnPEZz09gnPngoAF5GQ28cC4/BXjxegYODwbA7ZICjwdBzHAkAF407UdpOjgKhndHdBV7uLsKb499+Gd3hm9FNHAR72ZpQT6fCb2Ln8YvYeOAsTl+OsLVHSNX+irRQbw8EZ/FBrqx+KJAjAEVCApA7WyaRwpcWwswaVrCbMWMGFixYIOoaWEBYevpPAKMBpD669z8eKG20/vwOlTKQ19QxZ347QXMMxRPVzAna2tPd4u8n4sbdGETcfYzKvXU3RiBzo2Lvi+Ne7H2xD/jAYNCTDCk0j3NnHyvW6H3x5fK7EuVBeRhyZYXRd8gADxcnEVbzdHs8MXt5uMLHwxXeno8nZYbieNji5KzyEbOcLgF6TLtjvi3JNZiCQ0POVLf33nsPVatWFfTDaS181TTcZ6/exrlrt3Hh2h1cvB4pxkp8YiLuJzz21OmxJyQw9crgoVuo4xxfxlQtY9oWPTiOHTdnR4HWDvTzQo7M3sgR4IOcAT4CuW2Ne7lPq4iLoiu3orDj2AXMCz0iQHZa/lsDjPgYF3l839WK5ULFwjmFZ5/atp7zIemyWbJ29OjRgizHAt48y0uT5nYQgPPWMj6sxcCzbvtPhoIxZkFvcFJu0aIFvv76a4GMtzpv69EjnL92Gycv3kTYlds4f/2O+PfNyGjQaNNYc2AaDfcjGAw4DbmZRs9jEA3JMeirGX6T/fsxcQbg4+mKbJm8kT3AG9kzPz6CA3zFL9Nu7E2od678icalR89UPBLVsIJZWiLjaaQPhl3B9qMXsO/0FZy/dkd44oIchQu+ZIs8a3snjxeZMCw0M4hfLi5zZ/UT+7nFcwWiUEgWkbqVljr+L73xu2Q63ILNR8Q+PaMlWl6uAcHkSIfC1VmA9NpWL4bS+YNS3avnN8IF/Mcff4zff//95R2XP4P78kylY6nyQ/LNzd/CGgx8IUNuYQNzPB4HE+upEx0/YMAAeHubFaMn1UWGP+lFMU/2TnQcTly8IVC5ROOGXb4lvCtbFn60DMnlzOKLnFl8xGQdksUXWfwyirzb/+/ROoitAi0p1wAJUGLiE4RBORh2FTuOX8Sek5dEFMdehV5fNn8vFMudFaXyZENhYfDdH+dvOzuJqJO1yMUbd/DHij3YeuSCMPTcItOScg0wjN+kYiHUKJEbAT6ewvgnZ+pL+ZXUzly4cKGI7JI/wwJpdTTy7xsK1qTpJJ/WBp4Q9h8ANFJ7Tf9uxbQ3hlCHDBmCunXrpkk4PiYuAdfuROH6nWgRyjt+4QaOXbiOSzfvijBpehASaWTN5CXCsDT8BOEIEg1PV3hzC8DdFZ7uLqm+grd23ZPs5PrtKFyKuIsTF29i76lLOHLumtg/T4/CkD8NQeHgLCgSkkWE9jmOiNp2d3FO9VDv0++AkZ69py5jwZYj2H/mCiIiY0QURUvKNcAFXOUiwahcNBj5s2cWWzipsZDjuzt27BjGjBmDZcuWiRD+ywC2KX8qcSY9eBZCW5SWPPZpaeAJqPsOQF1JxT33dCLkWZ3rzTffTHW+eHpVZ6/ewsnwCJy+FCH+pnG/G5MqRRHMoT6LXoNRFU83Z2T28RCrdf5m9cuIIH/vJ4e/d/otq0sP8PDZqzh09trjfOtLNxEZHfcEU2HRl2NDFyceJCTQVwC48gb5I3+QP/Jl90/zbaJ7sfHYeTwcq3afxPajF8W2iRY5DdCDL5gzAGXzB6F8oZwomDNzqmB/WL6aWJvx48cLCmwzC/fiPzfUmU+TQZFWBr6AwXNvaKpCaTyKFi2KoUOHolmzZiI/ObUk7MotbD50Tqzer0TcxY3IGBFW1fJyDRCRndHD5bFH7+EmjH6+IH/xYfNDt+a92Jc/3cvPoLdw8UYk1u87g50nwnEl4h5uRsYgMcnmS1C//OFNPMO4YCTFKsdNiTzZUKlwMArk8E8Vo/C87jPz4HpkNHYfD8e0NfsE8FGLvAYep915i3fatFJBFA0JtLhHz4JWzKAZNWqU8ObNLCxQM8aAMUv1/bW0MPAsx8a8wTYATMqd4Yderlw5sfoid3xq5LXTgNOoL952DCfDbxqKRiSZO7xj5jFm/ZcTJXkNhTNcnZ3Efj5X82UL5kDBHAFiP99ehOC4Gev2Y+uR84iMjtcen4kvlqh9IvYZwq9VMg8ali+IQD8Wnkx94V58ZFQcpq/dj7mhhwX+Rou8BojvcXd1QoVCOdGrcXmRamdJMVJdsyQtkfZmJsfhao/Ratq9VEVmpraBZ+WN4QDeBmAS/JqMdNWrV8fff/9tUbIR7qgxzYhgp1W7T2Hh1mPCW9c7bZb83P59babvlcqbDVWKhKBcwezw8XQTBp+r/bTKr5V5ek4e5Cq4HHEXf6/djxW7TogcdC2W0QAXi9zXbVG5sGBbI1qfZDypOdnR0O86EY4Ji3fg1KUIwTegRU0DBOi2qFIE7WuXQHZ/bzg5OVjsXRJwx8I1I0aMEPwYZkynY378SAATATClLlUkNcc8DXp/A7e8SctrX19ftG/fXgAkWLPdEsJJmcj3c1dvY/3+MKzec0pUh9KSthqgl08wTok8WVEkJFCk6vkzX9/bwypzqhnxYaSH44cLRHtGwaftyHj27lz80auvXiKXCOET9MmQfmpmdBBsO2fjQazZe1psw2hR10AWX0+BvK9VKo/YzrMUhwKN+oYNG/DFF18ITnszlqKlJ08it8kAUsWYpKaBZ0h+PIBA9VcMUVebKXAsKGCpUpychElVGXr4nMg5JuGMFuvTAD9wEmfkC8okPvjcQZkEACu7vxcY5k9LoQdH0NzGA2HYdPAsLkfc09s4afhCiPWgN18mXxBK5M0mqqSlFoETxwJBeMyfZ7qjDturDwRGZ/i91y2TD9WL50aebH4W4004evQoGLInC54ZQ/Y08qxER1to8XB9ahn4igBmAghRf7UQoXiyifXs2RP04s0tTHHZdTwcS7Yfw4EzVwXpjE57MbeWLXM9DuRM3u7C4NOrZ1pV6XxBAmWdmh4bn44pkZzMNx8+hwvXI3WOtGVeudJVuVdPvvRiuQNRu1QelC2QQ/Dsp4Zcux0lPPm5mw6JBZ8WdQ1wcc9vvF6ZfGhQroBg3rSEkNr2jz/+EPvyZqS55cvnfjzBdxb15FNjZLN4zGwANPLKQnpQhkx69eplkbA809omL90l9s3uxsQJNjkttqkBhmZdXRwFeUY2Py9UL54L1UvkFoQ8lpzMmR61YX+Y2GcPu3oLJKvRYp0aoIHwcncV3mDneqVRvmAOi6O1qQmOEaZCjluwVXAc6LR59fFBlk3yIRTPkxW9m5QXjIiWYEGMjY0VqXTDhw9HeHi4eof/3ZJ8x+SAIX+9xTx5Sxt4bpCPA/C6KYh5ouNp3N9/n+RA5hOa8Nj4BLE/OnnZLty4Y3XFgMz3sOn8SvTia5bMjU+61BWG35wiuK7vxeHHeZvFWNKLQ3Nq1/LXorEndWrPRjQSWVIldM95Z+ycUCzfeVKnRprhFRNw26lOKXRvVBYk2jK3oee+/JIlSzB48GBRn8JMpDg08h8b9uQtkl9tSQPPUq89DWw+/qrvkFSzDMtz9WTOl8aVNFnm/l67D5sPn083LHOq78GW29GjJ0HK4Fero1zBHGZF3hN4SbzGL4u2CwY6LbarAabbVS2eC6/WKIbcWTOJsK8555znaWb5zhP4a9VeQYyVXpguLTlCCgUHoFeT8iiVN0iwZZrbwK1fv14wpTJv3kxG/rKhPPocAGbPqTT38xvfHUmjqxmABCwkoyQE0fXr1w8fffSRWSt4MV1pzZ7TmLPpkPbald6M7TTiBJ0r0Bf9W1RClWK54GQmPnNOxkx/mr/5MFbuOin4ELTYhwZYQIn59LVK5kbJfEHw9bTM/i61xWgPqaxnrN2PrUfPIzbe7HO8fbwUiadg5cKG5fKjWaXCyBNk/lK1+/btEzz269atM1ca3VkA7wFYIPGYKTrVUgbeD8BfAJqIotIKwvQ31t6m5x4YaBLw/sndOSnvO3VZpK1sP6YpJRVei801IW/54HbVxB48PTRzCDnjiYyfue4Ajl+8oXOczaFUK7uGqG3u44FyBbKjUfmCYo/eUsVQ6AlevR2FZTtOCAIknUpp+mDgt14oJADtqhdHvbL5zA60Ja3tp59+ivnz54vKk2aQMAB9Aaw1w7WeXELJ+KagA58YCG2UNjtZ2rV58+b48ccfRQ13c4TJOCnT0/pz5R6BYNXVn1LwFm38FO6tftatvkBLc4/OHMKsir9W7sXsDQdwK4p88RqMaQ69Wus1WPiEHPg08D0alhVATUtJ7P1EHDhzBV/P2IArtzTK3hx65jZLzZJ50K9ZRdCzN5fwuw8LC8Nnn32GWbNmmcvIkwy/q6HhwuHfAAAgAElEQVTkrFm6agkDXwbATgDKM2rhwoWxcuVKUfbVXDJp6U5MWb5bG3ZzKdTKr0OE7cev10XzyoXN1lOGTz+bugbr9p0x2zX1hWxHA57uzujVuAJaVytq0QI3NyKj8eFvK4Wx12K6BuggMqXuw461kD9HZtMvmOwKV65cQd++fQWHvRlY7+gtbAXQBcA5c3TU3AaehMErAJRT7RzD8YsWLUL58uVVL/GkHVdZZJL6eeE2rNh10uTr6QvYhgaIou3aoCy6NSxjltAcoz1kNPzun83YffKS9tptYxhYpJfMxiidLxu6NCiD4rmyChpcSwgzeiYt2yny5lmCWovpGgjO4oveTSuItFniLMwlly5dEuRrq1atMgfrHeP9MwB8AMDkFZ45DTxH+hAAHwEggl5aMmfOLArHvPrqq9Jtn25A8MrJ8BuYuGSnYKPThDUmq9QmLuDm7ISmlQuhd5MKZiG/IIf4vtOXRfTnQNgVsGqYFq0BMuM1qVhQkKwUyJHZIrSpLBk8L/QI/tl0CBF3U42+3K5fro+nK9rXKolW1YqKrRdzCY082VUXL15sjnA9X/b3hhz5KFP6aE4DXxXABABFVDrk5uaGDz74QKATWUjGFBE0oWFXhXHnpKzTT0zRpu205Z571WIhGNi6quAdN4cwHD9l+S6cvnxLe+7mUKidXYOljRuVL4D6ZfMLUJ65hbS2pDuetGwXwm9Emvvy6fJ6BOCRz75L/TJicWYuIQkOU+jmzp1rDk8+wuAssziNspjLwDM0/wWAHipV4rhHwuIxpAMkqM5UOXz2KkbP2iTSmDSYzlRt2k77/Nn98Wm3eoKX3hzATJKQcHvn+h2TFtG2o0DdUyUNeLq5oEz+IHStX0awqZkbbc85jJwd3CI6dPaqUh91o39rgNwYpCvu1aQCKhTKYZb5glvCJ0+eFE4qPXkzAHCvGUjilJH15jDwvEZjAH8CUCK0KVasGH7++WdUrVrVZEVfvnkXfb6bj+uRUZoGMh191fxgJwxqLQguCLAzRQiMn7/5CMbO2QRmX2jRGniZBjj+GLbv1bQ8Xq1Z4mWnS/9/bgxdvB6JMbM3Ysexi9LtdYNnNUAngHUrBrWthipFQ8yyMKNRP3LkCPr3748tW7aYQ+3ch68F4JTKxUycCsUtswCYBKC5SgfIVPfJJ5/gnXfeQYYM5MdRE+6xn7kUgYHjFyHirq7+pqZF22zFqmDvtquKttWLm/wAZDhcvO04JizejrsxFqOINrmf+gLWq4EqRYPxTptqwniYKz3T+LQsZDR+4VaEHjynF59mGgLcix/Urhpql8prtve1Y8cO9O7dG4cPHza1l1zbrTYg62/IXswcBp4881NUQvPsbKtWrTB58mRkysQov5rQuB87fx3fzNwoiEe0pB8NcAJtVbUIhrxWw+ToT1xCIlbuPIkpK3aDlb+0aA2oaICTanCgr9jjJWLbx8xMeMwMYtovaW4JAtViugbcXZ3Qt1lFNK1UGF7uLqZfkFZ59Wph5C9cuGDq9TgZEXT3LQCpiclUA8+Q/EZVYF1AQACWL1+OMmWYOq8uYZdv4af5W7DjRDiSkh6qX0i3tDkNVC4SjKEdaiHI38ukvhMdv2znCfy2bKcu5WmSJnVjowb8MrqJuuXta5UwO0EOayCwauHsjQd1fXkzDTk6Cx3rlESH2iXh720ewOTChQsxcOBAc1ShI53tOwCWk+E4pY9sqoEfAYCH9HW4/8GUOHLNmwKIunUvVgChVu0+JUoxakk/GmBeK0NrFQsHm1wGltSzBGZqQF36GT+p8aQuTg4oHJwFfZtXRJn8pgOIk/eZzHfzQg+LFM7ouPup8Th2fw9yaDD9sXvDcgjw9TT5eUl+M3XqVFGF7vbt26Zcj57rMgB9AKQYaSltmJP1MMRAqacErKtbt65g/3F2VieKILp06up9IlylQ1WmjB3ba8s60N0blhG1vE3d5zwQdhWDflmMezF6krS9kWD9PSbok0j7Ps0qoF2N4mYhXzI+NdPoFmw5gklLd2kjb6ahwDS6RhULYkCLSvDLaHqufExMDMaNG4eRI0ciLi7OlF6yEtGbBsxbiq6jauCJhvsGwLsqlLReXl6Cra5mzZop6uTzTiLSedeJi3hn/BJdT1lZi7bZkBNmhUI58UXPhgK5rCocQ+eu3cZ7vy7FRZ1jrKpG3S6FGnB1dkTrasUEwyIr1JkSuUx+y4TEJMxcv184OxoYmsKXkYLT2lQvirdaVYWnGdgKb968KdLnpk2bhsREkyoGMnWuGADmyb9UVA08yWxmAZAuBevo6CiAB6NGjYKvr3rhhtOXbmLg+CW4GRn90ofUJ9iXBrg/9nWvRiiZN5tJDxZ+MxJj54RiG5kONUOdSbrUjVOmAUabWIq2a4MyIG+DuYw8tydnrDuAaav34l6sjkSl7G28/CzWHejVtAIym2FPnhXo3nzzTWzYsMHUHHmmpPdOSf14FQNPmjlS0pIrV3qTgoVkfvnlF1SvXl15cJOnedT0dWJi1pK+NEAu8LfbVEGHOqXkgR/JVHUnKhaTl+3C4m3HdC339DWE0vxpadTJZ896CZUK51SeB59+kITEB5i98RD+WLkH93SKp9neMwtW0chn9cto8jVDQ0PRs2dPnDljUsEqruAaANj0sg6pGPiCAH4GUPtlF3/6/5OO9q233hJ576z3riLxCQ/w+4pdYrXKv7WkLw3ULJkbn/doAHLOqwrxGiSymbh0p54IVZWo25msgRyZfdCpbkm0qFLEZByJsTMkZlq09aiBx0F78ia/JADOTg5oWrEQejUpj8w+0j7tv7pA0N3SpUvRqVMnREebFH3+x8By958vWdbAc++dee/jVbz3QoUKYcaMGShZsqSy3kMPncO3szfpesnKGrTdhgyTfT+gOQrmNI0/+mDYVQyZsAy3ozQhku2OBvvoOYufkKCJ1emI4DaHxCckYsHmo5iwZAdi4nUlOnPolPgJAiS7NyoLL3d13A/78uDBA4wZMwYffvihKV0jnWE3ABv+6yKyBp6sdfTe28j2zMHBQaQKfPMNsXlqQvKRMbM3gSlNWtKXBsjv/WbLyqISFFfUqnI3Oh6dvpiJa5pfXlWFup2ZNcBUOtLbdm9YFl4mgEaTd4ukTX+t3CNy5eN0pNMsb8zJIQPealUF7WoWNznicv36dXTo0EHsxysKkXos7jaIa4YXXUPWwFcDsASAt2ynsmbNKrh5c+fOLdtUnM+KcHNDD+PHeVt0SpySBm23EVHzzCEe1qEmQgL9lB+EucKjpq/H2r2nla+hG2oNWEIDrITYsmpRdGtQBoFm2OtlH6Ni7+PXxdtFyP5+Yoq5USzxeHZzTQ9XJwzvXAd1SucziXsjKSlJZJL17dsXRNgryl5DXjx/nyuyBp4rBibaSwv33T/77DPpdsYGYVduibCqTmdSVqHNNiTVZ/8WldCiSmHlHOLHAKSDmLBkJ+5rj8Zmx4I9d5wFa+qUyYveTSogV1b1hWxyHRFMOm7+VizdcQKk9NZiugbIUDisYy3ULJkHfGeqQi+eqXPTp09XrSHPuvGM8//6IkS9TO8CARwCIL0ByhKwu3fvRmAgLyEvrNDzyZ9rsGLnCfnGuoVNa4AfULXiufBhp9pgUQhV2X70AsbM2SQqcmnRGrBmDZQvmAP9mldEsdxZzdLNiLsx+Gn+VsFdr8U8GsgZ4IMh7WugUuFg5QvSrpGqnalz58+fV73OfABvAWDVuWdExsAPA/CVSi9GjBiBTz/9VKWpaLP92AW89+syTUWrrEHbbUiSiW96NxbENqpC7Mb3czdj44EwJOl8d1U16nappAEuaovmyiL2e0vlCzLLXfkNEJy8UeOXzKJPpjqWzJsV77eviXxBSmSuoh+xsbHo1asXZs+eDYbtFYTV1ZoaWGWVDTzhnZdVvHd/f39s374defPmVeg7xH57j9FzcPyi8j6F0n11I+vQQOOKBTGyW33lziQmPcSC0MP4bu5mgePQojVgKxookCOz2O8tHBxgli6fvXobo6atw6GzKaYyN8t97fUijM43Ll8A77StBl8TKG3pxRNwd+/ePVVVsQgNM9ueWSGk1INvAWCh7N25yiGI4OuvvwbpaWWFW0ZLdxzH6FkbdcUkWeXZwfmkoZ0+vINJBBMnw2/ivQlLcfWWVJVFO9CefgR70ECh4AAM7VATRUICTSJ2Mupix7GLIppFY88QsRbTNMCMnjcal0eHOiWVuTlIXVulShWxja0orBdPGx3/dPuUGHhHAH8B6Ch7c9Z4nzJlCpo1a4YMGZhCLyfcO/r0zzXYeSJcD0Y51dn82UyLY7EHsn2pComQRvy5Guv2mcQapXp73U5rwCwaIKUt93tL5gmCCZgu0RdSMq/cfRLjF2zDDU3zbZb3Qy6DDzrWRp3SalFqdmLSpEno00cJv87m9F5IG8/c+H9JSgx8AQCLAPBXSho0aICff/4ZefLkkWrHk7m6ZH3un+Zt1YQk0tqz/QYMS37brykCTGCOYilN8ibo0Lztj4f0/gR5g/zxdpuqqFiI1LamaYNsdwu3HBWevK7CaZouja1zBfrhhzebI8hfPlLNazBVrmDBgqaUlO0LYKKKge9lqBwnVRnG1dUVH3zwgTicnOQZmui9/zB3C1bvOaXTO8wzBm3mKswJHvJaDUHhyb9V5NzV23jzp4W4fsckOkiVW+s2WgNm1wCNOvfkCbwrTyNv4h0Y3Zq+dh8mLtmpo6Mm6tLYnHXkP+1aT7m2QMeOHTFz5kzV3qwB8AxY6WXjhJx8zH3vAsiNKYLqJkyYgDp16ih1mHtFn/y5GrfvaTpRJQXacKPS+YIwvHNtBGeRWlM+eeKkhw8xcuparNh5Ui8ObXgc6K7/WwPENDGyReR2kRCSipomNPKMcJEIR4vpGnBzccIvb7dUTm8kRz23sxWFnMREY95N3v5lBr64wcBXkrkpByLD84T+q4DrYu8nYuLi7fh73QGZ2+pz7UAD5Hzu17wS2tcuoURqQ9zQ5sNn8c3Mjdp7t4PxoB/hWQ2ULZAdQ9vXNAsZDksmfzF9PfaduqwXwyYONqY3NqtcGB92qqU0dzFMX7p0aVy6dEm1J00ALE+pgafxfxXAT4aVQYpvyvA8Wevef//9FLdJfuKF63cwcNwiXI5QThtQuq9ulPYaKJY7EB91roM82TIpdYYRn+/+2ay3dpS0pxvZigaqFgvB0A61TMow4bMS67TzeDi+mxsKbmtpYL1pI4AMhF/0bID82aX54ER1OQLtWJBNUchT868KNv/lwbOeK08mwY3URijR8yTRL1asmFI/Z64/gLFzQpXa6ka2qwEXZ0e8Xq80ejUuDweFvXeS2GzYfwbfztmEiLt6a8d2R4LueUo0ULNEbgx+tTqyZlIDdhnvQdDdsh3H8fPCbYiMfibTKiVd0ecYNODh6ozeTSugY52S0nvxrDJHND2Z7RRTGNcDqMt1m/GF/JeBDyF6H0A92bdXu3ZtrFy5Uglcl5T0EB2/mAlyz2tJXxrIlskLPw1sgRDFvfdb92Lx9YwNgrFOZ/imr7GTHp+WwLuG5QpgULvq8M3oZpIKWFb2t2W7MG3NPpOuk94b853UL5sf771aQ+mdrF+/Hu3atVNF0zMfuCKAJ8bzvwx8BQArAEgjnX755Rf069dP6V2TlvbtcYv1fpCS9my7EVe977atJr3yNT715sPnMHTictAj0aI1kB404OrkiLY1iqFPs4ogyMsUoZF/e/wiHDijme5M0SOzHVg7QwUIeeTIEXTv3h179uxR6QJfXGsAO17mwbPgNvPqSH8nJUyJI0ggIECeXpFhifcnLseGA2FS99Qn274GWGt57mevI8hfuhKxeHgi5/v/sAB7T5FRWYvWQPrRgKebiyhO06paUTg7cupWl8ioOHT+ahbIXa9FTQMM0zMLiJ68rFy5cgXvvvsu5syZI9uU598B8DaAaS8z8C4A/gbQRvYuTItbu3atbDNx/uWIu+g4aia4ktSSvjTQvHJhfNKF20dqsulAGN6buEyDhNTUp1vZuAZYQ57cEay8aEoJU6phw/4wfDljPe5Exdm4VtKu+4yodKlfGi5OJIJNubD4DIuzjR07VmUfni/sWwCfvMzAMyx/DIB0fddff/1V8M+ryMx1B/Dj/C2aeUxFeTbchiveyYPbIH8OeeQpHzs6LgG9x87FqUsRNqwF3XWtAdM0kC+7Pz5+ncVpTMuRp4P116q9INg57n6iaZ1Kp63rlckn6IX9JIvQMIr9008/iTrx8fHSgEdW06Jj3t1YeOZFe/C1AKyTJbfx9PTEvn37kC9fPunXStKFoZOWY9vR89oLk9aebTeoXSovRvVsoBxeXLr9OD77a40G1tn2MNC9N4MGiuYKxFdvNDQZWR9+I1JkMm09ekHFkzTDk9j2JbjY+rZvE6UtR/LHvPPOO7h27ZqKElYC6GwE2r3IwH8DQDqJvVq1ali8eDF8fHykO3b84g18/PsqnL/GbQQt6UUDpKL9slcj1CqRWwlcFxV3H++OX4wDYRoYlF7GjH7OF2uAKO7qxXNjZPf6YGRMVR4+eoQdRy/iq5kbcPWW5iOR1aObsyOmvP8qWChIVphi3r9/f5w4cUK2Kc/fDqAHANH4RQb+IACy2EkJeec/+eQTkOhGVlgYhHmY92LvyzbV59uwBkrmzYYRXeshR2Y1cB0rY9HT0PuFNjwIdNfNqgEXJwe0r11SAO8cHdRBdwwXT1i8A3+t3qu3TRXe0Ji+TVCrpHyhtcOHD6Nnz56q5WOPAGBZum0vMvDcCKU7JDUyiJ4nUX6rVq2kS8PeT3wg2Mfmbz6iw0EKA8lWmzhkyICejcqhS4MyIEWtrETF3heUtLogkazm9Pn2roEAX0+82bIy6pXND2aoqAr34wf9shR7TynTp6re2ubbUf/dGsqXu2YWWpcuXQRZnIKcB/AWgKUvMvBku18se2Huu//9998oV66cbFOQmpYEJbtP6kEkrTwbbsCUuGEdaqJSkWClp2BBIhp48mlr0RrQGvi3BpiH/d5rNVA0JIvS9pfxaiQdG/zrUly6+a86JlrdL9FAs8qFMKKLNE8cYmJi0KFDByxZskRFxzcBDAIw/UUGnny2pKeVkqZNm2L8+PEIDpafrEluw4IHOvdSSuU2fTL3hmqUyI0POtVGJi936WdhQaI/Vu7GtNX7dPhQWnu6QXrQANPlqpfIJZD13h6mMd0t2X4c38zcAIKhtaRMA2XyZ8fEQeSdkRNujXTt2lU4zA8fEhgvJTEG/NwvLzLwTGKXrvHK5PzPP/8cHh6ksE+5kKBkweYjGDM7VJCVaEkfGnB3dUavJuXRuW4pJe+CYMyPfl+FExdvpA+F6afUGlDQgJOjAzrULoGBrasqtP5/k7sx8fhh3hYs2cbsaS0p0UCQvxcWjeqWklOfOYf2lIywCQnSnDA0oqwhQ6D8MyA7PwDkyMsl0yt3d3eMHj0aAwYMkGkmzuU+KsF1c0MPS7fVDWxXAxz8o/s0AWkdZYUrXILrPv59tWxTfb7WQLrTAKNl3/ZrKiJmpsihs1fx2dS1uKAznVKkRhdHB2wdL28TefFRo0bhq6++AolvFORzADwSn0bRVwYwT5bgJiQkBOPGjQPD9LJy9XYUhv+2Ehw8WtKPBqoXzwWiTAm0kxWCMt/7dSm2H7so21SfrzWQLjWQxdcTP77ZHHmD5NO2jApLfJCE6Wv3448Vu8EtMi0v18D6sX3g5UFiWDmh986stHv3lFIUvzOw2cU8beC7AvgBgFQiO4F1v/32G4oXl86sw6lLN9H3+wW4FyPN2iOnMX22VWlgZLf6aFyxoFKfTobfRI/Rc3A/UReVUVKgbpTuNMCFdO1SeUR5WX9vuW3U5Mq6EnEPX8/cAAJcmSuv5b81MO+z1xGsUB1z+vTpGDhwIO7cUeKFmQDgAwCRTxv4UQAGA5BKZG/UqJEABPj6Sheew5q9p/Dh5JWahSwdfSkZ3V3AgS9L42hU0VczNoC8CVq0BrQGUq4BL3dX9GxcTlSfk+VIT36XrUfOi+2xe7HaKXuZ9n97ry3I9SErJIxjLnxEhBL99lQAQwDcSG7gmYjM//EagBTHTR0dHdGjRw+Qgz6DQriVwI3pugax7Pu36fMbVygomLZU5E5ULFqPmCawG1q0BrQG5DQQEuiL4Z1qo2TeIJD1TkUYqv9+7mbM2XhIpXm6avPdgGaoXkwK0ib0w7rwTJW7cUMJRPwPgHdZvy35K85qMPBSJb2Imid73fvvSzPbigfp+/187NH57+lq0KuuaqkkgjHJmaBFa0BrQF4DNOo1S+bB8M514OMhFaj91824wG732XRE3GVWlpYXaWBUjwZoWL6AtIK2bduGNm3aqPLRM4GeZDcXkhv40gAmA+BviiVTpkyYPHmyYLCTlaSHj1B/yGQwBUNL+tBAtkwZRerIKwruAz2H/j8uwP7TV9KHsvRTag1YQAP89Aa1q472tUoofYfGLq3cdVKg6vldanm+Bj7sVAutqxWTVs/+/fsFaJ314RWE6UX9AYQlN/BNAIyTTZELCgrC8uXLlQB2zGVu++mT2vQKz6Gb2JoGOKmQXUtFDoZdxfsTl+HWPaXUEZVb6jZaA3apAS8PV/w8sCUKBQcoPx9pbD/7ay02HDijK4C+QIsENXaoXVJax0eOHEHDhg1x+fJl6bYANhr46E8lN/CsITsWgBRSLk+ePNi7dy+8veWLhZAdiWU+taQPDZB0gyUUqxQNkX5gAnYnLNkh8BpMk9OiNaA1YJoGyuQLwte9G8M3oxrLHVH0u06E48vp63FFV5x77st4u3UVvF6/jPSLOnnyJOrWrQvy0ivIFgC9WFHOaOAJquMmOpPjpap+VK1aFaGhoUqhHqZbzN2k0dAKL9Amm7BG8pg+TZBdoXIc9/oYDtxxjPWpbfLxdae1BqxKAyzVzGJPPRuXR4YMaoi76Lj7mLxsF2ZvOKgpo5/zdge0qITujeTrs5w5cwa1a9dGeHi4yphhydg3ABwzvlVPg3F/R/ZqhPIzB15Funw1C8cuKKEEVW6n26SxBtpWL4YBLSuDaXKywnoFLCyjC17Iak6frzXwYg3kDPARqPoyBbIrq4kkZV/+vQFnLiuldCnf1xYaqlaUCwsLQ61atVQN/E4APQEcNRr4LIbwfCdZpX355ZeCcUdWyDtf7e0JSNDhVlnV2eT5To4Z8EHHWmhWqbB0tOfhw0eYumavqE39IEnXK7DJAaA7bZUaINi1Qdn8ggDHlFD9+AXbMGv9ASRowN2/3rO1GHhWpWf1Genk5FmzZuG115g6Lyf0xFp+/JdcI322zWogV6AvPuxcG6XyBkk/w827MfhuTijW7D0t3VY30BrQGvhvDXh7uOLtNlVBfgqG7VXkwvVIAYBlaVkt/9eAqoE3MUT/jAdPHP+fsilyfIxdu3Yp1YDffvQC3hq3SI+FdKIBFroY2qEmAny4GyQnR89fF5Xjwm/ouu9ymtNnaw2kTANkWxvRtR5yKOBjjHfgPvyY2ZtSdsN0ctY7bauJipmycvz4cdSvX18VZLfDEKJ/sgdfAcAsANLwZjLtZM4sXxHsn02HRX1hLfavAXoFHeuUQv8WlaQ9BIbnWTlu5NS1Ojxv/0NFP2EaaYDfaI9G5dG7aXnlHhBw99ZPi3D43DXla9hbww861kab6kWlH+vAgQNo0qSJah78Myj6WgAWAvCS6QlZ7FjtRoWi9sf5WzBt9T6Z2+lzbVQDfhndwJUsQ4CyEp/wAN/PDcW80COyTfX5WgNaAxIaIPj1r2GvgcA7VdlzMhz9f1ioC9EYFKhaVGvHjh1o3bo1rl5VqrK6niSxAE4TZMeDdV4ZL5fKlShYsCAYSlCRoZOWY92+MypNdRsb00CurH74smdDME1OVshy2HPMPyApkhatAa0By2qgdL4g/Ppuazgops0RZPfB5BXYdPCsZTtqI1dnWnCtUoS4ycmmTZsEtu369etyDR+fvRIAC9GfpUF3AMAysVNkr9SgQQOsXMlryQkJEt4YM1fXgJdTm02ezQFWvmAOfD+gGZydpCgWxPOeuHgDXb6arT0Cm3z7utO2qIEv32iIemXzy3l7hgd99OgRth29gI+mrEJUnC4INX5gC1QsHCw9DFavXo3XX39dtdjMv7jonQG8DWC0bC969eqFSZMmyTYD92p6jpmrEZfSmrO9BqxD3a1BGfRrUUmp83+s3IOfF25TaqsbaQ1oDchroESerPjyjUbI4isPiOXdSCX9/T+bsWrPyXRPSvXbkLYomSfVy8XOM9h0UU2OJYU+MzDZSY2Gzz77TFSSkxWmyL09fhGYWqHFvjXg7OSA7/o1VVrFUjNvjPkHB8KU9qHsW7H66bQGLKQBD1dnvNGkPDrWKQku0GWFwNh1+8/gu39CcTMyfVebm/VxJ+QNyiSrQjD9fMCAAbh9+7Z0WwAzAQwCcI0G3gPADwZqO6mLsYrcG2+QEU9Ojl+8Ae7BX4m4J9dQn21zGvB0c8aSL7orsdfdiYpDkw9+1+QZNvfWdYdtWQM0CsXzZMWwDrWUcDN89tv3YvHljPXYdOAs0jOz9KrRPZHJiyZWThgZZwn2u3fvyjV8fPYfBoc9gu8yo2H/vZ3slZYuXSqg/LKy8/hFUYXoRmS0bFN9vo1pgKCdSYPbKPV61e6TGD5llVJb3UhrQGtAXQNMmxvQshI61C4lndpqvOuirUfx0/yt6bYcOMvy7vz5LSWe/zFjxmDkyJGIjlaykT8DGA7gLg08y8D9A6Ce7HDYs2cPypSRr5RD9Pw3szaKVZ4W+9ZAn2YV0KsJaRbkZcQfq7Fs5wn5hrqF1oDWgMkaKBqSRZDfMAtGRe5Ex+Hdn5fgSDrNi2fa4Ybv+qioDh999BHGjh2L+Ph4lfbfAuDeeRwNPMvDrgAgPQtfuHABOXPmlOWQS6IAACAASURBVO7Akm3H8MO8Lel2ZSetMBtuMGVIOxC0IyvMf+/w+d8Iv6kUopK9nT5fa0Br4CkNMFWOFLav1eJevFQG9ZMrzQs9jK9mpE9CM1bNXPg5E9Tk5a233sLEiRORmJgo3xj4FMAoAEl8a0QAbAZQSOZKjo6OiIiIUKoDP2v9QUxYsh3RcQkyt9Tn2pgGuIJd8XUPuDo7Sff8xMWb6P/DfNyL1ak20srTDbQGzKSBkEBfTHi3Nfy95feR2QXyWHT9ena6rAJZOCQLpg6Tr9NCvXXp0gV///03Hj6ULq71AACrv9GLF6mOZB/ZD0CqXqCvr68oZUc2O1n5fcVu/LFiD+ISlFYnsrfT56eRBpj//ss7rZTuvnDLUYydE6rHiJL2dCOtAfNogNXmSF+rus3GXrDK3LdzQs3TIRu6SqUiwRj3VgvpHtNrb9++PebPny/dFgDTFt43FI8TBj4AwCnDXnyKL8jQPFns3N3dU9zGeOIvi7Zj+tp9SEhMkm6rG9iOBt5oXB59m1dU6vDXMzdgwZajSNLlYZX0pxtpDZhLA+4uTlj0RTf4eropXfJ+4gO0GP4XIu6lr5S5ZpUKCQyDrDA1rlOnTkokcqQhADAYgCjVSgMfCCAcgBTNWKFChbB37164ucm/dOZHztl4SBcPkX3zNnb+d/2boXrxXNK9jolPwHu/LsXuk5ek2+oGWgNaA+bXQM/G5dC3WUXQo1eRXxfvwO8rdqUr4pvuDctiQMvK0uo6d+4cunXrhtBQpajHFQDvGIDzwsCzgtw52V6ULVtWdEDFwH89YwPmbz6i6UdllW5D53PVP+3D9gjOQgynnHD//dO/1uDM5Qi5hvpsrQGtAYtoIEeAD8YNbIHs/ky6khdSTr/z8xJE3E0/XvzQ9jXRrmZxaWWxkhz5ZehAKwht+ZsAlhs9eNaCPyR7oerVq2PVqlVwdSURXsqFXMWfT1uHxduOpbyRPtPmNFAgR2b8MKA5MvvIYzTW7jst9t/TOwuWzb103WG71YCbsxO6NyqLbg3LIoOCFx8ZHY8f5m3G0u1qxclsUbHf9m2CmiXlC81s3LgR/fr1w4kTSinCNKz9AAj3nx48N0m3yyqwXr16WLx4sbSBf5D0UNT2Xq7zm2VVblPnNyxXAO93qAEvd7kFIB9y6uq9mLhkJ7h3p0VrQGsg7TVAm14qXxA+7lwH9OZlhfS1K3adxJjZG9NF9hS3Mn4f0g7FcnMHXE4WLlyIgQMHChC7guwB0NPotNPA1wQgnajYtGlTzJ07Fy4uLlJ94KT9+dR1WLn7pFQ7fbJtaaBf84roXK80XCQryDH//af5WwRGQ4vWgNaA9WjAy90F77SphuZVCit1KuzKLZETf+AMt4ntW7w9XDBpcFvkySbPQ//XX39h0KBBqjz0mwzVYS8YPfiGBqIbKY2zGP2MGTOkDXzs/QQRol+z57TU/fTJtqOBDBlewec9GqB+mXzSoJxrt6MwZvYmXU/adl637mk60kCj8gXwbttq8POSz55i9Hbc/K2YteEgkuTzu21KyzTsY/s1BcluZOXHH3/EsGHDVFnsuPfekRQERgPfEsAC2U6wGD1XGrIefFTsfYyavg6kq9VinxrI5OUuDDzz4GWFYJxR09bhRPhN2ab6fK0BrQELayDAxwOfdW+AsvmzQ2ErHhsPnMXoWRvtvg5JhUI5MaJrXQT4yJXcTUpKwqhRo/DppySjkxbW9ZkDoBNZ7IwGnkVm+B+lhHl6v//+O5ydWU4+5UIDTw9+/X5t4FOuNds6kwC7j16vg0I5SbEgJzuOXcDHv68Geay1aA1oDVifBro2KIPeTStIb7/xSVgr/v2Jy3DQzktAN61UCO+2qQZvTzkMUlRUFIYPH45x48apvHgyx00yoOhFe+7BtzfUj5W6oKqBJ3UhPbQNB8Kk7qdPth0NVCkajPfb10SQZEoNgTjLdh4XC0D+rUVrQGvA+jQQlNkbU95rq0Rf++gR8MuibZi6ep9dh+mZA9+jUTm4ucjRdF+9elXsv7MevIKwets3AEYa29LA052fLnsxJuKTDF/Wg78bHYfPp68ToRot9qmB5pULi306ctHLCAF2f63ag8nLdsk00+dqDWgNpKIGiBD/5PW6aFZZqnzJkx4ePncNfb+bb9dZMu+3r4E21YtLF+k5ffo0+vbti/Xr16u8Ue67k6aWXvwTD74zgGmyV+vevTsmTJigDbys4uz8fH783RuWQb/mlaQBdiwsM2bWRpFOo0VrQGvAejVQJDgL/hz2qvQ3ziciF0rbT6fjwvU71vuAJvSMXvvHr9dB/bL5pa+yf/9+UWjmyJEj0m0BELjUHcAykw28DtGr6N/+23i4OWNAi8p4VYHBiSxXQyYsA1f4WrQGtAasWwN/Dm2HornkS0HzqRilm7hkh3U/oGLvAv0yYnjn2qhUOFj6Cps3b0bbtm1x48YN6bYALgNonJy4jiF6JQ9e1cDTS+MevAbZqbw/62+T2ccT771aHXVK55Xu7JWIe+j2zRzcjuJWkhatAa0Ba9ZAyypFBJhWRc5fu40Oo2Yg8YF0OVSV26VqG4KLP+hUC4WDs0jdl5GNpUuXginoDx4okXxx37u8oeCMuDcNPAvWSu/od+zYEX/88Yd0iF6kyU1bh3UaRS/18m3lZHLPf9S5tmC9kpUj566hx5h/NMBOVnH6fK2Bl2iAYWMS1fDX1ckRzk6OcHF2hJNDhmdaEt6a+CBJVPsUvw+SxH55TFwCWAiK/6ZkzZRRsLVxUS8rDx89EnXij19Q8lRlb5eq51cuEoxhHWohm7+X1H1p1KdMmSL24BWFLHYVADxZNdHAK6XJtWvXDtOmTZPOg+cAIUp67V5NdKP4Eq26WaHgAIzq0UCpyMyyHccx4s81Vv18unNaA9aqAU7m/t4egko2ONAXOQN8EOjnCX8vT3i4OsHR0UGAvhwyZADJqMTxvGT2RxCFwMTx8P+/JKp5kJSE2PuJuBcTj+j4+yiTPzuy+skZMqP+fl20HVNW7LZWdSr3q2nFQhjSvgY8XOVSyOPj4zFy5Eh89dVXqvdmujsd9ifCMdEcwCLZK7Zo0QKzZ8+WNvBESn8+bS1W7WYJei32pgF+8CyyIIugpx7s9YO3t3esn8d6NMBiTuUK5EC5gtkF+UyAb0ZBQPO4qOsrSmQ0KX06evpqxWMf32H/mSvo9e3clN7OJs7j4qlzvVJ4q1UV6f4yB55V5ObMkaalMd7rSwDDnzbwSlS1jRo1woIFC6QNPMM7n09dq5HS0q/f+hsQQV+rZG5806eJ0of/weQVWJNGkR323dXZUZB3uDg5PPn1zeiOTN4e8Pdyh4+nK9xdncX/M3pB3DejZ8NQZnTcfZDnIeJuLK7dvoc70fGIT0hE/P0HiE1IRELig3RVD9v6R6zt9JBG29PNBb6ebsiV1U8AuCoUziHKt6rWaE/rpyctdZ/v5uFyxL207orZ7k/Hpn/zSkplYu/cuYO6deti3759qv3pBuCvpw18LQDSSXfsyJIlS6SryZGDmMVmlu5IP2UDVd+WrbVzdMiANtWLYchrNZS63umLmTiZShS17KuPpxtIq+uX0R3+3u4ipJnV3wuBvhmRxS8jArw94PCcPcqUPlx07H2ER9zFxeuRIKjo4o1IXL8djSu37glGL3vn406pnvR5L9aAk6MDcmT2FkVLyho89SB/L7HAtHWJjI7DZ1PXYvMhljC3D8ni64mhHWqievHc0g905coVFClSBJGRkdJtDQ0IsPvXngcjLIwlbJG9YtWqVbFmzRppA8/7kIt+0daj2puRVbqVn0/Pt1fTCujWoKx0T2nsag+eJIA8lhJvD1eEBPqKyZJgQIKEyBUd4OuJTF4e0qQUsv2MS0jEtVtRIv/39KUIHAi7CgILiUvRojWQXAM07AWyZ0bVYiEonT8IBXMEwN1VjhXN2jXKvfxJS3Zg+tr91t7VFPeP88sXPRuCdN2ysnPnTlSsyOrtSkKaWn8A/wqH0MCXAUD0nZSUKVMGzNlzc3OTaseTWWxgbuhhjZaW1px1NyBCl6tXgkxk5fqdKDT54A/ZZi89nyHNsob9yTxBmYS37uPhKsKdBBmllRCVTC/+/NU7WLvvtCi+pA19Wr0N67pvvuz+aFOtGMoWyC4WobIll63raV7cm8SkJMzddBhj54TaSpdf2s8iIVkw7q0W8PKQ46DnhX/77Tf06tXrpfd4wQlkByv49P/jDMfZ+JjsVQsVKoS9e/cqGfgf523BzPUHxN6lFvvRgKebM77p3RispCQre09dQp/v5ss2e+757EflIiFoWD4/SubJJtKBHB0eI4itTbiHz1xgLnD+WrUXq/ecEihlLelPA1x0dm9QBm1rFhd4EHsIw//XW+TY53gfPmWVXbxsUzFIb731FsaPH6+qi9mGujL/as8ZjzU9L8peNTg4GMeOHYO7u3xd4AmLd2Damn12zUUsq097OJ8h8MmD2yB3tkzSj8MtG6ZPqgg9HBr1vEGZBD1k1WK5xN66rQnTkhiy/23ZLhG+j9Whe1t7hUr9pTEvVzCHAGflDfK3KPJdqYMWbBR66ByGT1mJODtY1HJB1rNxOVFpT0Vq1qyJTZs2qTRlm2GGQjPPGHjS7YQDkNrg8fPzw8WLF+Hh4SHdIRr3yct2IjZeeyrSyrPiBr4Z3TB3RGd4e8pv2/yyaDt+l8iJZXjd38sDwVl8UDJvEKoXz4UCOTM/P6/XinX2vK7xu+CCZ/G2Ywi7ektvZdnY+5PpbrZMXmBp0TbViopsjfQmmw6exYe/rbQLZ4+4iS96NkDtUvIsngkJCciWLRtu3bqlOgSYDfdMKIQePIt2M37vI3NlR0dH3Lx5Ez4+Us3ELeZvPoLxC7aCtLVa7EcD3C9c9Hk3pb1tfuQM171MmC5EkBzz7UvnC0Lx3IFiYnwuYcfLLmbl/5/e/KwNBxF68KwO21v5u1LpXpn8QehYp5RIeXN2clC5hE23MYboP/p9lV0ArhmJmTG8I3JmkbeJJ06cALe9FYWeMmH7l55uL8iPAOwFIL1xevbsWeTKlUu6T5zIx8zehDtRcdJtdQPr1UDRXIH4c+irSh0kBz0N2ouEaW0EsDQslx/FcmdF9szeAihnz8La2Tcio4U3/8+mQ/p7sZOXzehTvTL50LNxeeTO6mcnTyX/GMRgLdh8BN/M2ijf2ApbMEVu0aiuAu8jK1OnTkXXrl1lmxnPZ55hUQDPFPGggecIYx58Cdmrb9++XQnWv+3oBcFmdzMyRvaW+nwr1kCtknkwpm8TpR42GjoFN+8+Ox44GbJoQ+e6pYTHTnQqjX16ErI/rth5Aj8t2ArWctBiuxrgeG5euTB6N6kg0jPTs5Acatb6g/hxvnSWtlWqrUbxXBjbv5lS30wE2LE8bBsAz0wONPCMJywAUFO2Z/Pnz0erVq1km4kCA0MnLwerh2mxHw28VrM4hrSXHkYCYFP//d+eAG0YbifyPV9QJnRvVE4g4q0RAZ/ab27V7pMYNW09mE+vxfY0QBBWrVK58W7basjim9H2HsDMPaYHP3fTIXxrJ2lyb7asjG4N5TlAuFVRqVIlMA9eUcYYKGqfmRho4DnSSG8nbanHjh2LQYMGSfeJFIVv/rQQ56/dkW6rG1ivBlQHOBd6r46cjvuJSfDL6CZC8Y0qFESNErnh7Cgf7rJeDZnes+U7j+PHeVtFDr0W29IAq4y991oNwZiYlkKDkvSQB4vHPPw3iPMViPQ8h1ceF6MxUjJbor+PDfxhfDtHGTluiW4pX3PKkLYokSebdPuIiAjBYKdYA54lAUhROz15FTljJ2jgCd38EUBP2Z4NGDBAKW+PIcceo+fg1KUI2Vvq861YAyO61EWzyoWle3j0/HW88/NilMqbDTVL5hGgIyLytTyrAU7K/2w8hN9X7MHtKG3kbWWM5M/uj8+610e+IEKeLC8cJ/di7uP2vVhExsQh2lDqlb+MAN1PeCDKwZJwiYb2EWgnIHjtWUKWiHAeXGATPObm7ARXFye48W8XJ5GWSgxMRjcX8TfLz8qKPRl4Vo5b+U1PoRtZCQ0NBYu3KVLURgFo/CI2Whp4Uu6MMOTRSfWtcePGWLaM4X956f/DAuw6wew8LfaigR8GNBfUmrJCjvYzlyOE5y6qYcleIJ2dz314pprO2nBAp5rawLsP9MuIL99oiOK5s1qstyzryqItpy7dRNiVW7h08y7I9c5MJRZB4jYYHSsad+59E8CZUqEXT5S/sRATjTkNvbuLM9xcnQQta9saxUQNBxlJNITo7YHJjs7J5Pfayjz+k3MnTJiAwYMHIzZWacF+xEBwc/R5N+dcyiVHP4MXL9XBggUL4vhxtaIxI6euFXm+WuxHA38NexVFQgKlH4jeBvfdrb0qFqlkGRo3TphJSQ+RIUMGsWqnJ+Pn5S5qQD+vxLa0Ul7SgABVhjY3HAjTefLmVq4Zr0dveHjnOmhSsZBFxgW3O0MPncXWIxfElmdM/H3EGbxzhuJTQ0rly4YPOtaWzggQILsNB0FmU1uXrg3KKJWI5XP3798fkydPxoMHD1TUsATAAAOXzTPtaeAJSebSg1R3UuLi4iJWHZzkZGXK8l34dfEO2Wb6fCvWwKJR3cBKV7YmnAcfPnq8F0mv4vrtKJy5cksUhKE3FH4jUqSr0cD/15xJw05DH5LFF/lzZkbpvEEiX9/L01WABM2dq3/i4g0Mm7xCeGtarE8DnFwbli+Iwa9WE5ULzSFGauMDZ65gzsZD2HL4HB48TFvK7/IFc2BYh5rImcVX6hG5PTB9zX78uni7VDtrPHls36aoUVK+glxMTAyaN2+O9eulC7oa1cDt9U+eLjJj/J/GaGhdAIsBSI9CstnlyEG2WzlZufskPrITDmK5J7ffszf90Fd4sLYgDFeydntUbLwIbR46e1Vkd5y+HCFCm+ZyftxdnFAiT1bUKJEHxXIHIsif+fvm09GMdQfww7zN2ou3wkGXI8AHH3asJWhoTRX64neiYrH/9GVRqOvAmasi1G4NQvAgi0xxbMsIv8E/Vu7GlOX/qnAqcwmrOJff89QP2iuBJw8dOiTy3w8cOKDyLHT53wNAAvvnDgajga8MYA6AINm7cOVRqxZLysvJkfPX0O1r3lKLPWiAuenbxg8wu5dqTt3QA79kqM8edjkCJ8Jvir3/G3diQB54SwujG9WK50KN4rlBUiAVQM7TfeTe6tvjF2Pf6cuW7r6+voQGWDq5XY3igpfc3cRFLw357pOXsHLXSWw+fM7quBDIf8HsABK9yAiLKk1csgN/23i5WLJpju7TBP4KVMMLFizAwIEDcenSMyR0KVHlDUN4fu6LTjYaeJLcMFVOmuxm4sSJ6N27d0o6869z6CXVfW+ydDvdwDo1wEIz68bKjwNLPw33989dvY29py7j6IXruHg98gkAydL3ftH1mSbFbIGWVQqDXp6p2INjF65jwI8LrW7iTyv9WsN9WRd8ZPf6gqTJFImMjsecjQexbMdxEWmyRmlYvgAGt6sunflCRP8P87Zg4RbixGxXWlcrioGtq0pH5rjdwlTzESNGqALsDhnwc9teZuDzAJgAgKF6KRkyZAhGjx4t1YYn8+FIbqLpaqVVZ5UNsvt7Y+EoZapFsz8Tw++bD53D+v1ncO7aHTHOWJ0tNTz1lDwMU48KBWfBwNZVUDQk0CQAFr+ln+ZvFch6LWmvAaLOO9QpCfJCmMK6yBLCk5buwhqJEsK8N6sqsl4DOdGz+Hgik7c7XJ2c4ODwikiNi4q7L0jGiC/Zf+YKLt+8a0iSU9Ndy6pF8E6batIG7l5MPL6euTFFNSjUepY6rYZ1rIWWVYpIv+vo6GgMHToUv/76q7CHCrIaAAvIv7AarNGD5zJzLIBOsjdp2bIlGGZQkb7fz8eek0qhCZXb6TYW1ABTZf4e3sGCd3j5pfmRMOVuXugRrNh1Anej463GoL+o9/5e7viuf3MUDmHNJ3U5e/UW3vppEa7fiVa/iG5pFg1w8Tbtw/bIFajOM3/rbozwblfuPvXSyZ+56iRYaVyxAKoVywUvd1cw1/Tx5M7slGcfi98KTQrD/4fCronqngfDrggCHFlhwZy3WlUWefMywkX3iD9Xg9Tltirk6/i8ewNULCxdygWs5fLmm29ixYoVKo/PF/UnAIZNXwi/N756kt2MBCBNS1e8eHHs27cPDgoE+z/M3YzpNr7/ovJm7LENgWRThrRL9UdLeJCEyKg4AY5bsOUodhy7IPJ9bUkyujnj696NUbZAdsEcpiKMTvy2fDemr9ln9YsaleezpTa1SubGmL5NlbvM0PXkpTsxc/2BF75LGtMAH09Bfdu8chFwS8CULA2mfjIKtHDLUanxQ7a7no3KoU+zitLPG3E3BoN/XQoSXdmqEDg7vFNt5FUgMGItlx49eoCV5BSEK/nPAfxn+Nxo4DmrDAEwCoAUJVFISAjY0cBA+fznFTtP4uM/nilhq/Csuklaa4Ar2PEDW6ZaN5hic/bKbQEuYy44vQ+1KJdcl+ktMeWJyFkSfxhDsLx3QlIS4u8nIjo+AQw/kqkrpZIjszc+7lJXsPmp7slvP3YBX0xfD+ZGa0kbDdBb5ndQoZC8R8ce07P+Z+NhUYCFY/x5QjBXjRK50KF2KWHYzSUkUOo+eo4UhTiBov2aVxRlb2WF47TPd/NxOcJ20zwbVyiIQe3k0yD5nlnLhQh6psopyFUAfQAwD/6Fkjx4Q6rab2XrwmfNmlWE6CtUqCDdR+4BvTbyb+l2uoH1aYC88WP7qXstKX0ifhjHzl8XRn3niXBh5F80Eab0mi87j0Y8OIuPYCLLnyMzMnt7wNvDTVB4GsOS7Bf7EROfKFLvbkXF4vrtaJy9ckvk1DOPnnn2LxJ67pUK58S77aohWDKf2HhNkvCMnrUR6/edMWlP9WX60P//xRrIlskL/3zaWSz+VIQL1SETlr+QhphI9U51S4uKdOZMtzT29ZuZG0Vp4pSKr6cb3m5TFU0rydcyJ39Dpy9mCn4JWxR++z0alUWPRuWli2HFxcXh22+/xSefMIVdSU4ZKGrDUmrgmwMYJ1sX3s/PD7/88gtee+016V5y/6fWoIk2F1KVftB00KBu6Xz4uncjiz0pTSNT2+aFHhYpQ1du3ROAIUuLj6er8E6qFg1BFr+M8HJ3SZGHzf7Sm4+Micetu7E4fuE6Nh48i90nwl8YAuWC4fV6ZfB6/dJg/rysEEA4Y+1+TF62y2YnTdlntrbz29cqIVLGVIRbS6zJ8CJcEsfHa7VKoEejchbjm/hg8gqs2Xs6xd3P6pcR77evKdI/ZYVETa9/NfulGAPZ66bW+Yyk0HuvXza/9C1v3bqFXr16KePXAGwEUJ8wipQaeG6iTARQXKa3Hh4e+OijjzBs2DCZZk/OpQdPT16LbWugQdn8+OKNhhZ5CCLiZ284KPYHb92LUQICqXSMK/Sx/ZqgfMGc0gjZp+/HdL3EBw8RfjNS5P6GHjr3XI+eHtqXbzQS5DgqcuTcNXzy52qRDqgl9TUwaXAblM4nTSciOrpi5wl8NXPDC+sLZM/sjRFd64ltHEtIfOIDNBjym9TiMHdWP3z8el1B4iQrmw6EYfAEtVomsveyxPn5svvj0671BBe/rJAgrnr16rhwQRlg+H1KMHPJQ/SsEsJc+OoynXV0dETPnj0F1F9l73DopOVYt++MzC31uVaoAYboONjNJQx5M51n78lLgtL47NXb5rp0iq7DvdS3W1dD53rye4svuwEjD2v3ncbvK3YL1P/ToftXaxYXebX02GSFUbF3f1mCnccu6jC9rPJMPD+bvxcmDWoDFpeRFRIWffT7KrHwe1HKFCvRje7TWHAnmFvEnvCWI/jq7w1Sly4akkUs7GVZ7HgTgghtudBMxUI5MbpvE6Vo26ZNm1CzZk0pXT91cvuU0MsnN/BE0nNDvIXsXZs1a4aZM2eC3rysTFi8A78t3yXbTJ9vZRpoVa2oQJOaQ4joPXLuOhZsPowNB85KoXrNcX9eg0C6ZV/1ABnJLCEMp+89dQm/LNounjX5pM59zQmDWotcZhWZunqvuK4MyE/lPrrNvzVQu1ReDO9cGyR9kpVdx8Px1Yz1CP+PugJcOHzQsRaqFJWv2Piy/oRdvSWow1l/QUbIQ/9tv6ZKRu67f0JBqmVbFOJy2tcuiXfaVFXq/siRIwXBjaIQfUnumhfmvxuv+3SG5K8A3pBF0lerVg1//vkncueWJ9tfvecUPvxtpeJz6mbWogHuDQ5R3Hs0PgONHlnnlu04IcgvSPSRGsj45+mwUM4AkctsaeGePAvGcBsiuXSuWxrvtFWbPE6G30SP0f9YHHxoad3Y2vV7NSmPrg3KSkdeuH3z58o9+H3Fnv98Z9wyalGlMPo1r6S0iHiRPm/cicaEJf9j7yqgq0ia7l0kECS4uy7uToDgEtzd3d3d3d0tWIAQnGDB3XVxd5fg/P+5vWG/LAvkVT/Je2HqnJzd79uu6e6aeVPTJfceBPlBJHUtbMsrmjUFBjcqrhW97Th1nYpYOKKQc6N//aIgTK+OFC5c2ByCGVLDMpUeaJvO9w6+qz8zjegonj59ehCyNnfu3OK9EmazyeiV+GCDginx4gwFky1gTnERJ6Ej33bsEpbsOKlOEUHdyx47SgSsH9bQ5P3rDiSwCMOUhCMNKATQWNm/jtaLnGH66oM8cNPIw+veFrEenV2/ekVQMmcqcT/6s9d+GOu5R2HNBybRXMKhZbncah62bJorr/zeY6HPcazcdRrsv5cIPzhqFs6kTZNapf9iXH9g29SbZH+/Gktq6CW9aiJ6pHDiSxLBjt1n/KemsNuNbe2ByvcOvioAnuJFEEzx48fHxIkTUaFChUAn/H4Ac5DtJ69VuUhDHNcCFVzTqfCkjvDjbsqa/Vi7/1yglKw619fR4Qt73q+4jQAAIABJREFU1cA6SBDD8vnO79fDqmmiOn4vLF7iiU1HhnrswOo9jo3xrbPvoNJhWH5Qw+Igs5pU+EE7ZPF2nDUR8IXOhSx15DMwR5jCmbH+oAqTf9AAh2KNCEPUlQuI6rLVkr98+Yp87aaBQFWOKLnTJsLE1uW0IKY3b96MkiXN6jjii9akYonvHXx2AN4ARCW8zL2PGDECrVqRd14m7A8euGAbDl4INJ0gu7Ax2qYWcMuUFKM10bsGLNiqwvL2ghP/zXDl8qRFrzqFxCcyqeHZy1914OL/qLEvfmIbvkR+gDUayCQ7TlxF1xmOW6EstWFQj2eFO4tMM2lUuB+6cBt9520BcQxMFfbZ96xdCIUzJ0cYp1D+sLSmabOokyf3cZ57sOGQFoqamii8sxOGNSqJPOnkHzW3H71Ehb6s6XZM6VQ1P2oUyqS1+JYtW6qidE3hsZ8H8F+2x3279vdvjugADvon8EXz9+jRQxUNhAkTRqRH9KTJXvuxas8ZkZ4x2L4sQM7rae3lERzuovnY1Th6yf44CUKG+APT2ldElpR6bU+m3iGetHni/l4Ypl/SqwZiRJbRcPI6T168hXvPeWB+1xDrWyB1opjoXbuwuGWKxZVbjlxSmOw6OPClc6UGyV6Sxo2KiM6/xmjgs/DkpR9OX7sPFmJeuEm2UX1h1GJO1ypIrAHMtPv0NXScul5/8iDU5Hthed/aWiiCHz58QNq0aXH16i/xaX61u20ATG5X+t7B83/vApBPar+6deti1KhRiBlTRprBfOGS7ScwyeunjHfSpRjjg8ACaRPHwoLucrAjLpXgHvvO3giygrpfmYsQvL1qFUacaPLWJ1NuA+lA2032/iEeNwt5BjYoigIZ5aFYOo4KfRcqalxDrG8BVpOTVYxUwBJhUZvH9hMqRaUjTCXx2cyVJhHSJ4mNJHGiqjY9l/BhFXbDp0+f8fzNe9x78hKX7jxRIDr8mObBylwhFv7qgXUQ1kkOyrRgyzFM8tpn7hKCRD9J7ChY3q+2VmTv2LFjYFE6kew0haX35I0xSX4U+5sCoKVJ2gEGFSpUCNOnT0eKFClEqkT8YnEJc1BBXVglWrgx+F8WIJTrqgF1tazSa/Zm+By7bJeIVs5OoVG5QHo0KJFNvTQtKTyxLfI5piqYf9TSxiKmusWyqKppHWF3CrsRDLG+BQpmToYuVQsgZhRZtIUwrWxpJJCTOcIsDlnkiLYYLaIzwoV1UsRFfK7YdkpiF2K/+30wKbJr0lII3Ty3qx7BFMGYNh7UTw+YtEArDapVOLOClNaRsWPHKlC4T5+07gPb40oB2Grq3D9y8M39C+1MvYYalzJlSnh4eCBbtmwiPQ4+dOGWIskg/KghjmmBqBGd4TOK1MRy4b333idjsZLPoq8RMVwY1CueFdXcMoLkGpYQnrC3HbuCiav34v5PyGH40i6QISlGNCulxTK3eNtxjF+51xLLNa4RiAVK5vgTHavkB9MqEuFJeoznbqw/cEGiZhdjmRpgWkJHiEHPdk5HlKntK4ARG6l8/foVlSpVgre3t+5hhl/rZQCY/NX+IwefB4A4dhIuXDi18CJFikj3rdqihi3ZqXJDhjimBXjaPDBZXmTJ3dIJLd1xQisHaStrMdzZ2D0H6hbNCiczwW+YCyUHNtvjAguhEwJ0WOOSWuhoJy7fRZMxq2xlot96HnY7tK+UD/wYlAjxD/ju2ybAf5dc35pjeYrlaVYqrJwv2nmWCBJXOoe1xhNK2qNXDQWEJZXr16+rTrNTp7SjNcsAtANgcvHEjxw8k0j8tBLjZM6ZM0fR30m54Rk+UixYJ7QLD6S2NsZbwQJ7J7YUg3xwGbM2HMLsDUfsviCMJ+oyudOo0zyhOb9RxUpMyZy776mrmLHuEB6/CLwPlsxybD/UwTdnRKz+iBV4JqjOluzFGPs/C1TKl16xqoULK4vwvHjzDgMWbMOeM44H+DKxdVnk0UDVI5hVnWHLHDIl654zlaq10InkrVmzBq1bt8bdu3d1fjqslu0BYAIAkwsoftZ/Q8QFMUVOly5dMGDAADg7y75uPn35ivEr98DT97TdtUrp3InfVWfziEYgw5JUyIA20Wufw0CrpkkUE+XyplVhOuKPM9cZmPBFfu7GQ8W7wLy4qfUmDPkqOs5ccjpOtl2RHez4Za0XSmBbMv57AAuY4+D7L9iKvWduOJw91wyqB7YHSoXodd1nbnS4HvgQIf5QUMGk6jXlNx/QLl++fMHgwYNVO7lmgR1P7cyBrpXY+2cOfgmAGpILcay7uzuWLFkCFxcXqSoWbT2OWesPWbQIRLwIQ8EsC6zqXweJYkcRX8Nr71mMXOoLfug5irAlKVWimMiULK5i9/ozYYz/oM6xQ4QkOaeu3gd5vk9fe4D7wjoTRgkalcyORu45xFW7LK4at3Kvqm8wxLoWMMfBEwdij4M5eILc7BzbDEzNSYXAOqw9cTSuhFhRImJo4xJaTI+PHj1Sp3dPT0+pub6NPwCgBQBRfP9nDr4jgDHSlRCL/vDhw4gWTU6SseP4FYxasQuPX7yVTmuMtxMLsE2O7XJSYR8wTzF0iI4mfNFFDu8Ml/BhEM0lvKq054/q3cdPKgT/+t1H8PT+9t1H7egUTwztK+dTXPQSYa6TjF2TVotLaiTTGGMBVHBNi3aV8iGCs5PIHszBD160HTtPOlZ6kjSxK/rVFu312+BRy3fBc9fpH9Ila13QRkqu6RKjaw03xI0mP8AePHgQzZs3Nyf/vghAGwCivtefOXhSxrIfXiRE3Lp8+TKSJZP37V68/Ri952zGjQfPRXMag+3HAlPalUfO1AnFCyLoRfeZmxwuZPejjX77QbH901JCWspuNdzENKFcw/bjl9Fr9ha7r2+wlK2C6jruuVKjY5V8Yu6AV34fMGqZLzaZgEMfVHv70bxsCxzVzF1rSSSZYc1BUBFJaS0aUK2yTUrnFHMAsGOGke2mTZvCz890tMIA66TSYADDpGv/mYMnFB4Td+LG3+XLl6NqVULay4TQiW0nrcXZ6w9kisZou7HAyGbuKJRZ/nFH8I22k71FTFZ2s2kbLISnpb51iyBdktji2WjbfvO3KmY+Q6xngaLZUqBTlfziGhQSvExYvRdeDsYbUL94VrSukFdsUL8PH9Fq/BqccbD3fNSI4dQHXIkcf4r3/Pr1a/Tv3x/sgdcU4rgzPL9Rqv8zB88qOcb8M0ovyEK7kSNHStXA0wYLL1hJH5AbW3whQyHILEAnxHCyVP5mFFxl0Jv+xHBsvRrcsLgWD7giMvHYYXw4Sx9K4fh86ZOga/UCiCMM37778AkzNxzCIp/jwhmDdnifOoVVoalUbj96gS4zNuLKXRnvvHQeS48nFDH3nDJ+DPGlb926hZo1a2LfPu1U2RFmgfwP3aL5f+bgmUiaC6CW6GoA3NzcsHOnSUQ3/7n07A2HMWvjYcU0ZIjjWYAnmBqF5QQMpIysM9Qx22ZscZeY+upVqyDKaFTv8uTOnKfvyWu2WOpvOwfbGHvUKogksUVEnCottXT7SYeDbSVHQ/ZU8cX3+8SVe2BRYWD4D+ILW1GBcMBFsqZQDl6nPe7AgQMoXrw4eJLXEDpDsvI0NoX//fvr/8zBswe+s07MP1KkSHjy5AlChRK30SM45WI1bqTDq7Qok0tVe0uFTqhSv0Umt45Jrx8cxrP3vnGpHOIXDEOiE1btw6rdBpmTNZ+DPxPEUA4gVUIZFwcZFAnZyiJTRxF+cHoNrKvVIkdAn9ErdivoXEcRwv62KJtLmz2OoflOnTrpbvcjgIYAPHQu8DMHz/+fFRTsuRNzVZ47dw5p0shDtYTsrNLfeNHr3Eh70GERSqvyBEKUyfM371C253xVeW7Ijy3AoibCgpLBSyJMd81cfxhzN9k/kJBkX/Y2lsBH/esXVS2TUmHBWa85m+H33jGefz6DK/vXEcPy0i7EOpm69oBFyG6kdtYdTzbHCa3LImV8kq3Khad3Hx8fueLfGvwSSg5AqzjtV86boPIklJZ9kjK2P3cuGjRoIN4QX0bl+yzA3ScGJr3YeHagUKNgJnSqxgYMmZBwo0S3OWA+0pAfWyBFvOiY2KasFnUs6Wgne+0DK7YNsY4F2B7JOok8aeXc6Axb95/v4zDvvWRxo2Fmp0rij01afub6Q5i/+ahDdczwo21Gx0og0I1Unj17hnjx4uH9+/dS1W/jtwOQ47/7a/9qxUSyWwggp3RlbAeYMWOGVE2N7zNvCzYdIpCeIY5mgQqu6RSsqlQIeFGw4wzDwf/CcATWWdijmrhVjpfcc/q6goL+GamN9H4Z4/9rAb78BzUojmLZUoAhbIlcvfcUQz12KEAkR5Bsf8bH6ObuiOAsw2X4+vX/MNZzN5b7nnKoFrkOlV1Rq0gWrVtDhtUWLVgAry0kf9NzpoGE39mTMw5AdenSMmfOjCNHjogx6TnPyt1nMHyJXpGedJ3GeMtaoGTOP9VLTkfo4C3BUa0zt6Po8NSkg0l/4eYjDFi4FVfuPnWUrTrkOjtUzoeqbhnE6G4ERBq1fDd2nLjiEPtmS2CfOkUQTsisyAjdyOW+WLffcZjziCRJQJ+EMUnRIhOyx7m6uoJFdppC0nj25d3W1P9lfj0cgN7+APei68eMGRNHjx5FggRySj22T1QfRKRcQxzNAoUyJ8fIZqQrlkvJbnPw2IEKb+Q7NF+jZ62CqJgvvfhCD5+/UZj0Bluj2HQihRqFMqFF2dxiwpkPnz4rtMFlZnLCixZrxmB+xLSt6ComliLp0YhlvoqPwVEkY9I4mNWlshgmmvu7dOkS0qdPj48fWSenJeR6Zs5TGzfrV7Ek/remZPOUAt6wkn7ZsmUoUaKEeFek0izSeZZxmhNbLugV8qZLrIpRdKRCnwW4/ViEwqgzjUPr0IF0qiqvcWArVscp63DwAvEyDLGWBfJnSKIAiXSoRD22ncD0tQcdotCUtMkNS2YXI7qxtmrE0p2KKtlRpGt1NxWV0ZEJEyagffv2OqrfdLoDGGHOBQJLFpUGMAWACH+UbHIDBw5E587stJNL83GrQQQuQxzLAgwfM4ysI4zaOBr4hc4+zdEhDDDhgHWk33wfBYfKPKgh1rFA0rhRMbltecSMHEE8AcPzbB979DxwCmHxxS2swFREtYIZxXTJJF5i+tVR2A3JM+E9qD6iRWIwWyZkjytZsiS2btVuf2RVHuvfTstm/vfowBx8ZgDTAYiam8kHX6dOHZAfPoQJVJrfb2DKmv2Yt/moOfsydIPAAumSxML8btW0Zq4/YjnOXn+opfu7KMWJ6oJ1Q+trbXfa2gNY6HPcIQl9tDYcBErOTqFVIWSSODKwGy710p3HClKYyIP2LoxSEHs/pLCq/MKtRxjmsRNErnQEKZAxKYY1KSmOVHBvp0+fRsWKFXH1qjaJ0G4AxHw3y1iBOXi2yM0CII67EtFu9erViBJFTh+669Q1dJq23hGeAWONASxAsA+PXmKWYXWFJmNW4sTle4Y9f2GB0CFDYMfYZmKwG16SlLxjVuzBewNrwKrPGGtQWIsiFbaKdpu5EYfO39JPuEon1Rw/oin3mEzcLUDKZHYLXL33THNm26mxK6JnzUIomzeNVv592rRp6NmzJ168eKG76IH+4Xktdppvkwbm4AlHN8E/Fy+CpsuQIQPmz58PVtRL5ebD56g/YoWRh5caLojHJ48bDcv6itGN1apbjPfCkYvaxaJBvHPbTb+8by2wD1kq+8/eQI85mxVtrSHWs0D9EtnQWgPsiSsavWIXVu46Y9c86ewAHN+qrBYvwpG/7mDo4u0OUWsTL7oL+CEjRSbkfXz79i3atGmDhQsXgqF6DeEXEIFk1plTYMd5A3PwHNMBQH8AIhLc+PHjg0UGDFNIhTCGXWZswJlrWuA90umM8RayQKJYUbBqQB2tq7WasAaHjCKwQG03kqenLPIT4l+3H6PFOC+QtdEQ61kgW8p4mN5Rrw5l0+GLKoTtZ8eAT06hQ2JcyzJatNAHzt/EkMU78OCZFia79W7aD65M1jjWGkRzkeffT506pbjfyQGvKayeZ//7OU39f9RMcfDse2KYXoTByEK7AQMGgOxyUnnz7gPGr9qLNXvN3p90amO8GRZgr+jqgXW1rtBhyt8c0Yb82gLExG5USlQSoy749KUfqg/yAGGBDbGeBcKEDgnfcc3FvfBcEQlYGLl8Ycf3KHxYJ4xpURoEu5EKAZcGL96Op6/MijpLpxWPZyqsfeV8qOKWQSs8T+53nuCJYqcpUwF0A2B2xaUpDp7HBULWEtlOJETwIXVshAiyqtJPn7+oUNXYlbsdCvFIZJxgODhOtIhYN0QOUUxTGA7etAeCxU0D6hc1bXCAUWw/LdtrPtgTb4h1LTCjY0VkTSl3gITqpoM/d8Osuiqrbo4tgKOalULmFPHE8+w8eRWDF23Hy7f2HUVikWSPmgW1QKVevXqluN/HjSNGnJbwq4DtcTxUmy2mOHjiERIPN690tlKlSmHy5MlIkiSJVFXBaxK29o2RMxTbLqgU4kSNiHVDDQdvTftnSh4XsztX1pqi/vAVOHvDSHtpGU+gROa/NhXEr0s1A7Ha+WevEtUlHJgm4nMoFQLcDFq0HYzQ2quwxqBgpmToUbOQFpkOwW3YQXb48GHdLZL2ka0yx3UvEFDPFAfP8WyVayadkIxyJJ7JmVMMZ6++Ygct2mbAa0qNHoTjDQdvfePHihIRG4bpfUR1n7UJpOs0xLoWIDEQu0l0yElYK1F7yFK7raSPHim8Kj7LmCyO2Ih89ujg2TFgr0L4XVJe1y2aRdwlwAjMhg0bUK1aNfj5aaUhyP3uDaA2AK0LfG9XUx08yebFIYPw4cOD+YiyZcVddrj/9BVGLttl5GXt9Zfwg3UZDt76N4svoI3DGyGCs5N4svEr92LxNoscDMRz/04KzmFCw6NXdSSMKW8RJvFS1QGLceuRdnuVVU39t4MviYzJ5Cf4rf4O3s+OHbw51fOfPn1S4G4TJ07UvQcskOnlzwGje41/6Znq4InVd0pnxjFjxqB169ZwcpK9kN5//IyJq/diha9ZQD46SzZ0NC1gOHhNwwnUiK7F0yE7FqSyZPsJjPXcI1UzxgstEDpUSHSv4YZyedMKNf8ePn7lHizedkJL19pKrCrnCV4/RL/NrtOupPsd37qsVnEdT+2MWt+8qQ3Fy/y7GwCG6S0ipjr40AAIsSRqleMKyQs/duxYRI4sZ+NR+MzrDho0oha51da/iOHgrW/jMKFDKbhanRfsliOX0GvOZusv8jefIcQff4BtVv3rF9VyFKSNbTp2Fb58YcTWvsScIjvC8TJEb8+skf3rFUXp3Km1jL5lyxYt/pUAk5lNLvP9wk118NQjtJy7dOfZs2eHt7c34sSR52wMHmuptYN2fIKYkeA1sJ7WItpPXou9Z29o6f5OSk6hQmJo45Jwy5RUvG3yO5DnwRDrW4CojmNblEasqBHFk7HKvMW41bhkh7C1EZ3DYHQLd60uASKUsk3u+Wv7bNWMFD4sVvavo1Vcx5vM3PuKFSvE9zuAglnc7z+aWOLgCXgzVrp6FxcX1fCfOrX8q+jGg+foM3cLiGFsiP1bIEnsKPDsrwd003riGhw8b7CdBXaX2aPbrUZBlHeVh3+vP3iGKv0XBzaF8d8tYAESznStXgBumZKJr/bx02fM3HAY8+2Qj4MRpHGtyiBHKjkVOD/ghyzejscv3optYguFivnTKXhaHbl//77ycS9fajNiUjEVAIu2uUgcfEYAJ3U27+npicqV5a095EnuNmMj9p29YbdVpTr2CK46yeNFw7I+elC1BoOgaU9FqJAh0LxsLtQvns00hQCjiGJXqONMsZ6hILcA8/B1imZB8zK5xNX0rMYmpSrTKfbWJsz0A3PUzFVLhUiVRLK79/SVVNXq47mvJb1rIHm86FpzzZw5E82aiRvNAs61EkAVrcl/oSRx8CH88/Di6p527dph/HjSystlktc+LNl+0mDBkpvO5hqpE8bEop7VteY1yGZMMxsZvGoVyYy2FV1NUwgwikSxuVtNwWc9fGzxfL+7Avnhu9VwA1sbpXLr4QsM8diOY5fuSlWtPp6EOuwV/4NN4wIhTSzJZhiZtTdJnyQ25natIt4T9/H161eQXG3PHrMKWMsBWGtpu8juEEBy2yLSRWTNmhVHj+rRv249ekkVZtgzPrPUHsF1vDl0sfWGL7drBC97uWfsrS6fNx161iqotaSiXWbZbQ5Ua0N2rJQgZmT0qlVIC9aV0cvZGw9jweZj+Pp//DSzH+lXryjcc6YSRybOXn+gsPb/uvPYfjZDQpY/gA6V86Nm4Uxa62IKmpwrDNNrCouPsvsfoDUv8WM1qYMfCqCHdAVhwoTBvXv3EDWqnCeZ/aANRxKf2b7hDaU2CY7js6aMhxmaRBs1Bi9xCC7soL5vPDUVz5YCgxuV0FpKpb4LcdNOe6y1NmTHSkyndKySDxXzpQf/XSosShu1fJfdkbN0qpofVQpkEO+JXPfDluzAaTsjEYsROTwmti6HFPHl4Xme3gcOHKgg2d+90y4enAags6XAbQI+Z1IHXx4Ay3Cleli3bh1Kly4tfcYVdWKdYcuMl7/YcrZXyJMukfqh6EiFPgtx+7F9gnvo7MdaOjxt5E2XWFF26kj94ctx1o6xznX2ZM86xbOnROeqBbQqsx+9eIMBC7bh8AX74ohv7J4DDUtmBzs6JHL70QsMX7oThy7YFy00+R3IHBc5QljJdtRYHlzZCr5161awdkJDiFhHaNpVjPZr6P9SReqo0wPYBiCmdCHt27fXBuDnQ0HyGUPs2wKFMifDyGbiTkq1qZLd5uDxS/usrrU3q2dhpKRDRa18odGtYNu7GSNyBExuWw7J4kYTT8zQPHHpF/kcB0P29iJkWWtX0RUEXZLI4xdvMGKZL3xPXpOoWXUs2fE6VyuAUjlTgfUtUlm/fr1ijrtxQ7vFl7lrYk+flc5tynjpjtgbsQhAAVMuHnBM+vTpcfq0Hiod8/A9ZhsAHVKb23o8fyQDGxTTmrZgxxl2DYChtSkrKWVIGgfTO1SAU2jZC5bL6TZzI0j6YYhtLMCUSs9ahVBBo62RK2TeuvP0DXhiRx+/xbKlQO86RUDYZIkQ4GbkMl9sOvyXRM2qY9MnjaOY41JqhOc/fPiAIUOGYOjQofiiX7g6CUBvAFZpLZA6eMLRDQHQUmr1cOHC4fLly4gbV45hzIe7VPe5dldsIrVBcB/Pl1iv2oXF22Qahg7+3YdPYt3fUSFdktgKzY6nD6n0m++DDQcvStWM8WZYIEfqBJjStoIq5pIKT/Etx3uBIEX2IjlTJ8CIpu5iPgTSgLOmYPUeqxxWxeZhwWqV/OnRrnI+cbqBk125cgWkRN+2jUFtLWG1YUcAVgOnkD5yPDIQbYc9b6IEDAvtli1bhvLlmcaXS/WBHrhy76lc0dCwmQVqFc6MDlXyiecju1SJbnMMB2+i5dIkioWJbcpp5QyHeOyAl528YE3crsMPCx0qBFb0rQ1W1evIlqOX0HvOZuileHVm/LUOUfqmdagAl3DynPWEVXvhsf0Evn7VyldbdDMsrutSrQAKZU4uvi7z7Zs3b0atWrXw/Ll2299+AI0AWO2LW+rgaQhWypFZLrbEKqFChULXrl1VSENHxq7YjSU7tHB2dKYzdDQs0Kx0TjQpLacGJrJVhb4LQIIhQwK3QKqEMTG+VRmQ2UsqY1bsxlLjdyQ1m9njaxfJjPaV5R+/nJgfwLWGLsWdR9ooaWavP+AFYkaJgCW9aoC49FKZt/ko5mw8bBe/dfI5kDiHBDpSYcV8nz59QDI1TSFnLv0oEWKtFrrUcfCZ/fnhc0g2ptp7ihdXuPRSZjnOs+fMdXSYsk4ypTHWxhZg+0yNQvJe0psPn6PWkKV28aO3scm0puMJakyL0oitgXM+2Ws/5m/Rw6TQWqyhpCwQzcUZnv3rwiVcGC2LLNp6DBNW7dPStbQSUfrWDqmHGJEiiC/N6NHkNftBvP2glJAhQ6Bxqexo7J5T3hJGPNkHD+Dq6oqrV6/qboPkbTy9WxzcJuCCdBw8K+inABBjz7LQbtWqVUiRIoXYKGwZqTbQwyjEElvOdgr96hVBmdxpxBOev/kQTUavsqtKYfEmbKjAft3Rzd0RL3ok8axT1xzA3M1HxHqGgvkWGNKoBNg2pyNPX/qh+iAPPH+j3WutM+1PdUhZzA9Nqew4fhWjVvgGOR69ObTL3LOHhwfq1q2rUOw0hW1hhKO0SnHdtzXpOHjqjPAvDhDl4ePHj4/JkyejXDl5r/Sbdx9UNak9FZto3thgqzaqmTsKZpaTa/Cetp3sjY+fvgRb21hyY8rBN3NHvBgaDt77AOZuMhy8Je+HqdfKlyGJYpiTQrzy+ixEHbXcF6t220eBGiNIBTLKGQ0JvTtw4TbcfRK06YYCmZJiTHM5LgvvBfPvBQoUMBeadhCAvqY+O7rjdBw852JoYTgAEfQPK+l79eqFHj16iB9y9oHOWHcIC32O6e7V0LOyBaZ1qIjsf8YXz7L79DV0n7kJHz8bDt4U45nj4KevO4jZGw6bMo0xxsIWiBvNBcOblESaxLHEV2aB3eGLtxT51pv3TN8GrbA4rVpB8o/J5Oq9p+gxaxOu3X8mU7TgaKIKTm1XAcST0JFTp04hc+bMusA2nPIDgCwAzuvML9HRdfB5ACwAICo/5JdrvXr1MGHCBJBGViJsF9l29DL6zvdRX7OG2J8FlvapiRQabExs2yJPNNtoDAncAuY4+FkbDqkPZUNsb4GwTqFRr1gWNCyVHSFDyKFrHz1/o/rIfU8FPVBM7aJZ0L6SnPDo6Ss/tJ+8NkgpwDMkjY3ZnauIsfT5xPD0zta4GTNmmPMAbQdQlJcz5yKm6Oo6eMIyrQeQy5RJAo4h687UqVO1+OF36PVkAAAgAElEQVTPXHuAHrM32R02s9QGwXX8lpGNEM1FXtnNqm62zxgfbqY9GQTlGN28NOJGl30k8+rT1x5UJCaGBI0FcqZOqIiCdOon+PtYs+8cJnvtC3Ia2SJZU6hohFT4Ed9yghdOXL4nVbXIeGIR9K2rVyvEBdy6dQv58+fHzZs3dddDp14RwBrdC0j0dB089eYBqANA9CmaOHFikDu3aFF+wMjkzuOXGLaEWMa3ZIrGaKtbgNGZA5NaIVQo0eOg1jVj3UHM3XQUX/QLVqy+P3uagMVNzOXG0qiin7h6Lxb6HLen7fxWa4kS0RldqrmBaHA6cuXuU0W5evqaNnOZzrT/0UmbOBYWdK+mdS2mGXacvGpOiFtrXioliRMVE1qV1fo4pv60adPQuXNn+PkRQl5LLgBgBNwmxBu6Dp47I+DNBAAiOK2QIUNi+vTpaNiwIUIIw1TsB53ifQArdp7SsqyhZD0LuIQPix1jmmpNQHQrz12n7QL8QmsDNlYy+uBtbHALT0cmtpblciOiRsscU5UTV+/D8p2ngjSlFTWiM3xGNdGyzJgVu7DcN2h+7/VLZEOjUtnh7CSD2eVG2ftepUoVbNy40ZyPExbXDWTdpJbxhErmOHg2PLMxU4wSQOKZAQMGiPPw3Bsf7Ele+4yeaeGNtvbwxLGiYOUABnTk0meuD7Yc+cuAIjbRdESym9C6rBZDGSNgq3YbxE0mmtoqwxLFjIyhTUpqtZlxQaeu3EOfeT6499SqHVa/3Dsdx+4JzeEcRnS+U9dkofRU7wM2T8lFjxQOA+oXA9MkOkJIWubfCVGrKYRiJQ0kEexsIuY4eCI2kDUgkXSlhQoVwoIFC8C2OakcOH8TI5b6guF6Q+zHAqyeZxW9jrSbvBb7z96wfsWJzuLsUIdY9JPblhdjgXMr/RdsxfoDjBIaElQWYB6YPPFV3TJpMZh9+vwV5BTwOXopqLag5l3RrxaSxpGz5G0+/BcGLNxm0wgEHR1beEndSyQ+qbx//16hsI4aNQokmdEULwBtANzV1BermePgORkr6etKZ40ZM6YC6CfwjVTYP8mXVFAVaUjX+7uMd8+VSn0dS4VFNy3Ge+HklaApupGu1x7GZ0gWR9HFElFMKl1mbMDOE9roW9LpjPE/scCf8aNjRqdKiOCsh2x3/PJdtBjnFaR1K+Nbl4FruiTie8y1k7bYlrgXEZyd0KxMLlR1y6j1UXXx4kU0b94cu3btEu/XX4FJ+54AploTmvb7xZnr4GvpMOEw97506VJUrVpVbCxWkg5atE1RDtoDYYF4A8FUoUGJbGhVnrUjMnnx5h3aTvLG+ZuPZIq/8WhGS6aSD17DBnQKR/66raFpqFjSAuQeJ7Vy8ex/al3285cv6DJ9o4LwDirpWt0NVd0yiKe/8+gFqg9eYtM0KwtTeQBJHk8ecSAVrKenJ5o0aYI3b96I9+uvwMKxFgAO6F5AR0/nHRFwHmIVPpBW0vMCrVq1Uqh2OrJk+wnV7uNn0IvqmM8qOt1quIHFQ1IhDj05ylkdbEjgFmB4N3/6pBjTUg+Fq87QZUHagxz4Dn+fEcniRgOxI0Lo8MgCuHznCWoOWWpOwZdZxq5TNAvaafTCE7SsSOdZNmOPJLBNBdd06FK9gJatyRbXrl07LFq0SNdebI0jJSwL07XL73UmN9fBc05+mYjf7AzPExFIB7aR4Vw6BYImGGIfFtCFrjx7/QH6zvPBrUc26RqxD2OZsQo6g+I5UmJQg+JaVynXez7uPgm64iytRQdjpfGty8I1XWLtHXaath67ggj4pnCW5IqNTUfK95mPO49t8xxGCh8WY1uWQcZkcXSWinPnzqne92fPtNH3eHrp5J/S1lqDrpIlHPxE/8IB0RrYLnfjxg2tQru37z6iwUhPXLtvnPpERrfi4MU9ayBVQjn5BIvrhi7ZaYAXmXhvQoT4Q+URO1fNb6LG/4YpDO0O0+H33mrslOI1/e4K+dInwfCmJREmdCgtU+w9cwM952wKknuaOlFMLOpRXWvdrSZ44dAF26SK+AFFB8/fjo7069cPAweys01biK9OAhabFdd9W6nejv+9T5ZOr9LZOuH+mjbV653uN38rNhw0qoF17G5pHb6cvAbVRczI8upUVtSOXbkHz4xojEm3hTSXTdxzoHEpEVuzujZTWvnbTTNpHmOQbSwQNWI4DG5YDDk0W7eevnyrwL+CAr6Wv/c1g+rBKbS82JPQ1Gv2nrO6kRnxmtS2nHZr3MuXL5ElSxZcu2YWPPBgAH2svtkfTGAJB0/+w70AxMe3UqVKYcOGDVr7pnOnkzck6C1AEo2FPaojcoSw4sUs9z2Fad4HQbZAQwK3APOJJPqolF/egcLW0vJ92PhiiL1YgPezdO7Uqn2LFKZSIfrj5sOXMGbFbrzysy3HeuQIzvDoVR2xokSULhuzNxzCdBtwImRKFhfTOlTQ6jjhpubPn69A2Rj90hS+2NIB0G6e15xXqVnCwZMfngUEYuxZZ2dnPH78GOHDy/HLH794g5Ld55qzd0PXQhbIlDwuxrUso4XMRZja+VuO2bQn1kLbDpLLOIUKiaFNSsAto5yWl7UrjUevDJJ1G5P+3AJJ40RFj5oFkTmFHrsZAW9GLPHFvnM3bGpml3BhFB6DDjve2v3nFW2stYU1AqwV0JFPnz6p0/vZs2ZR9C4DwG6zIGFIs4SDJ5JdL/8eP7Ed2Q9fuHBhsR4Vqg/2wJU7Rh5ey3gWVCqWLSV61ymMcGFk8I88fRCmduUuA1nN1NvBdMisTpW0Xqo+Ry6h55zNpk5ljLORBcgsxzZTsszxA05HiPA5ba1tI2HhwzphSOMSWkWChy/cQssJ1uVbISnT9A4VQRhtHfH29ka1atXMAbYhPWZ2ACd05reEjiUcPNlFKvtXCIot2bt3bwwaRHheuUxdewBzNx6RKxoaFrVA7SKZ0aJcbnGh0Mu37xX95ZYjQYvIZVFjWPlixNBmvUP0SPKo1/wtRzHZy2YomVa2RPC6POGH+9QtrEW3TEvcf/oKveZssSkJjXOY0GAvfJncqcU348aD56jcX7vtLND5+NHUqnxu1CiUSSs8T9z5unXrYvXq1fiqT4LlSwC9QBdrxQGWcPBcXm4AjJenkq6Vp3eC9zs5yTGN2WLVcKSngWEuNbqFx3esnA9VC2YE84kSuffkFYYv3Yn957SpFyXTBYuxLGxaN7S+Fp/4MI8dWLXHrHBjsLChPW4idMiQaF/ZVdVWSH9H3/ZDfBAS0diKdpnRpGZlcqJusaxik5I4zK3DdOintn89ZZLYUTCgQTHww0lHiFjXqFEjXL2qjfpIMhmy8czXmd9SOpZy8MSjnwSgjHRhKVKkwLp16/Dnn3JEJz4kNQcvBeFrDQk6CwxtVAJFsqUQg0hcuvMYwzx24sx1YiUZYooFzMH8bzNxDQ6cN6iWTbFzUIwhS+CkNuW0SIS43mev/dB87Gpcu6/dry3aduiQIVC9UCYtsBs69oIdp1uF157tcNXcMipoWkLUSoVY8/3798f48eNBDHpNOQ2gCoAgDU9aysETUHkIgA5SVLsYMWJgwoQJqFGjhtiOxDFnu8WGgxfFuoaCZSwQJnRIjGlRBrnSyBmaiElNbmuG6wwxzQLVCmZQfOJSYRVwpX6LDEAhqeFsOJ7wtd1rFESFfCy61hNCePeZu0VPWajF9brnSo2+dYsINf8eXrHvQqs8j3Gju6BrtQLImz6JVhX5mTNnFGvcvn0kS9WWoQD491b7ChZQtJSD51IaAxgBIKpkXaFDh0abNm0wevRoMaoduZHJjGWLakzJnn6nscwFj2haEhmTxRVve++Z6xi8eAeevAzS34B43UGp0KdOEZTLm0a8hBev36HKwMV4/vqdWNdQsJ0FYkWNgDUD62nljblKnozrDrMNHDFRSAtmSoaRzfTQ7BqMXIEz1ywbvSPqLztMBtQvinBh5ad35tvZGkcodTNO78w5EuDFx3ZPzo9nsqSDzwtgFgBxxUXp0qUxa9YsxI4dW2yPczcegnSjJC0xxPYWYIvPwAbFtVDsWFxH4qD3H5muMsQUCyzpVQMpE4ghJ3D+5kO0nrAGr/wMvAFT7ByUYzpWyY+ahTNpL2HnyavoPWcLiPlubWHkbnyrslp1A+0me2PfWcvW37B1j5jzJXOIy8GUqR48eICWLVvCy4vMrlrCdrgVANoDeKh1BQsqWdLBR/ffmLhqMF26dJg2bRpcXV3FW2MP6OBF23H4om1gD8ULDOYK5CZniI6OXiJkAly95wxGLPO1WqGNZD2OMJZVy9tHN9VCDtt27DIGLtoWJJCmjmBbe1pj4lhRMKV9BcTS4C3nPnjYYVRz92nrM81lSxkfo1u4a9He9pnrg02HLZtezZA0Dsa1KgPiz+vIjh07UKlSJbx4oc2Nwb7tHv6HXZ0lWFTHkg6e12KhHUMTooZoFxcXlYevV6+eOEzv9/4jZq4/jMXbjlvUMMbFTLNAtj/jo2etQkgYM7JpCv6jyAW9aNtxTPO2KXuiaI32Njht4lhY0L2a1rLmbz6KWRsO2+RUp7VAQ+kfC7A6vWnpHKo6XYeMi/gS249fwchlu6we2SSBy/CmpRBDo21z9PJdWLaTXGWWEx42yuaRp7C+rYCodfPmzTNnQYf9i+vsoprVkg6eRqkJYAYAESg5H+JOnTqhb9++iBhRBnvI4qF1By4oqEZW1RtiWwvkTZcYpIolXK1EiIs+Z+NhLNhCHgZDTLFAFbf06FZdHCBTlx6wYBs2HLoARk4MsW8L8KWcPmkc9KtXBIliRdFa7OMXbzF6xS7l6K0pbEMb0qg4Egg/8LmmmesPqT9LCQ8ZJL0KF1Z0vvxneuLNZ8qUCa9fv9ZdEnMixJ0nsEuQINd9v3BLO3iWUvONzXC9SIoWLYqZM2cicWI5deKJy3dVP/XVe7ZpDxFtLJgPLpQ5uWI2iykMJxJ7nqf35b7sJjHEFAsMqF8M7rnkucV3Hz6h47T1OGKksUwxs12MYTqmWelcqFUkk9YpnptgRf34lXusSqudMn4MVdCWIr74lQ/27Y/13GMxe/euXRjlXdNqX69x48aYM2eOtj6AN/w2A2BbzOBfrNjSDp5T7QaQT2qlWLFiYe3atciRQ86S9fjlWwxdvAN7zlg/5yTdV3AfXzLHn+hQOR+iuhCx2HR59fY9JqzeC+99501X+o1Hhg4VEot6VEPyePIX6Y0Hz9B7rg8u3nr0G1vQ8bbO/Hb3mm5IHFtW3/Jtpyyo7D/fB3vO3DCHLOWXhksWN5qKNOgAyqzec1a1yVpCEsWKrAivCJ+rI1euXEGaNGlA/HkzhF8H7CazG7GGg+8GYLjODpn7IDxgiBAyRDSGHSd57VP5HPbGG2I7C/BE2b5SPjE4B2FqJ6zaC5JOGBK4BYirPaF1WcTQoOTdd/YGRiz1BQtSDXEcC5Bdrn0lV5TLm1a7bc735DUMWLAVr63E1pgkdlTFQ8FcvFQ2HrqIvvPM7yQj8l/binlRrWAmsDdfKl++fEHXrl0xduxYqWrA8Ty9E9HVrqAi5dYI3AQMUZyUAt7wsvXr1wc54nVga7cevYxRy33xzOjzDfwOWXCEroN/8ea9Ch+uP3jBgqsJvpcqkyc12D4V0ZmYUjJZ4XsaU9bsN2pUZGazi9HsUiHOhA4lKzfAFtS+87ZgxwltyNVf2oE1Ar1qF0IWDSY81gd0m7nRbDsTAXBgg6JIGiea1rXOnTuHKlWq4MIFs95FbI3Tq4DVWrVpStZw8Kxw4LFMzNGXNGlSnD59Wos+lqeTNhO9cfOhgYpm2q23zCh9B/8OYz13Y+OhvyyzkGB+lW8c8FKc8o+fv2Dqmv1Ysv2kwdnggM8I73fHKvlQ1S2j9uov33kCgspYA2+ChW09ahUCIZSlsvPEVXSZsUGq9q/xtE+jUjlQp2gWMOIhFQLbDB8+HEOHDsXbt9qAW34ASgPYKZ3f2uOt4eC55skAWkkXz2r6gwcPauXhWU3Ph4UhKUNsZwFzHPy4lXsMmGETblXUiOEwsEExLTjgh89fK0pe43dhgqHtdEj0yOHhNaAuWHinI3w3Mh22eJvlWUtZPd+zZkFkT5VAvDTWTHWYsk6sF1AhRbzo6FGzIDJopAh4ncuXL6N58+Zg/7sZstY/9/7YjGtYRdVaDp7YhesBORQwcyEjRhDxVi7kFWc1vSG2swC54HnCkNKXsgBostc+sNDGkF9bIHPyeOhRq6AYTIhXJdIj0QKv3CX+hiGOaoGGJbKjRblc2hX1j56/QaNRnrj/TLsF7Iemix8jknKwOVPLuSgIVd3eDAfP03vFfOnRobKrVo0CT+8LFixAx44dzQG2IYQqsV+WArC7AjBrOXhizvJzUYw9S1Y5gv0To14qtx69QJX+i0GgB0NsYwG3jEnRuVoBxI4qwy8gZsGMdQdV6NiQn1uAUa0KrmlVEVEEYf6dJzffU9fQf/5WI//u4A8ZkdlmdqoEVq3rCIuP+Vubvu6gRQuRzTnB7z59DR2n8hyoJ3GiuagWPZ38P2e8d+8e2rVrh5UrV+ot4G8tnihbALDLXKO1HDzf9gsAVJBaji+0kydPIkOGDFJVBeJRZ+gy/HXH7iIl4r04ikLuNAnRvWZBxIseSbRk9mbP23wUczcdEen9boPp1FuVy43KbhnE4TBikS/yOa5e6oY4tgVIgcoPPRZaEulOR67df4rBi3bg9LX7Ouo/1GEOvmftQmBLn1R2nriCLjP0i+xK506tUDSdQoWUTq3aBjds2KDQU58908ZPYeX8MACjAdglypq1HDyP320AjBFbnhx7Q4eiRw/C+cqFkJyT1+yXKxoaWhbIlDwuCDCROLYMcYvFX0u2nTDuVSBWTxInKsgglyGpOBiG52/eqdM72+QMcXwLMBzeiwVtGvlu7p6neM9dpxV63Jt3lvFH/N3z98/3gFTY+dRj9iapmhrPdrh53aohTaKYWvrkfK9du7a5p/czbP4CYLc46dZy8DR6IQCeUvpYKubLlw++vr7ifnjq3n3yEuV7L4AByKn13IuVCLwysH5RMcMZv6C99hLowqiZ+JnR+ePMky4RRjQthbBO8pTVnScvUX/4crAl0RDHtwCdWtm8aVVvvC6gy/2nr9B/wVYcu3TXIgZhyoD47+RJkMq6A+cVhLKOlMjxJwbWLwZGNnTk8OHDyJ8/P+joNYWIODP9WeOsT9unuUg965g22Z/+jDpiVLv48eNjy5YtCllIR2oMWoLLd5/oqBo6QguQ8WpYk5Igi5NUfI6SLnY7GK435L8WYCi2WZmcinRER2jfnrM366gaOnZqAeadWdSWO20iccrm25ZY2Dpx9T4QLtpcIQBTf37gx5dTGDOaQAAmqTg7hcLKAXW12fYIbFO2bFls3KifHgDAqlV3AJYD05cawoTx1nTwTMoSeJ/tcqJ5IkWKhNGjR4PYwDrClpBFW+02aqKzJbvVYevO2BaltcKGB8/fwuDF2/HAwpW9dmss4cKiRnTG1PYVtOBpOVWvOZux5cgl4azGcHu3QLk8adC2kqs2JSrD812mr8eRv+6YvVWGyAc1LK5FirNgy1FM8pKlU//4A6heMBM6Vc2vvfZdu3ahYMGC5sL3sjKvKmDfwWKR4xValNdm+8BIACKqsVChQilUu6lTp2pV0+8/dxOdpq23aLWocO+/zXAWRY5sWgpumZKKW3gu3HyEYUt24PxNAyP9Rw+Ma/rEGNuijFYYkl0K5fsswHMD2THY/RYjhw+rcBHypJMTc30zxqELtxQB0YeP5kWXFV1sk1KIETm82M6EF5eyScaN7oIRTUohtWbu3c/PDzVr1oS3t7d4vQEU2BpHWke7Pr1zvdZ08Lw+w/PTAYhj7czDz58/H0S3k8qdxy/RZfoGI0wvNZzm+O41CqoK35AhZRwCRB9kiM4oAvux4Uc3d4dbpmRad4XANp2n67cgaU1qKNnMArnSJMSE1uW0sNe5yM9fvmKYxw54m8kFke3P+BjTvDTCO8tJXgYu3Cbiogjxxx+oVTQzGpfKoV2DwLB8gwYN8OiRWYeK1f6nd7vre//+AbS2g2fT5mIAJaRPPmljJ02ahNKliQAoE4KoEHt71W4WORpibQvUK54VTUvnFLfvkBN+1DJfrDtgFga0tbcXJNcn9vjqAXUQRgN+kwvmB+7Ok9bBHw8SgxiT/ssCBHkZUK8oiudgqZOe3H/6WkHYPnmpDdGKvOkSY1yrMqDzlQp74NkLb6qwYp8tuVlTxIfGdAqKtkWLFliyZAmYh9cUFi64AXCI3lP5XZFbhSH6tgBELBkEuhk0aBC6dOkirqZnhfb6AxcwxGOH+lI1xLoWKJwlOfrVLYJwGlSNszYcxrzNR/Dxk/YPzrqbC6KrNyqVHS3KkpxKLs9f+6Fs7wVG8aLcdA6lESWiM7wG1kMEjdMzN0pAsEVbT2CK1z6tRDIr2N1zplZ0sTpCzJILJlIYc65K+dKrDgLdj14fHx+0atUKpIY1Q9gZ1giAZSEBzVjQr1Rt4eDLAiBPrpjIulq1ahg3bhzixJFXaJ+6eh9DFu8AwR0Msa4F/kwQA9M6VIBLuLDiiVgERtKZp6/I12AILRAhrBPmdquqBU1Lfa+95zBy6U58Mj5ug/0D1cQ9Bxq750BIIcX2N8PcePBcUbaev/lQbKvQoUIqkpeW5fQ+RIt1mY1nr0373RMDgP32TAnoyMuXL9GnTx9MmTIFhKjVlJcA6vrDsGtfRHNuLTVbOHh6Z/ZCpJSuMGXKlPDw8EC2bNmkqsphjFzmC1ISGmJdC/AEsaJvbcSMEkE8Eb/ge8/dgpsPDBbAb8Yjvj85tsNpkIu8//gJveZswe7T182tEhbfS0PB9hYgktzgRiW0AV8YOWMqk2iHLMyUiLNTaFXNXt41rURNjX338RMKtJ+u0EcDE57ey+ZOg6413LRR6/bs2YOGDRvi6lXttBUX6uXf9347sDXby3+3hYPnHEsAVJdumrzws2fPVlWPIUPK4Aj54MzZdARsxbAGTaJ0L8F9/JR25bUIJ96++4j2U9fhxGXLAG84up3ZdtinTmEUyZJCq3r+9NX76LdgK24/euHopjDWb4IFCNNaIV86BWeskyLjFLcevsCwpTtx9OJtUaieH/Yjm7kjhway3rX7z1B1AMuzApeI4cKodtHUCfVQ6969e6eQUSdOnGjORy+BVQivOp81ioGv2j5G2MLBc6e1ASzS2TJ74cePH6/FEb//7A0MXbLT6LPWMbxQh0V2/NORsZ57sHznSXwx4Wte5/qOpJM5RVz0qiWH/uUeWXvyDd/f+Kh1pLtu3loTxIwEdrLoMLpxZh6GiCrJwmQWKJsqkSM4Y3HP6mKiKV5/x4kr6GoiDn3NwpnQrlI+7Y6Bc+fOoUCBAnj61Kx0LSE3GwC4aap97GGcrRx8ZADsSxDjbSZJkgSEFYweXZzCx4u379F2ordWfskebo4jrYFf8fzK1pFdp66hx6xNID797ywMRTYqmQMNS2bTor989OKNajukPQ35vSzAArRW5XPDJby8DoaW8nv/EW0meYO1S6ZKoliRsbJ/HTH+Ba8/e8Nhk0iQIkcIizWD66u6FF0hoczChQt11alHUpl+AMaac5Gg0LWVg+fe1gGQ97wB2Lp1K4oU0avU5Atv1Z4zJuV6guIGBJc5mS/eMrIxGGKWysu371Gp38LfHjOdbUA9ahREVo1CIiYID5y7qXqbLc35Lb2fxnjbW4Cn6SGNiiNHqoRaLWRc8a7T19BtxkaTO4+IBz+4YXGtzfKDfuuxy7/UZeEgaZJrFcmsNQeVTpw4gRw5cuDzZ7Oi6ucAFCPDrPZCgkjRlg6+JgAPnX02bdoUM2bM0FFVxUbdZ2787U+HWsYTKo1vVQau6ZMItf4ezkrejYcuaukGByW+zIpnT4nuNdy0cqnf6HcZomeo3pDfzwJEkxzUoLjWRzat9eXLV3SbuRG+JkaAulV3QxU3PVrvKgMX4eaDX9eJkMBmZLNSICaEjjD3XqtWLXh5sTbOLOmsy4xq1qwWULalg2c1/Wmddrl48eLh0qVLCBcunHjLr96+R43BS/HwuUO0LYr3Z08KFfOlU/zMOkJc7JbjVouKfHTmsVedSOHDonftQiiYObnWEm8/fqFOX5fuGCRLWgYMBkosuBvYsJgq0NSV6/efoemYVYpqODDx7FcbpDOWCoF1KvZdCAJd/UwYEWxXyRVl86TRSlfxuuR7JyXsixdmFZwyzODqn2KWbjXIx9vSwRPoZhmA8tJdE++c7HJFixaVqqrxw5bsNFDttCwnU2LLzpLeNbSoTZl/rzds+W8LL0w+7Ymty2qd3tXL7MAFDFq83eTwquzOGqMdxQLMi8/vVg2sPNcRxn4mmkDWRRZJ78H1QUQ9qRAHv8PUdb8Et8qVOiG61XBDgpgs35ILnToLtNesWWMOah3NQVCbefIV2IeGLR08+9xID0dserE0adIEM2eSflcuZ64/QIMRK+SKhobIAhGcw2BUc3dk18ghc6Il208q0JvfUQY1KIaSOVNpb73Z2NU4dsl8djDtBRiKdmEBxfBVJieauOt1tHATV+4+UQ6YULY/E/dcqTGgvt6Ba6HPMUz1PvDTj1F+nLDtr1L+9FoFfFyzp6cn2rdvj3v3zEqbHwHAkCSL7BxSbOngaSASW5OEV9zQmDBhQpw9exYRI8rzMcxJVuy7CAxjGmI9CxDZqlbhTGhVPq9WoQ9JghqN8vztUO3iRXdR1ci0n478desRag9bBiP1rmO94KcTO0pETGpXHkliR9HaHAFvWOXuse0Evv7goaLTGN60FAhRLRW+i3vM3qwAyH5UK0KM+awp44MfvDEiy4GzuJ6HDx8q575sGQPG2kLUHx5IWTfmEKh1P9qprR18AgBTdarpXVxcsHjxYpQpU0brjk1dcwBzN/ODzBBrWlo02z4AACAASURBVCBryngY1qQkokaU10vwxUIKSSJr/S7OiiQdrFvQQQPjfSSeeNfpG7Dr9HVr3lbj2g5kAebiefptVT4PwmqSFTGMPtRjB+4+efWfnUeJ4AyP3jUQU8MBP335Fu2mrMPFn2DQhwsbGl2ru6F0rtRaFieJDIvqWrZsicePH2tdw19pO4AmABz6h2VrB+8MoCuAPgBExxWSzzRr1gwTJkwQk8/whrG/s9UELwPVzpxH3gRd8jWzupYsU1LhF/3+czcxePF2PH6hz3AlnTcoxyeNGw0zO1UCOb515NyNhyrqYZAq6Vgv+OokivU385puuuzFm3cY57kHm4789Z8WY3PIpfjhQI4QUkX/SPjeGNq4hDYdLJ06c+9r16415+Yy1NuL7foAZPi95sxqBV1bO3huoSKASQDiSvfj6uqqqP4SJGAgQCb8cuw6c6MIyEE2gzGaFuDpoUGJbGhQMrtWAQ4rbJmH9zn66x7Z4GLtb32+OmQhDJ8OXbwDa/axTdcQwwL/swCL33iKb1YmpxYJFCNobFudsGrvvwhhGHHqUaugqm7XeWaZfyeDJNs6vxdGG/ixmyZRLO1buXz5coU57+dnGonNTybaAaA5AId/CQWFg2fshU3t+aR3kY6deMLly4sL8dXJnbj0fLgMsa4F8qRNpMJsZICSiqL6PXgRE1fvxfPXgbfqSK9vT+NZIcx0RqoEMbSWdfnOE9W3fMvAndeyX3BXYqX7kMYlkCmZ+CylTMPfX8ep68Ai5W/CvP6ABsW0nPCbdx8wavkubDx48YftsAS0YWucDrc810cwm8yZM6taLTOEoYX+ACY4cu792/6DwsET6ox5+IYARD0WoUKFQrdu3dC/f3/w36Wy7+wNxVz2WoC3LJ3DGA91YmCFLUFvWDQjlZdv3qPXnM04dPFWsM3F0y5V3TKieZlcWi1N/BBiIdQCn2NG2kn6gP1G46u6ZUDbiq7aufgl209g4up9KgXEnzJrRVpXyAviNkjlr9uPVcvy2QAfDN+uETeaC+Z2rYLokcJLL6vG8/dAKtg2bdpo6QdQOgmgFADTMXvNndGK+hqvX4ushtWJIwCIURLc3d0xadIkEKNeKuQ+HrZkB45dMpjLpLaTjq9eMBNalMulnUsjTzyLfKQUltJ1BtX4GJHDq1oFt0zJtJbAUztzmUZrnJb5fhslYrnP7FgZSeOKX7XKRoSRbjDCE7cePVdOvUOVfFoFcHTATLsNX7rzPwesMKFDoXX5PKjslgGhNfrquc5bt24hb968uHPHrFZR9r3zC2FKcHlAgsrBM0zvDUAMuRQ/fnzMnz8fhQsXFt8DchBPX3sQy3acUtXHhljPAmz9Gt+qrBbSFVfFHB1P8YQaDm5C4KZ86ROrIiidSmQ+u+sPXMCE1ftApEZDDAv8ygLVCmZEl2oFtI20dv95DF60HQRjIpWxDvgMP9Rnrj+kWu++FxYC9qhVCATK0pFPnz6hb9++GD16tLmY88cB0LEEm37qoHLwDNOzSZEFdyIhL/zw4cNVKCZMGDlak8/RSyA9KYu5DLGeBSwBuHHp9mO0GO+lThHBScKHdUKT0jlQq3BmLSAPPrujl+/CtuNXgpNZjL1YyQI8eS/qUQ1xo8trYrgkQsp2mbYemVPEQ4OS2bSK6+49eaXqRS581x5HkpyW5XKhbJ60WkW5XN/+/ftV5fyFCxfMsSCr5dmD7WPORexNN6gcPO1Abt25OgYpVaqUOsXHiCEvTmJ7Rs/Zm3+YB9JZi6HzcwtEcwmHVQPqIoKzHtUjw3pEtxu3ck+wMnOCGJEwtmUZregGY4jH/rqDLtM34PU707m7g5UBjc2ILVCveFa0qZBXrPdNgRwHYUKHBNvvdOTA+VvoMGXtv9o5WYfCgty+dYogmmbu/fXr1+jZs6ciI+NJ3gxZBaA6a/XMuIbdqQalg48GgOWZ4mq58OHD4+jRo0iVSg/ak3kgr73nFHuSIda1QIuyudCoVA7tSd68+4geszfiwLlb2tewN8VSOVNhYAOyT8rl05ev6vROMCBDDAuYagF+bC/pXRP8Z1DIoEXb4L3v/L+m5um9T51CKJBRrw6FFyOVONlGb9y4Yc62iMlL3tsD5lzEHnWD0sHTHqsBVNAxzJgxY9CxY0cdVew9cx295mwJtgVcWkaxkhJ/xPO7VdVqmeOSeIo/fvkuBizY9lNwDCst3SqXZQvQ5HblkSOVHMuBC3rw7DVqD1mKF8EsbWEVYxsX/ccCLGRrWjon6hTNghAhbPvaZ4qN7HHfp9r4oduvXhGtkD839vTpU3Tt2hVz52oFgr/Z5guAOQB6AHgW3B4Z297p/1qP7QjrAdWBIZLcuXNj7969Wqh2PBU2HOmJa/efiuY0BsstEDLEH2CRD8ODuljrzAEu33kSC7YcB3tpHVlYzezRs4a2Laas2Q9yvhtiWEBqgQxJY6N//WLaxWzS+b6NX7ztOMav3PsvdfboT21fQTvkz4utW7cO9erVw/Pnz3WXRr1rAFowGMDzhDkXskddsWO18CbY9MjKCPFxxsnJSYXp06dPr7Wk6esOqj5iQ6xvAVJY9qlTRFXh6srD528UqtaOE1ccGpaVAEDsTdaRZ6/8UGPwkt+OjEfHVobOfy3AWhie4om/oEPzqmNTdnnUGbbsX5j2/OjvXqMgKuRLp3NJpfPhwweUKFECvr6+2tfwh6Hl6b1ncKqcD2iQoHbwXAtR7Zrq3KUuXbpg5MiROqogc1mlfgvx5Wuw+2jTsoc1lfgyKZeXABl5ENFZ3vnwbW1X7j5F91kbQTwDRxSX8GHhPaieFrAN97ty12kMX2rWC80RzWas2YIWYEsa2zN1i+WkS/Heew6DFpO35X/imi4xBjcqoV18yytNmzYNbdu2Nbctjqd38r0H2x+VPTj4Ev4UsuK1xIkTB9evX9dql+ND0nrCGhy8EHyKt6Q/PluOjxEpPHrWLoR86eUARQHXefzSXbQYv9ohP8zcc6XCgPq6xXVf0GikJ87ffGTL22bMFcwsQPz4ztXyo4JrOquf4gkP3nK8F05f+x8oXATnMBjd3B1Z/4wvz8v634tHjx4hefLkYAW9GcLcO5P3zYJjaP6bXcRO1QyD/kyVJZRrAIjjNeyD9/T01KaQ3XzkL/SZ6/NDXmIr7PO3v2ThzMnQpbqbNhzlNwOu238Bo1fscqgiSUYx+GIjfK+OkGWv33yfYI/Pr2MbQ0dmgeTxoqtnUYcrwtSZSFaz5chfGOO5+59nlh8XlUmAU1aPAIdzsxWuc+fOipPETGEHV/7gQCjzKzvYg4MnfNFgAK2kN4ygNw0aNMD06dPBf5cKAUNYbPcz6kLp9Yzxv7YAK3kJz1o2bxqzTEVc7LmbjmDZjpN45SC8AmkTx1LEMsTclgpb48Z57obXnnP49IUHD0MMC5hngYYls6NFudzap+jAZn/60g8jlvnC9+RVkPWQwg+L7jXczKrFYc6dhXWEpjVD2B9N2vIxZlzDIVTtwcHTM9cEMBmA+O2XKVMmdYpnyEYqDCFN9tqHZTtPSVWN8ZoWYMEdIWx14C4DTkm+6vlbjmHN3rNgV4Q9CwE96hfPBr5UncMQxFEmrDkYuHArTl/7H6uX7ArGaMMC/7YA21cntimrxQoXmC3p0Lcdu/wvxNBwYUKjbrGsqFMsC/ihryMMzbPuaunSpeaC2uwHUBLAj0npdRZnpzr24OBpmiysmwAgRkQhmh0L7erXry82MXus9565gT7ztti9kxBvzo4V8qRLjFHNSmn/0L9tjREYnuSJlc2PNXsV1h+QQztf+qRa7HobDl7AuJV7wY8aQwwLWMoCWVPGUx/bOh+dv1rD45dvMWbFbmw/fuWf9GeGZHEwrHFJsD1OR75+/QpyvRP75MEDsz50SRRfFcAGnXU4mo69OHi2y433r2gUrYnEHY0aNcL48eNBhDupkJVrmMcOHPnLLBYi6bS/9XiCvbStmBe1i/K7zjzxe/8R41ftxeo9ZnFAm7eIQLQJx9mthhviaWCBk9p4ivd+hVznH+m06lqNi/8+FiAuRbuKeVG9UCaLbZqHpp0nryla7o+f/vfRPbFNOQVLqys3b95EixYtsHnzZnNrphYBaB8cQW1+ZFuRM9W9OSbqsV2BFLKEsBVJ9uzZVdtE1qxZRXoc/PHzF8zdeATzNh9xyMps8YbtRCF21IgKrjVz8rhahCsBt0F2NcK3rjtwEe8/moVHbXHrOIUKibrFsqBpmVzgh41ULt15jP7zt4JY4IYYFrC0BZLFjYohjUsieVzxa/eHSyE/QpuJ3v9wffCRL5M7DfrWLaK99C9fvmDWrFlo3bo1+O9mCHnCGepl395v0R8tf+OYYd1AVAksvxyAGAUkQoQIiiO+Tp06WsV2e8/ewMhlviDjkSG2sQCdXc7UCdGlWn4k1CSwCLhSnhwW+ByDp+9pEBTHXoRFdb1qF1J7lcrXr/+HTYcvYtCi7Q4N7iPdtzHedhbgKb5cnjSq4I6sc+bK91gNSeNExcxOlUFeel1hK3Tx4sVx+fJl3UtQj4U6MwH0BeCYQBoau7cnB8/KC/Yl1gIQQroXVtOPGjUK0aLJv0SfvvLDwIXbsP/cDSMMKjW8GePDOoVCxXzpFBmNJV4uzMNvPXYZi7cew7X7z80N5Zmxs79V+eNiv+/IZu5wCScH+CFEL0k6th4168Vm9j6MCwRvC8SIHB5tK7qiaNYUZvfGL/Q5hineBxSRF5HzmJoqmUOPFIxW//z5swrNz54929ybQMRU9rwHL2rKQKxiTw6eS60EwAOA+G2YMGFCbNy4EWnTphU/CDz9Ldp6HLM2HMa7D/YV4hVvxsEU6NibuOdEFbf02qQTAbf84dNnnLp6H7M2HMLJK/eD1MmHDBkCTdxzoLEmm97tRy9Qf8SK/5B0ONgtNpbrABZIlySWAmEyF+HuxZv3GOO5C5sP/YXSuVOjXSVXsGJfV9auXYsaNWrAz4+1cdpCAotxAAYAeK99FQdUtDcHzyq5SwDEoOUstmOYvlUrcTu9um03Hz5XqEv2FN51wOdJa8kRnZ0wtHFJ5DajCCfgxAxtP3nlhylr9mHDwYtaa7KEEtuBFnSvqvp/dYSnoYmr9+moGjqGBUQWIMMc2d361ysq0vvR4Kv3niqMiuLZ/wQr9flu1hGyxZUsWRJHjhzRUQ+oc9Uf1OaeuRfS1GfrAPFeIgJwAsBCgpf++PdvAViNt1zP8pq7NFGN4PJdTBz7r2F58+bFnj17tB+oXnM2Y8sRfl8YYmsLhA8bGrM6VUaK+NG179+P1rzx0EVM9tqPJ6/ego7flpI2cWzl4HWEa60yYLH68DTEsICtLDCgflGUzJlKqyA04Bo/ff6irsEolo6wLW748OEYOnQo3r6lD9QWOtM6AJZqX+HHivSdTCt/+2ORAcPHrCHjP/8EQNjKWIFEpNn7ehPACQCkiSQDGk8l3DQjD2Y5f3t08IQ5OwZAXJVBNLsTJ05oM8wdvnAbrSetsbkjsPCD57CXSxY3mqq2TZ0wpsU4qwm6cen2Y3hsO4FDF27j+Rs/m9VZ9KhZEJXy67EdHvvrDpqNW+2w99JYuGNawDlMKIxrVQZZU8S36Ie2xBpMmR46dAjNmzfHqVNmg5CtBVDBTEdJPxnOH4gtEgD+xfZ35IRYp0NPqeOzfmAXOnRW++8EsAUA+39v6ILy2KOD55p2AHCTPBTfxrInXrcgg1+dzHn+dfuxztSGjpkWII1k5hTx0LZCXqRKFNPsU0TA5ZC2cs+Z69h8+C8cu3RXtUdaUwgesnpAHcSIrAfswda49QdZF2SIYQHbWiB9ktiKGCqFZmrJ3NU+efIE/fr1U+/xjx/NQqkkni2d+3HBmhhCZ6U282r84wmcf/H9ac3ZzM+TeUz/OlrBpcVD6ez5EtgEYBuAg/6hfZMvZI8Onotnr+I8k3cRYGCUKFFw5swZxIsXT0cd6w+cR/8FtKUhQWGB0KFCIEeqhGhfyRVJ4kS16BJ4MiBNMEGNGLo/c+0B2ENvDcmeKj6mta+odelHL94ojoQHz8xiy9Ka21AyLEDshuLZU6JludzaH6i6VmSfu7e3N1q2bImHDx/qXoZ6RNlhUd0o/1B3wGvxqztKAAfO0zidOP/JP/435sz5x3/nnxxj2pzV/1uXe2EYf6s/4utpUy9trw6eDHM+AJKaupGA4yZMmKC4gnWEJ73aw5bj3hPWQBgSFBYg81r2VAnQv24RRIskRycMbM0kq2Ex5b6zN7B85ykQzZDO35LSuWoBVC+UUeuSLAwcvnSn0dGhZT1DyRIWCB/WCY3dc6BqgQwI46SHHa+zjmfPnqFs2bLYt8/s4lIWr3gD4FcCy/gZVufJnCdvFrvRYfOPJ3Z2bfGf3/50lm4LHebkCbk6HQDp9AINb9irgyfpzHAALXSsljt3buzYsQNhw4rT+ApQZMa6g5i3mfUOhgSlBZiLn9K+PFzCye+jqesm8h0LKxdvPa4cPXP25vp6Vs8v7lUdSWLLIxCcv/ecLYqs4xsLl6l7McYZFrCkBQhOM6RRCRVR0yyEFy9n2LBh6Nmzp1jvN1QgxTr9Iz9gfno6sVcHz9JL5k4YpufXlkjixo2r8jdssdCRU1fvodO09WBPpyFBa4F0SWKjV61CSBo3qkX65H+2G4bqj1+6iy1HL+HcjYd49spP3X+dEH62P+NjaKMSiOrCuhyZsMWo7zwfow5EZjZjtJUswMLXUc3ckTAWo9XWlePHjyN//vzmVs1bd5H2c3UWERG0p4d/9f0P2bbs1cHTjKn9QxH5pTYNEyaMQj9imwX/XSpPyYbkuRs+BoKY1HQWH89WGzr59pVdkSFpHItf//sL8tT86PkbhaV96tp93Hr4AvefvcLDZ29AYhtTAvkNS2RHw1LZENZJnrZjbcD4lXvw7LXBHGf1m21MYJIFcqVJiD51imgzwZkyCQvratasia1bmWY2xEQLsIBoN4DeAEiB+5/Xkz07eOZN+vsz/zA3IpI8efJgxowZSJeOXQwy4alt3f7zmLB6H8jmZUjQWYAPKIFiulZ3Q+YUYvwjsxZOZ//4xRvce/oa95++wj3+PXmlHP6zV+/UKf+V34d/nfIJv9uvXlEUyZJc3GZEFL5paw9i6faTWpEDszZrKBsW+IUFyrumRbuKroioAbkcmGFZWDdu3Dj07dsX794ZH7aB2eu7/06nTufexr+X/l//2Z4dPBdaBsAkAGKeQRcXF/XQkCc+RAg52MK1e08x1GMnTl4NKvAj4W0OpsMJc9m/XhHkSpPIbJxsc0zEX9GnT1/g9+GjKn778OmLosN89/ET3rz7iDfvPuDt+09wdgqlCgSjaxQHssJ/xFJfHDjPgllDDAvYjwVYdFe/eDbUKZbF4r/DAwcOqIjr6dOnLV7saj8WtOpK+HpiK6C7f07+n8ns3cEz8bMKQCEd89SuXRtjxoxBzJgsnJQJT2+TVu/Dsp2nwP54Q2xvAfbFj2lRGnnTJRafhm25WhUXC1CZpwvNyfa9fvN8wDY5QwwL2JsF4kSLCHaHFMio1dz0w+28ePEC3bp1UzVTRK8zxCwLsPCuWsDqent38NxtV/9+RnEpNYvtVq1ahVy5cmlZ7cTlu+g73wf3nxr9yFoGNEOJ7GudqhaAey59Jiozpre5KtNC3vvOY9iSneCHDSE+FX/8/0FV03/+8gVfbAy1a3MjGBPatQX4OOZLnwRdqhVAnGhsdDJPGJpfuXKl4g8h7rwhZluAfOfMx0/1x7tXjJb2LsT0JbKdVgJ2wIABqu0iVCh5LydP7r3nbsH241fs3UbBan1RI4ZDveJZUcUtAwi68TsIqW7X7j+PI3/dRoxI4RV9LvfO6MCHj5/x/M07PHn5VuX9H798C1Ics6XTEMMC1rYAPzjjx4iEhLGiIE3CmCibN61FCu6uXLkC0nzv3bvX2lv4na5/CEBTAAoMxxEcPBPoCwDU1rlLqVKlUqAJUaPKe5I538HzN9Fm0lojN6RjfA0dOrZqBTOiesGMcAkvDtpozGgfKiSXefH2PcI6hYRzGKf//DCZAXjz7j0ePH+Du09e4urdpzh/8xHY0mm0c9rHPQxuqwgX1gnpEscC2z4JX8tiV9bEWKonftSoUejevXuwC807OTkhevToiB07tkoPsx4sQoQI/xwymYp48+aNQuq7fv067t69i0+fLEZTzirFMQBI2vbaERw8fzc5ARzQ+SBhgd2cOXNUsZ2OfPz0BS3Gr1Yc44ZY1wIEiKmYLx0alcpuFoe0dVdpH1cnlj5P86zqP3jhlgLroeM3xLCAuRbg7zBn6gSKPjZVwpiIHTWixQvruMajR4+CTn79+vXm8r2bu2Vtfdbb8PDIgyQ7tlKnTo0UKVIgWrRoyqmHCxdOtWrT6X8r9iZqJjH2yZLHGoTbt2+r9sAVK1ZYKlVxBkBdACcdxcHzFL8LgKvOnaDRz549q1VNz/n2n7uBtpNISmSINS1QLHtKBWrDil1DTLcAU0k8xa87cF5B7zJ8b4hhAR0LxIsWCZ2r50e2lPEVRK2qA7GS0NHxJLt7927V8bRr1y58/vxDvBYrrUB+WTpqOvDMmTMjZ86cyJEjB5IkSaJQU5kGDh06NMhqKim05YmeDv/Ro0eKHnfBggV4/94skDXm7joyF2+9uye3XWAa1QF4AJD3vAHqK9HdnV0EcmF4tO7wZbhw85Fc2dAI1ALM8eVIlQCjWpRG2NDyWonvJ2AvrYeHBxIlSoTs2bMjYsSI6kf3O8i1e88wde1+HDp/W7XwGWJYIDAL0Ifzo9o9Zyq0reQKnuCDQi5cuKCK7viuvnHjhuqJp+Pjn6W5IgLujydrOudvDvrbP8OHD49kyZKpU3n69OmRMWNGdVLnydxaQsfOd9fAgQPVyd6MfTPi7e5IDj6G/ymeCHdiIYHB8uXLtfDpOdna/ecwbImv0TIntvyvFUgskztNQvStVxRRIhDbyDx59eqVarkhpjWJK0qXLo3q1asrR0+Hzy/s4C7E1+dJ3nv/edx++MIk9L3gbhNjfz+2QMgQIRRrY60imVA0a0oQqCmohQ798uXLKoRPp3/t2jUVumZIm39+fn748OGD+mPumqd+/n1rs+PpmR/0/PvmuHny5h/D5Txt88/Z2Vn9kYE0Tpw4YNcV/+LHj4+ECROq/y8o3hfsLqCT7927t3LymkKEtpyO5OCJOUvc3b46uXgWPCxbtgwFChTQshdznb3mbMaZ6w+09A2l/1ogRIg/kJPUsJVdkTRuNLMrPvnFv3jxYgwaNOhfPwye4NkqWbRoURQpUgQZMmT4LU70BMxZuOUYjl++ZyDjGT/A/1iAjjBTsrhoUjoHsqSIZ5U8uyXMzlMsP9bp5PlP5q0Z2qezD3jK/xbe577omOnQ+U86c+bC+cdTOd8HLHz79sf/LgmpW2JPgV2DHy6TJ09Gx46MtGtLH0dy8FxrPv+K+sTSLfNmN2nSBGPHjlU3XiostiPozbS1B4xTvNR4PxjPH5TCmK/kqv7JML25wvBely5dVHjvR8LQGvNnWbNmVZSUJLaIFIksksFT2Dd/+c5jzFx/CPvO3jScfPC8zdq7SpUgBnrXKYyUCWJYNdeuvcDfXJHRSL6nWJugKXvNf6tqzqypxjD9aP8KQfElsmTJgpkzZ6oXvI6QZYxAJBdvGbl4HfsF1CEqVt86RZAlZXyLOPf9+/ejYsWKqvUkMGHYjl/vzK+VK1cOVatWVY4/OApPPzcePP8HdtmMnF5wNM9vuyf+/qa0q4AEMSObHTn7bY1og43v2bNHHUQ0xc/RHDz3yX439vmJG9sZimH4tn379trAN5O99mO57ykDZETziaMai3iGNSmJ/BmSmHGVv1WZdzt27BgKFSqkwna6wo++atWqoVixYkicOPE/4T1pRazu/NbWo5P///auA0yKYuseCZtIS1hykhwlS845SAZBQUGSiBJVUIIiGUFBEERQkagICCKgkpMgGZacM0tYYAkLCyz83ylm30/cmeqe0DN77/vmW3xT1VV1qqdvV9W95/T4dhFOX7rm6qbk+hZHgERKo9+rh3xZ0li8p9I9xhtwYXrw4EFDYHijg88BYAoAvtZo95/nsBMnTlSrNyO248g5DJq2HKcuyoPSCH7JkwQqVap6pQ3FSj7RJINRNm/ejI4dO6o0SGcYV/fZsmVTZ/Z0+oygZU4rt/JjCCuseGbnyNhDj4Whz+QluHDV+IuQI+1IGesikCTQH+83KoP6ZfIhYRxhibTubNjvGQMOO3XqhKlTp9ov/JwS2g7SUCvOrcQ0OcrIfghAO+yaD+nvvvtObcsaSZ0iwcjIX1YrWlGyj4k5jgApaNvUKoaWVYqYZsOKWblTqIJ5tHT2rjDGazCqlqt6RuEzWJMsVSS3YLBOTCQunT6jblnOyvbX5oMYPWetor4Vi1sIMGK+evGc6Na4LEKCXZfqFbdQde1oGTjIlDnuPBsxb3TwHCdF3hcDyGxk0K+99pqKtqazN2LMh3/36/m4deeukepxsg51pN+oWgQtqxRG4kD9IMenQeOWFSNMly9frvJk3WnMm2XAHiNy6dj5EsB/t27dWh3/WNnIaz958X+Yvmy7iNdYeaJc0LcMqZLh4xYVUSZ/FpdFjd+/H620EvgCwRRYMXMI0MGPGjUKn3zCBDJ981YHT9aSiQA66A8Z6qG8dOlSVKpUyUh19WAcOmOFyjMWs48Az9wblsuPDnVLIjixeX75Gzdu4M0338Rff/3lTA5n+wOJpQS39RctWoR8+fKZuo47Kh87fwXDZ63C9sNn3dGctGEBBOhsG5TJh57NKzidyIZCSQdPX8LGvSfB1MzbUfdQs0QuNK9UCHyxFzOOAB38Z599phjujJi3OniOlat4KuYYGkPt2rWxePFiw2+yfEtt2G8qou65ZmvYyGRasQ7T4coVyIov9GHaGQAAIABJREFU2tZwyo+d+aFNmzbFH39YhzqYL4xMZSFtpTOMke6UiI2RmCeGzCJ0Vq4ur79g/V6Mnb8BN2+TD0PM1xGgiNPEHo2RK2Mq00ONuT8Pn7mMPzfux6qdR5+J6yDFLXXjezargLQpEjvt3jXdeS+7AHcnmd49bdo0Qz035BwNteSaSvMANDZyaT4smYJQtmxZI9VVnXG/b8C0f7aboRM03LY3VCQFZsGX02FY+1pIkyKJ6S6T6IJbVZMnTzZ9LWddIDg4GGPHjsVbb1HbwZwxpiP8RiTWhx7Hoo37cfDUJSUZmydzCMoVfBnFcmdE2uSJkSyReUWvi9duYujMlfh3z0n1MiHm2wjULpkbg9rWNDXIe9EPcOHKDfy796Ry7PtO2k9JTZ08MdrWKo7S+bIgJDiR03cPTA3ICyozM4gBv3v37jXUW2938KUBLAOQyMjoyU1PBR8yHBmxE2FX0HPCnxJR/wLwXsmWDgPeqoasaZMbgfeJOpcvX8bo0aMxbtw4xWBlBeM5fLdu3dC3b18VbGfGoh88AHkWZizbocSNuO35tDG9qVS+zKhaNAeK5MxgWpRn6eYD+PKXNbgeKat4M3Nn9bokkZrUswkK50hvuKuRUfewascRzF+3F3tPhGmnCefPmgaVCmdHsZwZkDNjKgT6+yZl9M3bd3HlRqT6baZIwhdxcy5248aNKF++vOEgYnOtG75dnFaRB7q/AGhg5IpMfWKwHfnKjRgDlqYv344pizdr3/BG2vOmOnmzpMaHzSugUHbjD5WY8ZLRadKkSUpa8tKlS5aAgRSYzZo1w/Dhw5EpUybTfdp68DS+XbhROfnYsjP4g6V8J2MaGpUrgBRJjb2cssM3bkeh14Q/5Sze9OxZ+wLclp/2SQvDQW9UK/xhyRYs2LAXlyOMv1xzNypzmmC1q0eN+SI50oMrfG+1qHv3cfHaLZy/HIEzl6/jzKUIFWCYOjgxXiudF1nSBJt28JQ5p7qcQbvr7Q6e/adzn2UkZY7R0GQ/+/HHH1XKkxFjRP3QWStFae4x8DKnDkb3puVRtkAWMDXHjPHMncILffr0cYilzkxbjtblWzmlIsmnQF77GJ1nR+s/XY5Ovf+PfysSGkd3yxMH+qNhuXx4p/arSGoikGnRv/swcNpyo12Xel6AQOf6pdCujvH4EDr3n//eCq7inWHUoAhOHAjuSJEmt2SeTGpHKnVwItMO0Rn9e941OHbqkZy8cFUxQ3L39uzlCHDFzu/4YXBh/ixp0K1pOeTNnNrwC1VM+6GhoShTpowZAq/93u7giUUWAJMAGDpgYm4zt32ZOmfE7kc/wE9/bcVPS7eAOfJx3agI16XhIyIN/pDNGoPXSCcbERFh9lJOqx8SEqKIJxioaXYL7mTYVXT6ah4uG9BwJ75dG5VFq+pFDY/t7r37qP7RFEn5NIygtSvy/vyl/xvInj6loY5yZ6nHt3+6THpYBZDGe0nRVWcKSYYiOTIoZ8/jvTTJEzvlGaIz8BuRUWolTiKz42FXcOxcOJh1cuHKTdx/8EDFW8UEwD5N+1wqb2YMblcTyRIHGov8fqyj5PVo0qQJFi5cqNP9p8tOM/8ENtO8c+pS37ATgJEAtPcreYO1a9cOI0eOVLKBRow3wRfTlqvt1bgcrhTkn1A5m3dqlzD99koiG8pFMk6C5+9WMUbMDx48GL169TLVJa7UuQIY+PMy7Dx6zuGV+9ON+iWMj7Hv10eJ3MaPCQbPWKGi6sV8D4FcGUPwXY9GSJpIPz2VK9JPpyzF+j0n3R5IzKNrrvKzpEmu+PLTJk+iHH6KpIFgRkDSoADl/Bmtz2f400fd/H095P/49+FDdYR66/ZdXL8dBTrxiJt3EH79FsKvR6rPpYibCAu/ieuRd7RuAradLBF30wqAOyVmdyzZOJ99jA3r0qWLUs8zaHRFzXzBwXP8BW158YZC4sk+RnY70tga2W7lTTRj2XZ8t2gTeC4TF415ts0qFsR7Dcsg0M9cAA1vcIrHtG/f3jAHsyvmgFrS7777riKeIKWtGTsffh0TFm7E8u1HTKsTZgoJxoTuDZEupTHipq0Hz+C9sb8LM6OZCbVoXea+f/h6RUNBbczmGDZ7tYqct5rRsfJMny+4/Pu0Y6VTZ9Q/4wfUJzra8Ev0i8b+KMMlNV6vXAiVC2dXfXGGMWL+vffeU1leJsShzgEo7isOntRo/QBwWWV4Fc8Ht1H5UL4FfvjdnyDfd1wzvknzQdK1cTnTue68ockv//HHH2P9+vXqbdYKRlpjMtUxkp80tWaMK4gflmzG/HV7nHau+Wa1Igp/I7K7ZGR8c8hstTUp5lsI9GxWXhHO6LLK0SlSGnv2yl2mX0B9C9FHo+FuZZ1SedCwbH6VFeCMlTuvSzXMzz//XAXWUevehE0H8J6vOHji8AoA5sVTjEbbuD1P8pRy5cpp142pQCan7t/+EecoQKsVy4keTcurLTSzdujQIaXpTpY6d1PQvqjvXC0wRoPHOLly5TJ97v7rql1qt4eO3lmWNU1yDO1Q2xCRCR/mPGJautmYYpWzxiDXcS4CfPH+slNdVHglm7b2w7nw6xgxezU27Dnh3E75wNV47NGudgkUzZUBFM9ylkVFReGrr77CiBEjzMYcMdXhHQBzfcnBM1ybMrKGycD5EDfDkMb0pkHTlyuSkrhiRXNmQO+WlZAtfUrTgSVXr15VZ9vTp08HKRqtYiRDGj9+PAoVKmTauXM7vMeERSri1pnGYxEK+RiJlib18i8rd+Lrueuc2SW5locR4Bn2l53qqKA1Xdt19LwiQjp6Lly3qs+WZ+5+04oF0apaUeXYef7vTCNbHY8ATa7c2aUVAN4FcMS5PXTmaI1dKxuAUCPb9DHNkaO+Vq1axloHcC78BjqOnoswC55bGR7Ucyry3s6aNoXKdS+Z15DmzxNX5dsrVZOMci47c2wx12I8RokSJVQ6XJEiRUw1wYgXBmO2G/Ubbka6RhyHlMD9WldFqmT6vE+b9p3CB+MWmjnzM4WPVHY+Ai+nS4FBbWuoc2JdW7njCAZNX+HUXSbdPlilvL9fAuTKkAod6pVUKX3xnSyiw1Rg+h3yajhh15L7+p8B+BrAfV9z8LwnGE3/kdGbo3Dhwli2bJmSBDVijNact3Y3xi/Y6PRVmpH+uKoOCSq6NCiN2iXzmH6TJTPdhAkTFA2tq2RfdXHgOXuFChUUuU6OHIZOfZ5o8sylaxg8fQW2HnKdwEuODCnxyRtVUCh7Ot3h4sCpi+jx7SJF1CHmGwgw1ax/66qgo9cx7kTOWxeqZLEd5WXQub63lGXQXLZ0KVC1SA7UL5sfKU2QSr1ozJGRkUqk6oMPPnAGiRfXEZsAdAawi236ooMnddpGo1KyZCgbNmyYkiI1muPMCOlRc9Zi7e7jPrkiCvBLoPKvG1UoiIQm32bv3LmDKVOmKOdO3mVPG9PgKBrTvHlztGrVynDQ5ePjYADm5D//U0c3rsyy4JYsj0uqF8upDePpi9fw+c/LwK1ZMd9AgPzvfd6oBMrE6hhpkqf+tRVTlmzWqeYzZRkwR8deodDLqFY0pwqic4Xxeffbb7+ptNvjx53iK5ju0B/At1y9+6qD57g+BTDEyKTQqRctWlQRmRQoQME6feMb8Jrdx/D1b+vAYBVfMkbjdmlQBs0rvQJuXZkxnrPPnj0b/fr1w6lTp8xcynRdzju34enUa9asiZw5c4Ive2btzt17mLc2FD8u3YqIW3o5trptM4L+w+YV0awS4031jPfpkBkr8d9+z86DXq+ldGwIcOXZ6/UKijpVx6gwyBTOOasp1hm3jIHC9UrnRfmCLyNHhlTgYsYVxpU7FzbMyjl9+rSzFoLUZWkJ4H+BE764gud85AEwx5Yfrz0/XMX16NFD6fAy99mIcaX2zfwNKhWKUcq+YLxZWlcvqs6izIpFMB1u+fLlamuKkfMm8j1NQcu5pkMn2RFX7lSHMzrnT3eEY9q0/5Qis7kcEWmqn45W7tW8AlpUKay9NcddpyEzV4Jn8WK+gUDdUnnQvUl57UjvazfvYMzcdfhzU9wJFiYRUNMKBVC/TH4Vw+Iqx847i6m/XNQwcPfGDadxDHDFXgbAlsfvXl918KRt6mpbxRt6BcuXL58KrqKSj9Gtekpyvv/NQhVc5e3GiNFqxXIofWcjQVxPj3/fvn0qr3z79u1ug4ZBc1yV04HnzZsXLVq0UHSQGTNmNDzHsXX+wtWbePereTjtxvxyOviWVQprYyoreG3ILF+hQdlH3BRkftOxqzdv46s5a306bZKOL2GC+EiZLAi1SuRWZDXOeK7FhjMdOyWvO3bsiAULFuhMib2yXEH2BTDi6YK+6uA5ThJ0TwRgSGWBTp1sQjwf4arOqK3ZdQz9f/oHkXdcEzlttF869bj1S6lJ5robich9uq1z587hnXfewd9//63TDUNlKSLEgDnyxzOHnSlvDJ7jC5wR1kJHO3Hx6k30++lvbHdhUN3TfSGz1kevV0Sj8vpHS6TNZdQ00/jEfAMBqg1+0LiMonXVsas3IvHlr2vwz9bDOtW8oiwJaujIyfpYqVA2dc6eJrkxoTGdATP17b///kP//v2xYcMGZ+5YMt+W/C9tATxzBujLDp53NaPpPwagdwhlm7nUqVPjp59+Qp06dXTm8omy3Kb9dsFGTF+2zWsJcF5Omxw9m1cAxRSM7mbEgELnzuMPci0729i3oKAgJd9K+mF+6NTz5MmD/PnzI0OGDCAjnavt0rVbGL9gAxZvOuDqpp64frqUSdCnZWWULZBVu10JstOGzPIVjDp46pl/+csaLNvmGw6e0fBZUidHtvQpkDtTiBKyoZy1f0JDm7va885VO2ONuCO8f/9+Zzp30nyuBdAFwL7ndcyXHTzHmwvATHLyas+KrULlypWxZMkS8KzWqF29cRsU9OBq3tss0D8BPnurBioXyWaajpE3et++ffH999877SZPmjSpCojjipzb7tmzZ0f69On/9zEzb0bm6trN20pdkIF1jEZ2p5XKlxl9W1VFuhT6KxJKYPb94S8cPH3JnV2WtlyIQH3bFn2w5hY97+HRXr5FTwllBsnlz5pGOfWMIclUNkGyxAGm03p1pozxRUOGDFF57pcuOf23xSCJDwH8ExM1/3TffN3Bk93uAwBf8shFZ2JiylJUhOQrpE81akxODD12XtGB8kHqLcat+f6tq6HWq7m1uayfHiOjRknB+PXXX5sKLAkMDFTR7tRj54ercx6hJE6cGIkSJVLn62Z3GYzOD7WhZy3fjlkrdyqdaHdakiB/pWbVtAL16fV/1sfOXUGfyUtx7Lz3x4u4E3crt/VamXzo1risUmXTMWZ+zF65Ez8s2Qr+2xuM5DPcaSz4cjoUyZleOffgxAFIHOCHQH8/bapes2Mmn8evv/6qeOVPnDgBktk42Six+QkAcs6/kPNa/0ng5F664XIMg2fSf26jbdHJh4aGKmdi1KIfPFCSnGPnr0fkHadPttFuvbAemeo61C2JjvVKmr420+EonkABGR35w0da0fGQNm1apb1OKuEqVaooZ241Y6bEb2t2Y9zv/3oka6JSoewY2r4m/AxuOx45G47e3y/ByQve8wJqtXvAav15u2YxdKpXypDKGZ9XO46cUxTGG/acRHT0g//Jr3pinDEv7Xwu0WkFBfipbfb8WdIqYqeC2dJqBxO6Yhw8kqW8NVftkydPBhc2LjBuzTMV/JmguqfbigsOnmPmIfpcAHqvso+h1bBhQ5Ubb1RtjpdiHjTzSxf9uw93LZw6x2Ct6sVzoXuTctopNk/fYIwcZTDd+++/j2PH7B9RcAXOgLjMmTOjatWqKoWtePHiTktdc8GPDUwrIvPXlMWbPeLcqZlNuVgzwUKHz1xWaohnL/sWb4Mr5ttbrsl0yffql0ZQgKHNy/8N83LELWw5eBrbDp0Fd3ooksSVfdT9aNy990iO9X50tKEYI+42JYgXT+0Q8sPIdn4eScEmAI8ImcefNkUSZEiVFJnTJEcW6sOnSOKxnboXzX9ERISSeB0+fDg2btzoKiXMazbNFfK8cHM4VosrDp7j/Jlp3PYAedH3jMTmVj2jv80QoJy6eE1RQFo135g/slfzZEK3JuWQPX1Ko3D9r96WLVtUWsjOnTtjvRa33kkwVKpUKVSrVg2lS5c29TJluuMOXICERofPXlYr9z827MMDD/B68rx9ULuaKJydBI7GjWfvvSb+6fMaCsYR8r6abWsVV5wVdJbOsqh70bgccRNhV27iyvVIMCCPCxc6/ciouzaH/+B/Dp8rWnohrry5G8djP+XI49ORxwNFkrgaTxTgp6Sm+WHMQIqkQUiRJAjMTzcigeys8TpyHfLHM92XgXQUyqJolouMWuTkmOeRs13nzj7EFQfPsTJt7lejcrLcIiIRyrhx45QAiRnbczwMn05ZqoRprGS8GXJkTIWPX6+IQjnSmw5GYcRo27ZtVXrIi4zn5hUrVkSDBg2UU8+dOzf8/PysBMtz+3L77j2sDz2BOat2YfexMHBL091GRav3G5ZBg7L5TTctXPSmIbTUBbgy5ur97ZrF3Xb+zN8Adybv3eOK/oH6TTywuSE+W+LFf+TgSW+dwObgnaWj7gnw+fLC8/VffvlFUc7u2LHDld04B+ArAN8DcNhxxCUHzzB4SskOAmAoP4KOp0OHDhg4cCBSpjS+uuWNsePwOfSevASMsLeK8S16aPtaYDS22R8e6Rfbt2+Pf/5hgOezxrd5BssxZY556Uxhc2VeujMx5pzNWL4dS/47gPCISI+s3Mm09XaNYnizWhG1AjJr+09eRLfxC3HFQvej2THF5fpcGXdtUhbNKurTFsdl3BwdO1ftTPWdNGkSdu3apXQ0XMjGeRHAFwCm6Tj3uLaC53jz2chvKjg6kU+XY571zJkz1YrTTLQ2X2xXbDuMz6cuw5177k2net7YuYU2pF1tVC+Ww9S4eO3r168rCtpZs2a9UNedLHajRo1Sqn3e4ti5A78u9LgSEgq7ch3coveE8eWrTsk86NZEP0L6Rf3dd+KCkot1NV++J/CKi20ycr5ns/LqPhFzLgLbtm1D9+7dsWnTJqV+6ULHzo5zBdjGFkOmvU0Yl1bwBItpcx0ADAWgp6H42D3CnGvmNTIQzIwxT3ruGgqRbMb1yBdmOphpwqG65JV/p3YJ8MzOrPFNdsyYMRg5cuQz6XB8IUqXLh0GDBigdkK8wbFzq5F5wTxW+XXVLhVo5Imz9ph54dYriWxIaENhDGfZ3hMX8P43C0T/21mAevg6DEIjq2HFQtk83BPvb54OnJzxe/fuxXfffae25J2g224PGK76yDTUEcB6e4Vf9H1cc/DEIY1NTq8hAMPRJ02bNlWELcmTJzeKvarH4BQ6DuademL1lDjQDw3L5kf7uiXBf5sx5npy1f7pp5+CjHVPG9nkmAtft25dM824pe6tO3dBdjduXa/YcQQ7j5xzO3HN0wOlHgCdO1kFM4XoSYDaA40vMO+NXeDVlMr2xhiXvs+aJjn6vFEZxXNnjEvDdvpYSc61detWpdn++++/P/e55vRGH52xLwcwAMAeM9ePiw6eeFUCMBtAWqPgcfVJtTnqmJuJqmf7ETfvYO7aUEz9eytuR7kvR55nt/VK5UGbWsW1JSWfhxvV4cjff/jwsxSXOXLkULz+TDd0llqb0bl7UT0GBVF0Zc/xC0oXfe/xMBw9F26JlEYGJ9UongvvNSxjiKnOHlahx8LQecx8j7/E2OunfO8YAtSM6Ne6KvJkCnGsgpT6HwJcsZ89exarV69WMURr1qxxp5w16e5+ADAJwElHo+VlBf8kAgyyo/rO52bua1KikpmtefPmZi6j6nLFSO5nasjz36425po2Ll9AOfeQZIlMN7dnzx6FAyPnnzZyB/Tu3Rtdu3ZVbHNWswtXbmDroTPYcuA0jp67AqoAUlHLU2fsT+PDuXqtdF51hEKRDFfY7mPn8e7X81Wak5j3I1AkR3p83qaGyh0XcxyBgwcPquC5FStWqGcZ6WVdfMb+eOfO2ghsFgFwSq5dXF3BE1RG1W8EoK+taZsSnimThGXChAnqr1njCpKpV4Onr1AOxpVGlqsOdV9FgJ85Egz2kdvx3HZ/Ua4709+4vZUmDU9HPG88Qz914RrWhx7HutATapVO4g6m+FjFqcegREGMJhUKoG2tEghOEuiyvFbuWHQaPQ/3PZDu5/k7wvd6UCZ/Fgx6p6Yl2N2sji6V3lauXIkpU6aoVTv/m2fsbnTshGgzgLcBHHkRr7wRHOOygydeZQAsBWD4NZdOvmXLliqojKleZo3OhxKjY+atB9nFnJlfzb4mCfJD59dKo1kl56TPkJaxS5cumDdvnooofdqYWvjDDz+gVatWZqHRrk96TTptrkojIu/gwKlL2KZW6qdw6mKE9vXcXYGCGU0qFES72iUQ4G/+RSy2/jPGoOPoeR4NIHQ3vr7cXtUiOVTKKznaxf4fAT6j6MBJIUshmPnz56vPqVOn3O3Q2SlGxfNBNAXAQG7kOnuu4rqD5yq+H4BethW9IXx5pswtaArSOIsn/eCpS5i2bBv+3XvSKZHNlEzMnTEEXLmXf+Vl03nuBIqMTV9++SXGjx//QgEZHmNw+95sMKIjExN19z6u3bqtqGMZ+X7m0nXFNHfg1AVFsRnpxvgGR/r7ojJ8EcuaNrnKcX+tVF63PKS3Hz6rHLyY9yPANMoGZfPh0zereP9gnDACZvZcuHABYWFhOHLkiEpvW79+Pfbt2+cqOllHes1z2K0AxgNYYEuHc6SeVpm47uAJVk5bVH01M8x+dGAMuiPnurM0x0k6snL7Efy95SBCj4cpdigjFhKcCNWL5ULdUnmQI0NKpzj3O3fu4KeffsIXX3yhfjgvsjZt2qhyrjAGJJ6/cgPnLkfgbPh1nLv86HM2PEL9dbeimzPGyJTF0vkyo2XVIuA5qrts68Ez6gxezPsR4LFO6+pF8W79Ut4/GM0RcFv91q1bOHnypNK+OH78uHLqPFvnh8eJLlB20+wlzgOYBWAGgN22lbzuNRwqLw7+EatdIxu/bxaHUHtBIZK2MA2MfPXOMm7Znwi7gn/3nMSfm/bj2PkrDp8TM0q+SuHsqFMqDxhVyy1fZ9mff/6pXmb4Q4rNmErInHdn2fVbd9TLDuV3qYB2KeKWYgNkzII7MxCcNZ7Hr0NeeTKP1SiRS+W4myFS0u0ftRGYBy/m/QiQkfK9BqXxeuVC2oOhOBRXtqSMNpsdpN24gQrccr948aLabmdQHPtOx87/jx8GyblI0c1Ab8EUKR4Jf2uL/3KYctZIY6wjDv4RclSZGwzgPTNb9bwQiVxIX0hpU2caz5Ip7MDz+WVbD2HT/lO4d//ZFT2JUBg5W7lIDlQvmhOZUidDokB/p040t9wp33rmzBm7Q1y2bJkSjzFjPEMPPX4ef20+CK40SQpEkiBi4uZAGDPDiLUu6YG7NCiNbOlTgiswdxr5+DbuPYmu4xa6s1lpy0UIUKDlk5aVUb04Nyf1jLtxxYoVUyReZcuWRZkyZZRGBJ9rnraoqCj1zDlw4IBy5CSe4Yfb79xRjPlYYIX+PKgYIU+RGOqhXDCb/uboXIiD/3+kyGy3GIDpfa28efMqJ88fiKvY2hj1TYEQnjPzvJmpVKmSJVIKcJlTB4OO3tlGZ8q3Yzpsiiw4Yhs2bFAPCaO2++h5jJqzRhHOeIYY1mjP7dejqhYZx959rZRatZPIxhP2yMGfQNdxf3iieWnTyQhQiW1ou1qGSG54Pk2H/rRlzZpVOf5ChQohT548IK8FXwK4yudOE59z/Pv/uu0vvpeVwpxNeZF/uWsQ8/9RcvX8+fPKkXN7nc8bbrEfPXpU5abTyXuR8afFDq8A8DGAfe7uu2eeKO4epePtUSaO+5SmDz/p3BlZX7JkSaedyTs+DOeX5I+QW2CMmF+7dq3DK2eqLJH1z6jxRWbB+r1YvOkAToRdBVXcvN38/RIgS+rkKtiRKXDUu/akxXDs95zA9Fsxb0eA99P4bg2QLZ2+IBZpWJkV5Igx1oixRzyaJNdFkiRJFM8Fg46ZPfN0LBKd+P3795WT5mqbW+c8L6d2BR07g3b5//uIMTo+1EZYw1W7Rx5c4uCfvZuYi0jNXVMctHyTrVSpkjqTNysv6+kbPuZcrn///liyZIkWDzOV98g9b8aYKkjnvmrHUfy3/xT2nbyIKAsI9OiOKcg/oYqFIH1opcLZkT19CqcEPOr24+nyysHvPoaeE/80eympbwEE0qdMimmfvA4KzujasGHDFNW0mGEE+Iay3bZQJFuq/XNMw03ZrygO/lmMGIlGljtuqZiKSqOT53bX6NGjUaqU6Z1/+7PpohLcHmMKIAV2dN+wOW5u0zvjqOLe/WicungNB05fUmfx2w6eQdiVG5bO3eY9kDo4EUrmzYwSuTMqB58pdTC4PW8V48pq7e7j6CUO3ipTYqofPKab1a+loZfHjh07YvLkyabaj8OVuQX/M4C/ABwA4HpKUjtgi4N/PkBUaBgBgHtVpjDiAz5btmwqV7xWrVped+8zCvX1119XTtqIghJ5Af79918ULFjQaWNnZsHNyCiE34gE+QI27TuJLQfP4MLVm05rw+yF/BImUA69cuHseCV7OqRKGoTEQf4uPWen4hV3W7hdqmN08Nwd+fj7JTrVpKxFEWDA5viu1NLSt6pVqypWNzEtBJhKNAHAbwCYM+xaGlKNrplyXhrteGPRYjbteJ7Lmzay3I0dOxaNGjVyymrWdIfsXIAPfQa5VK9eXQW6GDWew1Eb/quvvnJ52tfpS9fw375T2HLwLMitfuV65KPgHdV5BvYYHcWL6zEu7iW+A74EJA70R/FcGVClaA6UzZ8VSZyYlmiv50xXjLm/ypcvb6/4E98To5U7jqK3OHgt3KyiXbMVAAAgAElEQVRauGG5/OjXqqqh7jGYzl7qq6EL+14lPk0uA/jORlZz0YpDFAcf+6y8bkttyOSMyUubNq3a6n7rrbdUYIpVjcEvDKTr2bPnc8VjdPvNiFuS3TDw0F253Vzlh4XfwLHz4Th54RpOXriKM5cilCRvDH3tvehokM42+sFDRQnMf7MeXwSU42Z08EsvgUpupPxMED8+EiaIB78E8VUqW8qkQSpjgaltuTOFIAdT3Pzcm+LGXRWmLVLFjyt46lUbcfArth9Bn8lM0RXzdgSYldG+7qvaw2DwG4Pknkc5rX0x36wQQy3Lc3WmnPwIwPjqxw0YiYOPHWQSgPew8QST1ta0ccv67bffVg/kfPnymb6esy9Acghquo8bN87Uyv3xfjGVpkWLFhg+fDhIXetJIxkOqWyv3oxExK0opX/O/4/R+fzLc346fOXY48dTjjzALwESBSREogB/JEvkj+RJgpA8SSCC/P3Ui4Cn7MqVK1iwYIFiUGRaUf78+TFx4kRDDv6frYfR9wceHYp5OwKft6mOeqXyag+Dqa8vv/yydr04UOG+Tbp1hy3ljekmzGu3vHnw8WR5bGI6yBym3gD64BHrnWnjtjVzw+nkqY8eEOCUdwfT/SJ5BLnlFy1ahPDwcNPXe/wCKVKkQPfu3dWH6TRixhHgljoDH7lanzZtmmLrojHOgQ6eOyU6xuv9s+Uw+v4oDl4HN6uW/a5HY0M58ORn1939sSoGTuoXmea2AGBQAtXedgHgj80Fh31O6vFTlxEH7xiu9EhkuvvAbNDd483xXL5Zs2bK6WXJYool17FRvKAUmZ9mz56tUvoOHz7sMq7mlClTKu56vtiIGUOAzpgBj1y1k5TkcRpOOng6fV1iIXHwxubCqrUWDHobGUP0Ai05Fp0ceKuO3Qn9Yr76HgBcpdOxM4COgXNemaAvDt7xOyItgDEAeC7vNONqnsx3Q4cOVZrqzkgn0+kcWaKY375w4UIlo+hqIwHGN998g06dOrm6KZ+7Ph0xGRKpXMjz9qdpesXB+9yUaw+IR0b/juuimC11bdSoUSpGKA4aV+SHAMwFMAfAQZsmO8/cvWa1/rx5EwevdzfnsgXd1QbgVIFuOvY6deqgV69e6iyVDFEJEjjlROCZEZI9inSQv/76q1rxOcIprweT/dIM4ONY06RJ4xNMf/ZHbLwEX7zIv03SIL6IvcjEwRvH2Fdqpk6eGEuGGRO76tatm3r59mGLoY6l7jq33xkgtxwA80P32py6Tw1fHLz+dFKiaRiAmgCczlYSGBioUtMaNGigGPBy5szplDN6RsZSlIHn7MxzJYUsV++eMq7ka9SoAT5UeGbMcYs9iQBz2qmSxZgIrtyZrhibuI44eLmDKDE8+UNj1NBNmjTB/Pk+JRlMh37ddm7ONDYGxnGlzrP0bQCOe/sK3d4dLw7eHkLP/55OfjgAlzHXMBCtQIECKF68uBJ54Kqezj5p0qQOp5qR95kCDVz97dy5E1u3bsV///2nVuxWUGHjrgWFK5o3bw7qxnsyDsHYbeC6WnwZ48N27ty5as6462LPxMHbQ8j3v2f0PKPodY0LgHLlyqm4Di82Crswhe2U7cPzc/77tO0vv7MOG5YbgBYHbxzk7LYz+XrGL2G/JnOxmTPPreyQkBDFiscze6azpE6dGky741Y+A+X4I6Vgw7lz59TKj1KK3Iq/fPmyWr074iTs98j5JZh7y5eZtm3bKmfP44m4akx9o2OfOXMmdu/eDf63oyYO3lGkfLdcp3ol0aFeSe0B8j6rUKGCemZ4icVssXMVftR2bs5/XwNAoZeYvx6ni/UknuLgzaGfAcBoAM2dGV0fW5cYlMe8cjr1xyUaY1bk3Nalo+fqnU7fCit1RyEOCgpSLy88m69fv74i3YgrxnN2HpuQ0pgPWf637tyJg48rd8uLxzmwTQ3ULZVHGwju8r322msePbZ7qtPMPb9qW5HHrMp5Zs5zRTp0RrZH287NWTbmoz12X64gDt787JK3nil0jK63RkK7+TF5/ArUnWY6HR09jyV4Ru8uFjx3DJ4vYhTu4crp999/V8RCTFE0Y+LgzaDnG3V/+LApCuXQJ5Nat24dWrVqhVOnuKPtsDFArT8AZhjxkwYAU4r5HKRQF/8ynD/Gz9AJM92MW+lM2eFKm2fkMSturrrp1Hlezq2rOL36dngWYikoDt4ZKD7Sj/8QwFsA9EWYndMHn7wKjyIY/FOxYkWQ8jZjxozqWMJbjXSgfIgePHhQBTvSuZP7W3e1/rzxm3Hwf285hH4//u2tsEq/GfH70ktYPKwtQoL1fx+M9Xj//ffVUZ6GMdhYtGU1AHN3UXHwzkOcb65vAugOILfzLmvZKzFClVtnWwFQCzedK3vKc/lXXnkFhQsXVgGH3Mqnw2dcAo8trGzcbmcEPDnjd+zYgW3btqm/zmYLNOrgyb+/9L8D+GzqMivDKH2zg0CyRAH4c2hbBPrrZ/BOmDABffv2xbVrXEQ7bCSz+N7h0lLQ7QiIg3cu5PQ0lPLiWy3lnJyeRufc7pq62n4AAwAw7JYvNvx3kKkrOliZcqhkAaR4D9Wv6Njo9BmRT657Kzj8sLAw7Nq1Szlyfsjzffr0afD/d8Zq3ZkreDr4JZsO4POfxcE7eAtasljODKkwtU9zpZ+ga2RGJE21JtlVDQBy0+iC7cby4uCdDzYxzQbgEwCtbGdRzm/Fs1dcB6C9jSiC52p07F0BDHVXsGHM8BlsSC7/mA+dPs/v6fQp5sNPunTpXMoQyPN0SutyZc5UxM2bN6v/ZtYCH5g8a2cZV5vRFTxfOGSL3tWz4/rrly2QBV++W0+pHeoY55/xLt9//73ufcqdSuaVi1kUAXHwrpsYMrd0AUDuxxB3Oz4XDItb8kzGnmALrHleAAxFeQZa6aWGgXnBwcHInj27Si2M+fBFgNv+FMHhh+f6zwvi48OPkqykhmVAHIVdmIbIFTmdOKOP9+/f/wQnvAuwd+iSZhy8iM04BLGlCzUuXwAftaiEhPH1Ng5v3ryJ9u3bK2ZLDePzgM84BsyJWRQBcfCunxgmpfYDwL909N5odOxUVRpno3V8kfACI2c7A+gJgCmEek8aDyJD5052vZj0Q664Y9IM+dcbTORivWGWXNdH6sC3rV0c8ePp/exIhtWhQwcsXbpUt3PiP3QRc3N5mSD3AM6w1pYA3gDwqrvOqp0wNL6l77MJMMyy5aDauyy360n+0wtAUWdJ7NprVL6HOo6gtoCu5Cd3KZZvP4JPJms/4AV2CyEw4K1qqFc6r4qm1zHyLlD8iSqFGkZGONF91gDME0X17gRP9NB32mTkS04ArwFoAyCvxYd2jgqSAObZIuV1clIZxlvEdjzRxAeOJyw+VY+6Z8bBr9xxFL2/p+aGmDciQJ8+7oMGKJkvy/+Szh0dBx17586dERoa6mgVlttp+43r1JGybkZAHLybAbedW3H7ujGAjgBIeWslI+kEHfs0my4yiSiMGO+t1DYCIB5ReOvxhJGxe6QOswgmTpyISpUqabXPFbw4eC3ILFc4caAfxndtiAIvk29GzxYvXowuXbooPgYNo1Y6M4XELIyAOHjPTg637hlpzzNrOnq9wzPn9Z1b8TxXnwpgJIATzru0uhJldknpSwU+/SRdJ3fGVy9nxsGv3nUMH3232Feh8flxZQxJhi/frQumyunarFmzFMkNdSw0jDeLS3U4NPoiRV+AgDh4a9wawTZluhYASCTNX2kyF59f8wwt3ObMefg6wyan6CpEeF7H8TEIj8cTQuvrZKTp4ElYUrlyZa0rP3wIrNt9DD0n/qlVTwpbB4GC2dKCPPSZU/NR4rhx94b3TPfu3ZV+hYb9ZtPg0KgiRd2NgDh4dyNuvz3mlpYBUMK28s38GMezmfliOsslmxOn6tIOABtt2shGt+Htj+bZEnyB4a5FNQCv2I4sjFxH6jyFQK5cudQWfZUqVbSwEQevBZclC1d45WX0blkZaZLr0dSSOnnEiBEg0Y2mTbdRc2tWk+LuRMCMw3BnP+NiW1zhUsgmi40Gluf2LwPIZHP4SW3R+JRcixF1YD4XU9r4oZwiV+gMluOWO1Uk+G9qI1OVyZ1O/en5431X2HaGx20+phDKit7kXZ4zZ061GqtWje9Ojhsd/PrQ4+gxYZHjlaSkpRBoUCY/PmhcFsGJ9X5GpKbt37+/UjHUtEkA3tWsI8XdjIA4eDcDbqI5nl1zm5sOnQQT/G9G5sd8OJekS+M+Gx09P1y1RwLgdjz/8qzdSsa8eQr10MG3BkDqS32eTSuNyHl94Xwxg4G7LozRsGvk5qeDr169ut2yjxfgTbFx7wl0HfeHVj0pbB0E3q5ZDO3rvKrNQ0/qZG7Pa5LccOBjAPSwDgLSk+chIA5e7gsrIMD7kC8sPJ7oBqBhHFbl4w4L4yEm2jSvawNY6MgkZcuWTTn4mjUZy6hnm/adwvvfLNCrJKUtg0D3JuXwRrUi2jnwZGMkix2VDTVtiI3AS7OaFHcnAuLg3Ym2tOUoAkypqwWAOfSFAPA4goeLfo5ewEvKcZeFuytMTaQqHwOXKN7xeDgzvTUT1O1mWFB4hw6+dm2+E+jZlgNn0HnMfL1KUtoSCAT6JcTHLSritTL5tPuzb98+tGjRQjcHnu2QlpoZN2IWRkAcvIUnR7qmEMgKoJyNAZABepSl5Se5I07PghjyCIUyu4yJOADgXwCrAbwoCZkH6jwct3u4mjlzZuXg69atqz3sHYfPosNongiIeRsCIckSoXfLSqhUWJ9SgwJJvF80deAJEbNhvvM2rOJaf8XBx7UZ997xUiIrjS3QkMGGVOzjX74A8C8DEvVktNyDRTSAizaaXypv0alTapd/uR1vjyGQIfHcO7dLC5opUyZ8++23eO01kiXq2c4j59Bx9DxQOlbMuxB4OW1y9HmjCorlYhyunq1evRo1atRQuguaRolo0leLWRgBcfAWnhzpWqwI8MyeXAFcyfOTwpZWyHN8UgJzOcMUQ3cG7dE7MnvhiM2JxzhyZi9cAXDZtv2uox1bEcDvtjHGCkj69OmVg2/YkCEMerbr6Hl0+moe7kfrdE2vDSntGgTIXtf3zSrImVGP5IaCSnPmzEHLlpTJ0Da+RQpxgjZs7q0gDt69eEtrrkXg6cwCZhvQ2ces9LnaZ5physdeCiiOY/d8+7Fuc4v9mm1VfsG2CmcaIp06hXm4/U5WwJhsBv414zXLA5hro/2NFT3q3tPBN2rUSBvl3cfOo/PX8xF1jxsOYt6EQKm8mdG3dVWkS2F3k+eJYUVHR+Orr77Cxx9/bGS4fPFca6Si1HEfAuLg3Ye1tGRNBJiqxyA+UoBxR4CBfFz1x+xVM9WQgXD80LFzhe7OfWySHs2xye/GimCaNGlUPnPTpk21kQ49Fob3xvyO23e1t2q125IKzkWgatEcGNC6GhIF6sWgclu+V69eGDeOKtDaRjEpCs6IWRgBcfAWnhzpmiAAoJRN/IeER7FaSEiIcvDNmze3V/SZ7/ccD0OXsQtw6469kADtS0sFFyLw0ksvoUHZ/Pj0zcraKXJksXv99dexcKFDWZhPj4JHYCTMErMwAuLgLTw50jVBwEZZPNsR1cGUKVMqB8+0J13be+KCyoO/EckNCzFvQcA/YQK0ql4EneuX1u7y7du3UbZsWezYQdZqLeM2D184z2vVksJuR0AcvNshlwYFAS0EitmIb5giGKslT55cbbe++SYDnPVs38kLisnu2s3behWltEcRSBLoj84NSqN5Jco66NmtW7dA7oTLlxn7qWUMGKVgFLNDxCyMgDh4C0+OdE0QsHH2TwNQ0B4aSZMmVQ7+rbfeslf0me8PnLqI7t8uwuUIyhiIeQsCKZIGqRz4qkVyaHf5/PnzyJgxIxhNr2kUq3rVlhWiWVWKuxMBcfDuRFvaEgT0EeDSbCoABjXFakFBQcrBv/POO/aKPvP9wdOX0GvCnwi7yhhCMW9BIG2KJBjcriYKZ6ekg55t2LAB5cqRQ0rbuKdPAiau5MUsjIA4eAtPjnRNEACQH8CPthVTrIAEBATgm2++QYcOHbSBO3zmMj78bjHOXiZrrpi3IJA5TTC+eb8BMoYwAUTPpk6dirZt2+pVelSazIvMxWRWiZiFERAHb+HJka4JAgB49j4FQFl7aCRIkEA5+M6dySKqZ0fOhqP390tw8sLjNPh615DS7kcgZ4ZU+OGjZggKIAWEnvXr1w9DhlAzRtsYds9zIE9KTmt3Oi5WEAcfF2ddxuxNCOQCQO3tSvY6zZQpOvj333/fXtFnvj92Lhx9Ji/FsfOy66oNngcrFM+dERO7N8ZLBp7kTJEjk50B+xkAbzJyQ4hZGAEDt4WFRyNdEwR8DwHmG08AUMORoX399dfo1q0b6Ox17HjYFfSd8hcOndGOqNZpRso6GYHXSufDZ2/zOFzfihYtaiRFjg19A6APAEm50IfdrTX0ngJu7Zo0JggIAjYxnfEAHJKI+/LLL9GjRw/Ej6+nu8Ot+f4//o19JyXzyZvuuo71SoIfI5YkSRLcvGloET4IAPf2hTTBCPBurCMO3o1gS1OCgAEEyJ0/1hbUZLf60KFD8eGHHyJhQr0z2VMXr+Gzqf+AlLVi3oPAwDbVUbcUU9L17OLFiyC1sUHrBYD8tsJrbBBAd1UTB+8upKUdQcAYAsx/+hqAQ/yzAwcORO/eveHvT4p9x+3MpQgM/Hk5dhw563glKelxBCb3aoIiOfVlYjdt2oTSpfXZ72wDbgeA5/CiTOTxOyD2DoiDt/gESffiPAJcZo0G4BA9Xd++fcFPYCCF9By3c+HXMXj6Cmw+QIl6MW9BYPGwd5AmeWLt7s6cOROtWrXSrmcTWmoMgJH07hRdMtLXOF9HHHycvwUEAIsjQJHvkQAcSljm9vxnn32GxIn1HvphV25g2KxV2LCHyrdi3oBAgF8CrBnzLuLH01E7fjSyQYMGYcCAAUaGGQmgAYDlRipLHfciIA7evXhLa4KALgKUsR0G4F1HKnbt2hVffPEFkiXTIz65eO0mRv6yGqt3ikCYIzhboUyODCnxS3+HNnae6W6bNm3w88/cZdc2Csw0A7BBu6ZUcDsC4uDdDrk0KAhoIZAEwGAAXR2p9e6774KBdhSe0TFy0H/121r8s/WwTjUp60EEqhXLieEdamv34OHDh6hYsSLWrVunXRfAQdtx0TYjlaWOexEQB+9evKU1QUAXAR6mfw7gY0cqknp05MiRSJWKO/uO25UbtzFm3jos2XTA8UpS0qMIdKj7Kjq9Vkq7D5GRkShcuDAOHzb0MrcZAMUO9mo3LBXcjoA4eLdDLg0KAloIMN+tv+1jtyKlYkePHq2dAhVx6w6+mb8BCzfIc9suyBYpMKRdTdQskVu7N0ePHkXlypVx+rShgEqevfO46Kh2w1LB7QiIg3c75NKgIKCFAH+jn9q26e1WbNq0KcaOHYv06fXUxW5ERmHCwo34bc1uu21IAWsgMKtvS+TKFKLdmbVr16J58+a4cOGCdl0A8wB0AyD5lEbQc3MdcfBuBlyaEwQMIPCRLdDOLj1d/fr18e233yqdbx27decuJi3ahFkrdupUk7IeQoBMxOvGvIcA/wTaPZg9e7bSK7hyxZDuAJUNeVwUrt2wVHA7AuLg3Q65NCgIaCPAALsRAALs1axZsyYmTZqELFmy2Cv6xPe3o+5hypLN+PlviZ3SAs5DhUOSJcLSEeSb0bdRo0aBhEgGaWq/BPCZ8NDr4+6JGuLgPYG6tCkI6CHQCQAfrIyoj9UYHf3jjz8iW7Zs9oo+8f3de9H46a8tmLyYMVRiVkegUPZ0SibWiFGrYMKECbh7965udTLX9bO9bArJjS56HigvDt4DoEuTgoAmAm1sbHYp7NUrWbIkpk2bhly5qDLruEVHP8D05dsx/vd/Ha8kJT2GQO1Xc2PQOzW1279//z5at26NX3/9FUyX07QbAHhcRPliMS9AQBy8F0ySdDHOI9DCxkef1h4ShQoVAs9Y8+bVEyDhs/6XlTtVLrz2Y99ep+R7pyPQrk4JdK6vzyUfHh6uKGr/+usvI30iyU13AIZE5I00KHXMISAO3hx+UlsQcAcCDW0a3FSWi9W4cp87dy4KFixor+gz389dG4pRv67B/egH2nWlgnsR+Pzt6qhXWu8ljj08dOgQyJXw77+GdmqYON8FwDL3jlZaM4qAOHijyEk9QcB9CHAv9lsA2e01mTlzZixcuFARmejaH//uU3S1d+7e160q5d2IAB/ak3o1RdGceqmQ7OLGjRvRqVMnhIaGGukxUyw6AthipLLUcT8C4uDdj7m0KAjoIlARwEQAdpdsISEhWLJkCYoXL67bBpb+dxAjf10N5sSLWReBpIn8MblXU2RPn1K7k4sWLcIHH3yAkydPatcFsB4A40GE5MYIeh6oIw7eA6BLk4KAJgIlAXwP4BV79agit2zZMpQqpU9hunzbYYz4ZTWu3rhtrxn53oMI0LGP7lwPGUP0BIXYZWZY9OrVC9euXTMygiUA3gAQYaSy1HE/AuLg3Y+5tCgI6CJQCMAUAHaX5QkSJMDq1atRtmxZ3TawZtcxjJi9GlSWE7MuAqXyZcaAt6ohdbCeJPCDBw/w5Zdfol+/fmA0vaYxMGOGTbZYgjQ0wfNUcXHwnkJe2hUEHEeAOW8/ASjjSBWu4KtVq+ZI0SfK/Lv3pHLwZy/LAk0bPDdWqF8mH7o1KYdkiezyHj3RK4rM9O/fH1999ZWR3t4BwIp9jVSWOp5BQBy8Z3CXVgUBHQTIOzsNQGVHKs2bNw+NGjXCS+Qz1bBth85i+KxVOB5miMJUoyUpagYBpsi1rVUcAX7UIXLcyD3P7fmZM2c6Xun/S14H0McWC2KkvtTxAAJ6TwAPdFCaFAQEAVDcnU9lh8S/ec769ttvI168eFrQ7TkehmGzVuHg6Uta9aSw+xDgS1vvFpXQuHwBxIun9/imilznzp1VjIYB403RFsBiA3WliocQ0LtDPNRJaVYQiOMI+AP4BQDz4e3amDFjlJhI/Ph2tWmeuNahM5cxbOZKhB4Ps9uGFPAMAokC/NC/dVVUK5ZTuwO7du1SL378a8CoHlcHgMgNGgDPU1XEwXsKeWlXEHAcAf5Op9simO3+Zikk8umnn4IBdzp28sJVDJm5EtsPiRKoDm7uLJs+ZVL0bVUFJfNm1m52/fr1aNasGcLCDL3AMTWuBICr2g1LBY8hYPdh4bGeScOCgCDwOAITAHQAYNdr9+zZE8OHD0fChHpntGFXbmDwjBXYtO+UIG9RBPJmTo1P3qyMfFnSaPWQvPPkR2jYsKGRCHq2tRZAJUCYjLWA93BhcfAengBpXhBwEIFhNh5wu6HT7dq1U2phfn5+Dl76UbErNyIxeMZKrN11TKueFHYfAly593mjEjKFBGs1yrQ4xmaQxc6g8QWTNLViXoSAOHgvmizpapxGgBHMlOpMZA8FbsNOnz4d/v48unfcbt25i0HTV4CEN2LWRKBGiVwqyE43Re7OnTsYPHgwhgwZYnRg70kEvVHoPFdPHLznsJeWBQEdBDoDGA4gqb1K1atXxx9//IGAALuL/ScuRZGZQdOXY/GmA/aakO89gEC8l15C80qvoEfT8ogfXy9D4ubNmyqCfsYMctUYsvI2qlpDlaWSZxAQB+8Z3KVVQUAXgZYAxgOwqwlfrFgxrFu3DoGBgbptYPjsVZi/bg8ePBDRWG3wXFwh0C8h2tUtgTY17RIaPtMTUtPWr19f3RcGjLR3PPQXggQD4Hmyijh4T6IvbQsCjiNARTmS3aS2VyVr1qzYu3cvgoKC7BV95vtvF/yLmct34O79aO26UsG1CKRIEoTuTcuhTsk82g1dvnwZRYoUwZkzZ7Tr2sRlmJcnb31G0PNgHXHwHgRfmhYENBAoBuAPAHY1QpMkSYLz588jUSK7x/XPNP/z31sxZckW3I66p9E1KeoOBDKkSor+rauheG4SG+rZsWPHkDNnTpCP3oDNAfC6gXpSxcMIiIP38ARI84KAgwhksaUqOZQAfenSJaRKlcrBS/9/sblrQ8FVvEjGakPn8go5MqTEyI51kTmNXgQ9O7Z48WLUq1fPaB8/AjDKaGWp5zkExMF7DntpWRDQQYDSYTsBZHekErfo8+XL50jRJ8r8teUQRs9ZI5Kx2si5vkKh7OkwrmtDBPnr8RuwZyNGjECfPkzEMGQVbS+XhipLJc8hIA7ec9hLy4KADgL8rW4HUNiRSitXrkTlyg5p0zxxuQ2hJxTZzaWIW440I2XchAA56KsUyY4RHckWq29vvfWWSp00YBSZyQYg3EBdqeJhBMTBe3gCpHlBQAOBpQBqOVJ+1qxZaNmSgfd6tuvoefT74S+cv3JDr6KUdikC8ePFQ+vqRfF+I4cUg5/pCzMrtm/n+6G2/WdTMbytXVMqeBwBcfAenwLpgCDgMAI/2hS97FYYOXIkPvqIR6d6RqnYnhP+xOmL1/QqSmmXIpAwQXz0aVkZDcrqH7tER0eDgZe3bxvy0d8D+ADAXZcOUC7uEgTEwbsEVrmoIOASBAYCGODIlakmN27cOEeKPlHm6o1IdPpqPo6dl5RnbfBcWME/YQKM79YARXJk0G7l8OHDyJUrl3Y9WwXS004CIHmTRhH0YD1x8B4EX5oWBDQRaAPgJ0fqNGjQAAsWLHCk6BNlyGbXZsQcHDh1UbuuVHAdAgysm//FW0iVTD/18ffff0fjxo2NdC4KQG0Aq4xUljqeR0AcvOfnQHogCDiKAKOZVztSmKQmBs9c8cE3C7Fx30lHmpEybkIgS5pgzP28NRhsp2vkoO/fv79uNZYnZ3EzAHuMVJY6nkdA/27xfJ+lB4JAXEWAOfAOed6UKVOC7GVGbODPy7Fo4z4jVaWOixCoVSI3BrcjmaG+tWjRAr/++qt+RWA+gOqlpnkAABhWSURBVK4AzhqpLHU8j4A4eM/PgfRAEHAUAWrBM7zdropMvHjxcP36dUNsdpMWbcLkxZsd7ZOUcwMCH71eEa9XLqTdEpnr8ufPjwMHDAkIDQYwFICh6DztzkoFpyMgDt7pkMoFBQGXIrAfgENk5AyuypEjh3Zn/vh3L76YtkK7nlRwHQIz+rZAnkx2ZQie6cDp06dRtGhRI7s5zH9n9Dz1D8S8FAFx8F46cdLtOIvAQgD1HRn9qlWrUKlSJUeKPlFmy4HT6Dzmd+16UsE1CCQK8MOK0R2RQFMilr1ZtmwZmjVrhoiICN3O8YyGGvBrdCtKeesgIA7eOnMhPREEHEFgGACHOEenTp2Kt99+25FrPlHm7OUINOj3s3Y9qeAaBF7NkwkTujcydPExY8bg008/NZID/zeAjgBOGWpYKlkCAXHwlpgG6YQg4DACpKeb5UjpAQMGYOBAps7rWdS9aFTq/h3uRUvqsx5yrindsV5J8KNrDx8+RPv27fHzzz+DZDcaRinB7wD0AiCyghrAWa2oOHirzYj0RxCIHYECAEIdAalVq1ZG+cfRZMA0nBQ2O0dgdmkZPqC5ei+RJ5N2O9euXUOTJk1AXQJNI+88aRAd4lzQvLYUdyMC4uDdCLY0JQg4AQGqyp0BkMzetcqWLYv169fbK/bc7z+ZvBTLth02VFcqOQ+BNMkTY8qHTZEuZVLti+7YsQNt2rTB7t27deseBdBQ8t91YbNeeXHw1psT6ZEgEBsCgQC4JCtlD6bs2bOrh3tQUJC9os98P+2fbfhm/gbtelLBuQhUKpwN/VpVQ3Biu5mRzzQ8Z84c9OjRA+fOndPtFMmUqgO4r1tRylsLAXHw1poP6Y0gYA8BPwATAbxjr2CmTJmwYsUK5MyZ017RZ76XSHptyJxegaR1XRqUwRtVi8AvYXyt6/PMfdiwYRgyZAju3LmjVdemdzBIt5KUtx4C4uCtNyfSI0EgNgT4pO8OYJQ9mFKnTo0ZM2agenUuxvTs2s3bqPnxFEQ/eKhXUUo7DYFkiQIwsE11lC34MnQf1OHh4ejZsyemTdNOY+eElwCwzWkDkQt5DAHd+8ZjHZWGBQFBQCHA3ywFQBYBiBcbJsmSJcOIESPQqVMnbegYgV2/31ScDxddeG3wnFShUPZ0+PTNKsiePqX2FUNDQ9W8b9y4UbfuQQCviDysLmzWLC8O3przIr0SBGJDoBiAPwGkja2Qv78/unXrppy8Ees18U+s2XXMSFWp4wQEmlQoiG5NyoFKcrq2dOlSMIviyhVt2d/PAHyh256UtyYC4uCtOS/SK0EgNgTIPzsVQNnYClF5jCxmM2fORIIEpLHXsx+WbMbEPzbpVZLSTkGAQXVdG5dD/TL5tK8XFRWFsWPHonfv3rp1mfNO4fgTuhWlvDUREAdvzXmRXgkCsSEQAmAkAOrDx2pVq1ZV57Dp06e3V/SZ7ykZ2338IkQ/eKBdVyqYQyBvltT4ok0NvJwuhfaFqCLYrl07/PHHH7p1/7X30qh7QSnvWQTEwXsWf2ldEDCCgD+AD21bqbGewxcqVAjff/89Xn31Ve12ToZdxQfjFuJcOHVHxNyFADnnG5TNDyrIGeGf37dvHypXroyLFy/qdpnkNnaDN3UvKuU9h4A4eM9hLy0LAmYQaAFgHIBUsV0kXbp0aruWW/W6dvXGbXz562r8s1UIb3SxM1M+caAfRnSsg5J5Mxu6DF/oDARW8rCewZuiE2wIdWtWEgdvzXmRXgkC9hAgOTn5wgvHVjBhwoQYNGgQPvroI1AjXse4NT9/3V6MnrMG96Nlm14HOzNlGT0/sUdj+CXQy32PabNGjRpKRU7TmJXBdIvzmvWkuIUREAdv4cmRrgkCsSBAcfDJjkjHvvPOOxg5ciRSptRPt9pzPAxDZ63CodOXZDLcgADJbYZ3qIOqRRlHqW/cls+QIQPu39cioaMSTQ/bC6OIy+jDbtka4uAtOzXSMUEgVgT42x0CoCcAnsm/0Hj+/uOPPyJ//vzakEbeuYsx89Zj4Ya9QnqjjZ5+hZwZU2H6J68jQXxjq/fhw4fjk08+0W2Y2u9cvRsTLtBtTcq7DQFx8G6DWhoSBJyOAEXCJ9jLh0+aNClmzZqFOnXqgKlzurZ822GMmrMWlyNu6VaV8hoIJEwQXzHX1SjOTDV9u3XrFkqVKoU9e/boVObZy0zbCp4qcmI+hID+r92HBi9DEQS8HAHmvv0NgBKysVq/fv3Qt29fBAToi5aQtvaTKX9h68HTeCjMtfagNvw9g+qGtq8FUtQaMZLbNG7cWJd7nk69D4AfAMjsGgHewnXEwVt4cqRrgoAdBBg1R83ut+whVaxYMRV4lTx5cntFn/v9b2t2Y/SctRJsZwg9+5USBfihf+tqqFIkO+LF038sP3jwQEnDktSI/9Ywcs5zJ+i0Rh0p6iUI6N9JXjIw6aYgEEcQYP7bHEfGumrVKlSqVMmRos+UuXXnLhoPmIbw65GG6kul2BGoUzIPujcthxRJ9KV9eeXt27fjzTffxIEDB3SgZiQe4zg+16kkZb0HAXHw3jNX0lNB4HkIJLVRi9pdmjdq1Ahz587VTpeLafTXlbsw6re1oBCNmPMQyJImOT5uUdFw3jsj5ikNS80BnsNr2GUAZQAI0YEGaN5UVBy8N82W9FUQeD4CkwB0tAcOz9+3bduGfPn0+c15ba7i3x4+ByfCtAVM7HUtzn4f6J8QbWsVR6vqRQ3nvXPV3rlzZ6xevVoXR/IodNatJOW9BwFx8N4zV9JTQeBFCBQHQFUYu7lVXbp0wfjx4w0jOX/dHoyYvVr46Q0j+GRFnrn3blkJKZMmMnTFu3fv4qeffsLHH3+M69e1KIUjAJC/+JChhqWSVyAgDt4rpkk6KQjEigCl4rbYY7XjFTJlyoQVK1YgZ86chiC9cPUmBvz0D7YdOmOovlT6fwQyhiTDuA8aIFPqYMOwnD59Gm+99ZaR1Tuj5jtI5Lxh6L2iojh4r5gm6aQgYBeBAQAG2itFjXimy/Xv399e0ed+/+DBQ/yz9RAGz1iBO3e12NIMteerlZIE+mNSzybIlSlWKQG7w58yZYrindeMnOfqvQKA3XYbkAJejYA4eK+ePum8IPA/BEoBWA7A7l5v6dKl8csvvyBzZmNiJmFXbuCrueuwesdRPJCAO+1bMDhxID5sXgE1SuRCPAPEQzENXrt2DUx/PHbsmE4fmEPHmA3mvmvt6es0ImWtgYA4eGvMg/RCEDCLQCYA0wDYzYNLkSIFBg8ejA4dOiBBAu7u69uaXccwas4anA+/oV85DtcICU6Et2sUU3KwDLAzaoycp4DQmDFjdC9xCkA7ACtke14XOu8rLw7e++ZMeiwIPA8BJlD3BsC991h/16SrrVevHr755htkzZrVEJq3o+5h8uL/MHvlLty7T60SMXsIpEqWCO/ULoE6JXMjcWCs8gH2LqVIi5j2qJkWRyEZEiP1BcAUOTEfR0AcvI9PsAwvziDA3/Jrtu3XtPZGHRwcjAkTJqB58+aIb1DY5OK1m+jz/RLsPhZmr7k4/33SRAH45I3KKFcgq6mVO4G8cOECWrVqheXLeSKjZcx3Z1rcSlm9a+HmtYXFwXvt1EnHBYFnEKBKyUQAVRzBplq1aoraNHVqKs8as6Nnw9F25BxERonK6IsQJJHN8A61kS19CsSPR3Zh4xYdHY2hQ4caIbXhBPHsnbKwEh1pfAq8qqY4eK+aLumsIBArAjxQHw6gKwC7B7zcqp8+fbqiODVjf285hC+mLUfUPfEbj+PolzA+SubJjA9fr4AMqZKZgVjVZaT8ypUr0bVrV+zfv1/3ejx7rwxAKyJPtxEpby0ExMFbaz6kN4KAWQS4Tf8tU94duVDevHmxZs0ahISEOFL8uWXo2Ccv3ow5q3bJSp4BEC8BmUKCUfvV3GhcoYBhEpunwWa0fM+ePfHHH3/o0gVz9d7dJi1seJ6lovchIA7e++ZMeiwIxIYAE6vn2vKcHfp9kwWNXObxTGwfX7x6E98t2qRy5ONyfjyD58q/8rIKpCuWK6Nh+tmnJ/j27duKv4BxE1FRUbq/gMUAKEp0W7eilPduBBx6AHj3EKX3gkCcQ+ATAF8AcCgHLlWqVEqEpmLFioaBYjr8mUvXMPGPTVi14yjuRcetyPoE8eOhSI70aFguP0rkyWRYFe55E0Bxn5EjR6qzd006Wl6OMrCUg6UsrFgcQ0AcfBybcBlunECA2/NkKXOIA5Vn8XXq1MGMGTPA6HqjRicffv2W4qpftfOo0ct4VT0+QDOEJEOrakVRodDLSJk0yHQg3dMAkGue5+43b97UxYZBER/bjmzu6laW8t6PgDh4759DGYEg8DwEGE3/rqPQ0LEPHDgQ77//vqmterZ3P/oBBk9fgb+2HFT/9jXjGTuj4ZME+eONqoXRrMIrSBxkLq/9eRgxqG7RokVo3749Ll/WTlunpu+ftoDLE742BzIexxAQB+8YTlJKEPA2BPLYBGgSO9rxEiVKKPKbV1991QlOPho//70N89aG4lJEpG5QmKNddms5OvWUyYKQJU0wyhfMhjqv5kZwkkCX9OHevXtYtWoVevXqhT179ui2QefOaHmmxNHJ87/F4iAC4uDj4KTLkOMMAjMAOJwDR8Kb1q1bqxxrM7nxMegy2G7t7mOYuzYUocfCvJbxLlmiAGRPnxJ5M6dG0VwZUCh7OpBP3lXGXHemw1EQaPPmzUZejsgfPATANxJY56pZ8o7rioP3jnmSXgoCRhBg1NwfAJI6Wjlp0qTKsXz44YeOVom1HLfoT4RdwfJtRzB3zW5cu3XHKdd19UX8EsRHrkwhKJozA/JnTYOX06VAppBkSJggvqubxl9//YVPP/0UO3fuNOLc2b/pAHoKHa3Lp8ryDYiDt/wUSQcFAcMIpLQx2zFFymFLnjw55syZAzLdOcvIdHfm4jXMXrkTy7YdtmQqXcL48ZRTL1MgC17NkwlpkydFssQBCPRLAAYiutoYLT9r1iz07t0b586dM+rcGVxZG8A5V/dXrm99BFx/11ofA+mhIOCrCPD33RDAzwCS6AwyUaJE2LJlC0iE40yjnvy+kxfww5LN+O/Aady957l0OoKTMEE8FM2VEZUKZVP566mDE7vFmT+N6d27dzF69Gh88cUXuHPH8C4HI/FKCludM+9Y776WOHjvnj/pvSBgDwGmzH1ty4XWIkIvWbIkmKKVJ08epzs9ptQdPReOZVsPYdP+U7gcEYkbt6NwJ+qe0zXmud0e4J9QrcRJRJMuZRIUyJpWnaUXzJYWAX52WX3tYWz4e0bKk6Fu7NixmDp1qpFUuJi2L9nY6n4hq63hDklFn0JAHLxPTacMRhB4BgH+xt8AMAqAXZW5x2snTJgQdevWVSx3uXPndrqTj2mL0rP7T17E3pMXcOz8FVy6dhNXb9zG9cgo3LodhVt37iH6Qew+K368l+DvlwCBfgmRKMBPpbAlDQpQW+xpUyRR5+cZQ5KBwi8pkgYhnhu23O3di9R0p+wrMxeoDMf/NmhXAIwGMB7AdYPXkGo+iIA4eB+cVBmSIPAUAjyL58OfZ/FaUWKBgYFo1qwZBg8ejEyZHKK3NwX+3Xv3EX4jEuERkYi4dUet6m/evovbd+4h8u5d3Im6b3P2L4HscRR08U+YAIkCHjn2IP+EapVOeVZGvwcnDoC/X0JY7UF3/vx5TJkyBdOmTcORI0fMYBYJ4AcAQwGIbq8ZJH2wrtXuex+EWIYkCFgCgdIAFgGgs9eyoKAgNGrUCN999x0SJ3Y4rV6rDXuFox88BNPH7j94+L/gM67C48V7SZHO8GOBRbm9YahV+tq1axX17Pr163Hr1i27dewUmAagD4DzZi8k9X0PAXHwvjenMiJB4HkI8Px9MADy1Gsbc+Rr1KiB3377DQzAE9NH4Nq1axg1ahQmTZqE8PBwo1HyjzfMFMiWALiKFxMEnkFAHLzcFIJA3EGAnvk/APmNDrlKlSpK0Sx79uxIkMAhLRujTflEPe46XL16FRs2bMCAAQOwezez2Ewb5eQW2kiMDB/cm+6FXMDyCIiDt/wUSQcFAaciUB3ATACGBOC5ki9VqpSSLq1UqRJ4Ri/2LAJ07GfOnMHGjRsxc+ZMLF682BkrdjZExZn5tp0YyXWXmy9WBMTByw0iCMQtBAIA9APQCwD/rW0kfWHqXIcOHfDOO+8gWbJk2tfw5QoMmvv777/xzz//qHP2K1cY5O4UIwUtX86+BHBcOOadgqlPX0QcvE9PrwxOEHguAtlsufGvAcYDzFOmTImqVati0KBByJUrV5yGmvns+/btw+zZs1XK2+HDh9XWvBPtni0VjvzyElDnRGB9+VLi4H15dmVsgsDzEWDAXQWbTng+MyBxyz5jxowYMmQImjdvDubOxyXjVvy2bdswbtw4rFixQgXPkZXOycYz9+42RsLbTr62XM6HERAH78OTK0MTBOwgQL14qo6lMItUQECAypcnj3qOHDng7+98fXSzfXRGfTr027dvgxHxFIX58ccfsWnTJmedrz/dRfL4HgXwHoAVzui/XCNuISAOPm7Nt4xWEHgcAT9b6hxXh05ZemfJkgXt2rVTDHg5c+ZEkiRaFPiWnB069UuXLuHs2bPYv3+/2oLn+XpYWJirHDtxYIL8ctv8bBf6WUveGpbvlDh4y0+RdFAQcCkCwbaz3bd1We5i61X+/PlRu3ZtpUhHTvvgYDbjPXbv3j2cOnUKBw4cwN69e7Fr1y4l38qzdX7nYmNUHtnpJtlW8C5uTi7vqwiIg/fVmZVxCQKOI5AOwHAArQBoCdLE1gTP4zNnzoyiRYuiZs2aqF+/PkJCDGXnOT4SEyVv3LihnPnWrVvV5+jRo2rVTunWqCgeg7vFttnmglvyTo3Sc0vvpRFLISAO3lLTIZ0RBDyCAJ8DWQEMs/HVO83JczQMxCPFbYoUKVC9enU0adIEZcqU8RjtbQzCjHw/ePCgIqEhfez27dtVkBzpYyMjIxU1rhuNwXM/2kSBTgNwa+NuHKc05UYExMG7EWxpShCwOAIvA2AaVm1nbtc/b8ypU6dGxYoV1TZ+hQoVkDZtWvUiEPNhrj0/Ru3hw4egA+eHjpp/qbMeGhqK//77TwXG0bFfvHjRaBPOqkcmun0A+gNYCsDl+//O6rhcx/oIGP8FWX9s0kNBQBDQRyCnbRVZ19VOPqZrdOoMzuO5fYECBVROfYYMGRSBDqPxudXPD8vFi/fk5kKMA6cT59k4t9L54Ur85MmTOH78uNJb54fn53TyFjE69hM2Vjq+VJ21SL+kGz6EgDh4H5pMGYog4CQEuF0/AEBzAB5RluHqnYF5yZMnV1v5FLihs3+a/57qbHTadOo3b95ERESEIphxQyCcUagpbH/KFiH/M4D1Ri8k9QQBewiIg7eHkHwvCMRNBJIDYJ58VwBp4yYETh81g+bII/87gH8liM7p+MoFn0JAHLzcEoKAIPAiBLh6rwfgcwB5BCbDCFAg5lcAPwE4YHPsXMmLCQIuRUAcvEvhlYsLAj6BQCFbTvarZrjrfQIJvUFEAJhty07gtryYIOBWBMTBuxVuaUwQ8FoESGc7EEAj25Z9fK8dies6zlX5NQCUcV1sW7EfEtU31wEuV44dAXHwcocIAoKAowjweVEDQHsAlQCkcrSij5cjrewRAKEAVtnS3UTxzccn3RuGJw7eG2ZJ+igIWAcBPjPIfMez+TYAuG0fF1fzTHM7DGAzgE0Adtry2a9bZ6qkJ3EdAXHwcf0OkPELAsYQoFBNFgB1AHwAILuxy3hVLW7BnwTwN4BlALj9fgEAueOFec6rpjJudFYcfNyYZxmlIOAqBLh6p2RcawDdfNDRP7QR0iwBMA/AFgAUfCfjHL8TEwQsi4A4eMtOjXRMEPA6BBiIxyC8dgBy2Bx/gJeMgqtz8sFH2j5MZ1tpW6nvtTl1LxmKdFMQeISAOHi5EwQBQcDZCAQCqACgCoCiAMhxnxGAv7MbMnG9mIh3ktFzm50CL/sB7AJA/XUJkjMBrlS1BgLi4K0xD9ILQcAXESBxPFnwCj72IWEOV/dkynPn84dBceR7Zz46P8dsH/LBH7c5dG69iwkCPoOAO39gPgOaDEQQEAS0EeBZfUoAFIRPDSATgNy2Ty7bKj+x9lWfrcBzcRLMxDhyOnBGux8FEG7LUydlLD/i0J0AuFzCugiIg7fu3EjPBAFfRoAOP+FjH27r0/FzK58fvgwE2z5BNtEbnufznDwKAGXh6MjpqBnFzm12fri1zv/mij3mw4A4/luC4nz5jpKxPYPA/wGR9xIT0oWz/AAAAABJRU5ErkJggg==;" vertex="1" parent="1">
          <mxGeometry x="655.46" y="100" width="29.08" height="30" as="geometry" />
        </mxCell>
      </root>
    </mxGraphModel>
  </diagram>
</mxfile>
